<?xml version="1.0" encoding="UTF-8"?>
<!-- Generator: Adobe Illustrator 27.0.0, SVG Export Plug-In . SVG Version: 6.00 Build 0)  -->
<svg version="1.1" id="Capa_1" xmlns="http://www.w3.org/2000/svg" xmlns:xlink="http://www.w3.org/1999/xlink" x="0px" y="0px" viewBox="0 0 445.7 280.9" style="enable-background:new 0 0 445.7 280.9;" xml:space="preserve">
<style type="text/css">
	.st0{fill:#FFFFFF;}
</style>
<g>
	<path class="st0" d="M47.9,59.4v58.1c0,1.1-0.1,2.1-0.4,3c-0.3,0.9-1.1,1.3-2.5,1.2H25c-1.4,0-2.4-0.2-3-0.7   c-0.6-0.5-0.9-1.5-0.9-3.1V59.4h-6.8c-1.1,0-1.9-0.2-2.3-0.5c-0.4-0.3-0.6-1-0.7-1.9c0-2,0-3.5,0.1-4.7c0-1.1,0.2-2,0.4-2.5   c0.2-0.6,0.5-0.9,0.9-1c0.4-0.1,1-0.1,1.8-0.1H21c0.1-1.5,0.2-3.2,0.4-5.1c0.1-1.9,0.4-3.9,0.8-6.1c0.4-2.1,1-4.3,1.8-6.5   c0.8-2.2,1.8-4.4,3.2-6.6c2.3-3.5,5.3-6.4,9.2-8.8c3.9-2.4,8.2-3.6,13-3.6c2.4,0,4.5,0.3,6.2,1c1.7,0.7,3.1,1.5,4.1,2.5   c1,1,1.8,2.2,2.2,3.5c0.4,1.3,0.6,2.6,0.6,3.9c0,1.7-0.3,3.1-0.9,4.3c-0.6,1.2-1.4,2.1-2.3,2.9c-0.9,0.8-1.9,1.3-2.9,1.6   c-1,0.3-2,0.5-2.8,0.5c-1.1,0-2.4-0.3-3.7-0.8c-1.4-0.6-2.7-0.8-3.9-0.8c-1.7,0-3,0.6-3.9,1.7c-0.9,1.1-1.3,2.4-1.3,3.9   c0,1,0.4,2.4,1.1,4.2c0.8,1.8,2.7,4.6,5.9,8.3h8.5c0.8,0,1.6,0.1,2.1,0.4c0.6,0.2,0.8,0.9,0.8,1.9v6.8c-0.2,0.8-0.5,1.2-1,1.4   c-0.5,0.2-1.1,0.3-1.8,0.3H47.9z"/>
	<path class="st0" d="M87.7,71.1v47.7c0,1.8-0.2,2.9-2.4,2.9H72.8c-2.1,0-2.8-0.6-2.8-2.6v-48h-5.6c-1.6,0-2.4-0.1-2.4-2   c0-4.7,0-5.3,2.4-5.4H70c0.2-4.4,0.6-12.4,4.5-18.8c2.8-4.8,8.4-10.1,16.5-10.1c5.6,0,8.5,3,8.5,7.2s-3,6.3-5.8,6.3   c-1.7,0-3.6-0.9-5.3-0.9c-2.7,0-4.8,2.1-4.8,5.7c0,2.1,1,6.8,4,10.6h7.8c1.5,0,2,0.2,2,1.9V70c-0.2,1.1-0.8,1.1-2.2,1.1H87.7z"/>
	<path class="st0" d="M120.2,93.8c0.3,1.7,0.7,3.9,1.8,6c2.5,4.8,7.1,7.7,12.5,7.7c5.3,0,9.2-2.7,11.4-4.9c2.2-2.5,2.9-3.1,4.5-3.1   c1.8,0,3.5,1.5,3.5,4.3c0,3.5-4.1,19.5-22.2,19.5c-19.8,0-26.5-15.7-26.5-31c0-22.2,14-30.2,26.2-30.2c17.9,0,22.3,16.6,22.3,22.1   c0,4.8-2.8,5.3-4.6,5.6L120.2,93.8z M136.4,82.6c-0.8-10-6.6-10.1-8-10.1c-6.6,0-9.3,6.3-9.4,12.7L136.4,82.6z"/>
</g>
<g>
	<g>
		<path class="st0" d="M30.5,197.6v14.2c0,1-0.4,1.2-1.3,1.2h-6.1c-1.2,0-1.3-0.4-1.3-1.4v-32.9c0-0.9,0.3-1.2,1.2-1.2h17.3    c0.9,0,1.3,0.1,1.3,1.2v3.4c0,0.9-0.1,1.3-1.3,1.3h-9.8v8.5h8c0.9,0,1.3,0.1,1.2,1.1v3.4c0,0.8-0.1,1.2-1.2,1.2H30.5z"/>
		<path class="st0" d="M65,206.9c0,2.1-0.1,3.4-1.8,4.7c-1.5,1.1-4.8,2.2-9.2,2.2c-8.9,0-10.8-3.8-10.8-8.3v-17.4c0-0.9,0.6-1,1.1-1    H50c0.7,0,1.3,0.1,1.3,1.1v16.9c0,1.3,0,3.4,3,3.4c2.7,0,2.8-1.8,2.8-3v-17.2c0-0.8,0.2-1.1,1-1.1h5.9c0.7,0,1.2,0.1,1.2,1V206.9z    "/>
		<path class="st0" d="M92.8,211.8c0,1-0.3,1.3-1.3,1.3h-5.6c-0.8,0-1.1-0.3-1.1-1.2v-17.1c0-1.6,0-2.4-0.8-3.2    c-0.7-0.6-1.7-0.9-2.6-0.9c-3.2,0-3.3,2.6-3.3,4.1V212c0,1-0.5,1.1-1.3,1.1h-5.6c-0.9,0-1.1-0.4-1.2-1.3v-20c0-1.8,0-3.5,4.9-4.7    c2.2-0.6,4.8-0.8,6.8-0.8c5.5,0,7.4,1.2,8,1.6c2.8,1.8,2.9,4.1,2.9,5.6V211.8z"/>
		<path class="st0" d="M119.8,207.9c-0.1,1.5-0.1,2.8-1.7,3.8c-1.4,1-5,2.1-8.9,2.1c-8.6,0-12.3-5.4-12.3-13c0-7.6,4-14.4,11-14.4    c2.1,0,3.2,0.6,4,1V176c0-1.1,0.6-1.3,1.3-1.3h5.3c0.9,0,1.4,0,1.4,1.1V207.9z M111.8,191.2c-0.5-0.3-1.2-0.7-2.1-0.7    c-3.4,0-4.9,4.4-4.9,9.1s1.5,9.1,4.8,9.1c2.1,0,2.2-1.9,2.2-3V191.2z"/>
		<path class="st0" d="M144.4,207.7c0,1.1-0.1,2.4-0.8,3.3c-0.9,1.2-3.7,2.8-9.1,2.8c-2.1,0-10.7,0-10.7-7.3c0-6.6,6.7-8.1,13.2-9.5    v-2.6c0-1.6-0.1-3.7-2.4-3.7c-1.9,0-2.5,1.5-2.8,2.3c-0.6,1.4-1.1,2.9-3.4,2.9c-2.2,0-3.4-1.6-3.4-3.2c0-2.8,3.3-6.2,10.9-6.2    c1.8,0,4.1,0.2,5.8,1.2c2.7,1.7,2.8,4.5,2.8,6.2V207.7z M136.9,200.4c-2.8,0.9-5.5,1.7-5.5,5.4c0,2.8,1.7,3.8,3.2,3.8    c2.3,0,2.4-2,2.4-3.1V200.4z"/>
		<path class="st0" d="M158.9,191.4c-2.5,0-3.8,3.4-3.8,6.5c0,3.8,1.9,8.7,5.7,8.7c2.4,0,3.4-1.6,4.2-2.7c0.6-0.8,1-1.4,1.8-1.4    c0.7,0,1.7,0.5,1.7,2.3c0,3.6-2.7,9.1-9.5,9.1c-7.6,0-10.4-7.3-10.4-13.5c0-5,2.1-13.8,11.5-13.8c5.9,0,8.4,3.9,8.4,6.7    c0,2.1-1.5,3.6-3.3,3.6c-0.9,0-2.3-0.4-3-2.1C161.5,193.1,160.8,191.4,158.9,191.4z"/>
		<path class="st0" d="M176.4,184.3c-2.3,0-4.2-1.2-4.2-3.5c0-2,1.4-3.6,4.1-3.6c2.7,0,3.9,1.7,3.9,3.5    C180.3,183.2,178.4,184.3,176.4,184.3z M180.4,211.8c0,1.1-0.4,1.3-1.3,1.3h-5.9c-1,0-1-0.5-1-1.2v-23.6c0-0.7,0.1-1.1,1.1-1.1    h5.9c1,0,1.2,0.2,1.2,1.2V211.8z"/>
		<path class="st0" d="M196.3,213.8c-6.8,0-11.9-5-11.9-13.6c0-9.2,5.6-13.7,12-13.7c8.1,0,11.7,6.7,11.9,13.2    C208.6,208.1,203.6,213.8,196.3,213.8z M196.3,191.1c-2.8,0-3.6,4.6-3.6,8.3c0,3.9,1,9.1,3.8,9.1c2.8,0,3.7-5,3.6-9.1    C199.9,194.7,198.7,191.1,196.3,191.1z M197.9,184c-0.5,0.4-1,0.8-1.7,0.8c-1,0-1.5-0.7-1.5-1.5s0.5-1.3,0.9-1.8l3.6-4.2    c0.5-0.5,1-1.1,1.9-1.1c1.2,0,1.9,1,1.9,2.2c0,1.1-0.6,1.6-1,2.1L197.9,184z"/>
		<path class="st0" d="M235,211.8c0,1-0.2,1.3-1.3,1.3h-5.6c-0.8,0-1.1-0.3-1.1-1.2v-17.1c0-1.6,0-2.4-0.8-3.2    c-0.7-0.6-1.7-0.9-2.6-0.9c-3.2,0-3.3,2.6-3.3,4.1V212c0,1-0.5,1.1-1.3,1.1h-5.6c-0.9,0-1.1-0.4-1.2-1.3v-20c0-1.8,0-3.5,4.9-4.7    c2.2-0.6,4.8-0.8,6.8-0.8c5.5,0,7.4,1.2,8,1.6c2.8,1.8,2.9,4.1,2.9,5.6V211.8z"/>
	</g>
	<g>
		<path class="st0" d="M30.5,244.4v14.2c0,1-0.4,1.2-1.3,1.2h-6.1c-1.2,0-1.3-0.4-1.3-1.4v-32.9c0-0.9,0.3-1.2,1.2-1.2h17.3    c0.9,0,1.3,0.1,1.3,1.2v3.4c0,0.9-0.1,1.3-1.3,1.3h-9.8v8.5h8c0.9,0,1.3,0.1,1.2,1.1v3.4c0,0.8-0.1,1.2-1.2,1.2H30.5z"/>
		<path class="st0" d="M62.5,254.4c0,1.1,0,2.4-0.8,3.3c-0.9,1.2-3.7,2.8-9.1,2.8c-2.1,0-10.7,0-10.7-7.3c0-6.6,6.7-8.1,13.2-9.5    v-2.6c0-1.6-0.1-3.7-2.4-3.7c-1.9,0-2.5,1.5-2.8,2.3c-0.6,1.4-1.1,2.9-3.4,2.9c-2.2,0-3.4-1.6-3.4-3.2c0-2.8,3.3-6.2,10.9-6.2    c1.8,0,4.1,0.2,5.8,1.2c2.7,1.7,2.8,4.5,2.8,6.2V254.4z M55,247.1c-2.8,0.9-5.5,1.7-5.5,5.4c0,2.8,1.7,3.8,3.2,3.8    c2.3,0,2.4-2,2.4-3.1V247.1z"/>
		<path class="st0" d="M67.5,239.1c0-2.1,0-2.8,1.4-3.7c2.5-1.7,7.2-2.3,9.3-2.3c4.9,0,6.9,1.8,8,2.7c0.8-0.7,1.8-1.6,4.2-2.2    c1.5-0.4,3.1-0.6,4.8-0.6c8.4,0,8.6,6.1,8.6,8.5v17c0,0.8-0.2,1.2-1,1.2h-5.8c-0.9,0-1.2-0.4-1.2-1.2V242c0-1.8,0-4.2-3-4.2    c-1.3,0-2,0.5-2.4,0.9c-0.9,0.8-0.9,1.7-0.9,3.3v16.6c0,0.9-0.2,1.2-1.2,1.2h-5.5c-0.9,0-1.4-0.2-1.4-1.2v-16.7c0-1-0.1-1.5-0.2-2    c-0.4-1.7-1.9-2.2-2.9-2.2c-0.9,0-1.8,0.4-2.3,0.9c-0.9,0.9-0.9,1.9-0.9,3.1v16.8c0,0.9-0.2,1.3-1.3,1.3h-5.5    c-0.9,0-1.2-0.2-1.2-1.2V239.1z"/>
		<path class="st0" d="M112.8,231.1c-2.3,0-4.2-1.2-4.2-3.5c0-2,1.4-3.6,4.1-3.6c2.7,0,3.9,1.7,3.9,3.5    C116.7,230,114.9,231.1,112.8,231.1z M116.9,258.5c0,1.1-0.4,1.3-1.3,1.3h-5.9c-1,0-1-0.5-1-1.2v-23.6c0-0.7,0.1-1.1,1.1-1.1h5.9    c1,0,1.2,0.2,1.2,1.2V258.5z"/>
		<path class="st0" d="M121.8,222.5c0-0.9,0.4-1.1,1.2-1.1h5.6c0.8,0,1.2,0.2,1.2,1.1v36.1c0,0.9-0.3,1.2-1.2,1.2H123    c-0.9,0-1.3-0.1-1.3-1.1V222.5z"/>
		<path class="st0" d="M138.9,231.1c-2.3,0-4.2-1.2-4.2-3.5c0-2,1.4-3.6,4.1-3.6c2.7,0,3.9,1.7,3.9,3.5    C142.8,230,140.9,231.1,138.9,231.1z M142.9,258.5c0,1.1-0.4,1.3-1.3,1.3h-5.9c-1,0-1-0.5-1-1.2v-23.6c0-0.7,0.1-1.1,1.1-1.1h5.9    c1,0,1.2,0.2,1.2,1.2V258.5z"/>
		<path class="st0" d="M167.3,254.4c0,1.1-0.1,2.4-0.8,3.3c-0.9,1.2-3.7,2.8-9.1,2.8c-2.1,0-10.7,0-10.7-7.3c0-6.6,6.7-8.1,13.2-9.5    v-2.6c0-1.6-0.1-3.7-2.4-3.7c-1.9,0-2.5,1.5-2.8,2.3c-0.6,1.4-1.1,2.9-3.4,2.9c-2.2,0-3.4-1.6-3.4-3.2c0-2.8,3.3-6.2,10.9-6.2    c1.8,0,4.1,0.2,5.8,1.2c2.7,1.7,2.8,4.5,2.8,6.2V254.4z M159.8,247.1c-2.8,0.9-5.5,1.7-5.5,5.4c0,2.8,1.7,3.8,3.2,3.8    c2.3,0,2.4-2,2.4-3.1V247.1z"/>
		<path class="st0" d="M198.5,263.1c-1.3,3.5-3.3,8.9-9.5,8.9c-3.5,0-5-2-5-3.9c0-1.8,1.4-3.2,3.1-3.2c0.6,0,1.1,0.2,1.6,0.3    c0.7,0.3,1.1,0.5,1.6,0.5c1.5,0,2.3-1.5,3.3-4.2l-9.2-26c-0.3-0.8-0.3-0.8-0.3-1c0-0.7,0.7-0.7,1.1-0.7h6.1c1,0,1.1,0.1,1.4,1.2    l4.4,15.4l4.5-15.3c0.4-1.1,0.4-1.3,1.4-1.3h4.1c0.5,0,1.1,0,1.1,0.8c0,0.2,0,0.4-0.2,1L198.5,263.1z"/>
		<path class="st0" d="M233.8,244.4v9.5h10.3c0.8,0,1.3,0.2,1.3,1.3v3.4c0,1-0.3,1.3-1.4,1.3h-17.5c-0.9,0-1.4-0.1-1.4-1.2v-32.7    c0-1.1,0.3-1.5,1.5-1.5h17.4c0.9,0,1.4,0,1.4,1.1v3.4c0,1.2-0.5,1.3-1.4,1.3h-10.2v8.6h8.5c0.8,0,1.3,0.1,1.3,1.1v3.4    c0,1.1-0.4,1.2-1.3,1.2H233.8z"/>
		<path class="st0" d="M271.2,254.6c0,1.5-0.1,2.8-1.7,3.8c-1.4,1-5,2.1-8.9,2.1c-8.6,0-12.3-5.4-12.3-13c0-7.6,4-14.4,11-14.4    c2.1,0,3.2,0.6,4,1v-11.4c0-1.1,0.6-1.3,1.3-1.3h5.3c0.9,0,1.4,0,1.4,1.1V254.6z M263.2,238c-0.5-0.3-1.2-0.7-2.1-0.7    c-3.4,0-4.9,4.4-4.9,9.1s1.5,9.1,4.8,9.1c2.1,0,2.2-1.9,2.2-3V238z"/>
		<path class="st0" d="M297.8,253.6c0,2.1,0,3.4-1.8,4.7c-1.5,1.1-4.8,2.2-9.2,2.2c-8.9,0-10.8-3.8-10.8-8.3v-17.4    c0-0.9,0.6-1,1.1-1h5.7c0.7,0,1.3,0.1,1.3,1.1v16.9c0,1.3,0.1,3.4,3,3.4c2.7,0,2.8-1.8,2.8-3v-17.2c0-0.8,0.2-1.1,1-1.1h5.9    c0.7,0,1.2,0.1,1.2,1V253.6z"/>
		<path class="st0" d="M311.9,238.1c-2.5,0-3.8,3.4-3.8,6.5c0,3.8,1.9,8.7,5.7,8.7c2.4,0,3.4-1.6,4.2-2.7c0.6-0.8,1-1.4,1.8-1.4    c0.7,0,1.7,0.5,1.7,2.3c0,3.6-2.7,9.1-9.5,9.1c-7.6,0-10.4-7.3-10.4-13.5c0-5,2.1-13.8,11.5-13.8c5.9,0,8.4,3.9,8.4,6.7    c0,2.1-1.5,3.6-3.3,3.6c-0.9,0-2.3-0.4-3-2.1C314.5,239.9,313.8,238.1,311.9,238.1z"/>
		<path class="st0" d="M344.5,254.4c0,1.1-0.1,2.4-0.8,3.3c-0.9,1.2-3.7,2.8-9.1,2.8c-2.1,0-10.7,0-10.7-7.3c0-6.6,6.7-8.1,13.2-9.5    v-2.6c0-1.6,0-3.7-2.4-3.7c-1.9,0-2.5,1.5-2.8,2.3c-0.6,1.4-1.1,2.9-3.4,2.9c-2.2,0-3.4-1.6-3.4-3.2c0-2.8,3.3-6.2,10.9-6.2    c1.8,0,4.1,0.2,5.8,1.2c2.7,1.7,2.8,4.5,2.8,6.2V254.4z M337,247.1c-2.8,0.9-5.5,1.7-5.5,5.4c0,2.8,1.7,3.8,3.2,3.8    c2.3,0,2.4-2,2.4-3.1V247.1z"/>
		<path class="st0" d="M358.8,238.1c-2.5,0-3.8,3.4-3.8,6.5c0,3.8,1.9,8.7,5.7,8.7c2.4,0,3.4-1.6,4.2-2.7c0.6-0.8,1-1.4,1.8-1.4    c0.7,0,1.7,0.5,1.7,2.3c0,3.6-2.7,9.1-9.5,9.1c-7.6,0-10.4-7.3-10.4-13.5c0-5,2.1-13.8,11.5-13.8c5.9,0,8.4,3.9,8.4,6.7    c0,2.1-1.5,3.6-3.3,3.6c-0.9,0-2.3-0.4-3-2.1C361.4,239.9,360.7,238.1,358.8,238.1z"/>
		<path class="st0" d="M376.1,231.1c-2.3,0-4.2-1.2-4.2-3.5c0-2,1.4-3.6,4.1-3.6c2.7,0,3.9,1.7,3.9,3.5    C379.9,230,378.1,231.1,376.1,231.1z M380.1,258.5c0,1.1-0.4,1.3-1.3,1.3h-5.9c-1,0-1-0.5-1-1.2v-23.6c0-0.7,0.1-1.1,1.1-1.1h5.9    c1,0,1.2,0.2,1.2,1.2V258.5z"/>
		<path class="st0" d="M395.7,260.5c-6.8,0-11.9-5-11.9-13.6c0-9.2,5.6-13.7,12-13.7c8.1,0,11.7,6.7,11.9,13.2    C408,254.8,403,260.5,395.7,260.5z M395.7,237.8c-2.8,0-3.6,4.6-3.6,8.3c0,3.9,1,9.1,3.8,9.1c2.8,0,3.7-5,3.6-9.1    C399.3,241.5,398.1,237.8,395.7,237.8z M397.3,230.7c-0.5,0.4-1,0.8-1.7,0.8c-1,0-1.5-0.7-1.5-1.5s0.5-1.3,0.9-1.8l3.6-4.2    c0.5-0.5,1-1.1,1.9-1.1c1.2,0,1.9,1,1.9,2.2c0,1.1-0.6,1.6-1,2.1L397.3,230.7z"/>
		<path class="st0" d="M434.2,258.6c0,1-0.2,1.3-1.3,1.3h-5.6c-0.8,0-1.1-0.3-1.1-1.2v-17.1c0-1.6,0-2.4-0.8-3.2    c-0.7-0.6-1.7-0.9-2.6-0.9c-3.2,0-3.3,2.6-3.3,4.1v17.2c0,1-0.5,1.1-1.3,1.1h-5.6c-0.9,0-1.1-0.4-1.2-1.3v-20c0-1.8,0-3.5,4.9-4.7    c2.2-0.6,4.8-0.8,6.8-0.8c5.5,0,7.4,1.2,8,1.6c2.8,1.8,2.9,4.1,2.9,5.6V258.6z"/>
	</g>
	<g>
		<path class="st0" d="M261.1,160.5c0,0,0.2-5.9,1.6-9s3.7-7.2,3.8-8c0.1-0.8-2.3-9.4-1.2-14.4c1.1-5,2.1-7.3,0.9-8    c-1.2-0.7-4,3.6-4,3.6c-0.4,1.8,0.1,7.6-0.1,10.5c-0.1,2.9-0.6,3.2-0.6,3.2s-0.8-11.3-0.4-13.2s1.4-3.2,3.3-5    c1.9-1.8,2.5-1.8,3-0.4c0.5,1.4,0.6,6.6,0,10.3c-0.6,3.7,1.4,12.9,0.9,14.8s-5,10.8-6.1,13.2S261.1,160.5,261.1,160.5z"/>
		<path class="st0" d="M333.9,89.9c0.8,4.5-1.3,8.9-2.4,13.4c-1.5,5.7-1.3,11.9,0.4,17.5c1,3.1,2.4,6.2,2.4,9.5    c0,3.6-1.8,6.9-3.2,10.2c-2.6,6.2-3.9,13-3.8,19.8c0,0.7,0,1.5,0.4,2.2c0.3,0.7,1,1.2,1.8,1.2c0.2-6.5,0.7-13.2,3-19.3    c1.5-3.9,3.9-7.6,4.5-11.8c1-6.8-2.7-13.4-2.7-20.3c0-4.8,1.8-9.3,2.5-14c0.8-4.7,0.3-10.1-3.3-13.3c0.1,0.7,0.1,1.5,0.2,2.2    C333.8,88.1,333.7,89,333.9,89.9z"/>
		<path class="st0" d="M338.1,106.8c4,0.4,8-0.6,11.8-1.7c1.2-0.3,2.7-1,2.8-2.2c-3.5,0.5-7,1.1-10.5,1c-3.5,0-7.1-0.7-10.2-2.4    c-0.6-0.4-2.9-1.8-3.3-0.5c-0.3,0.9,1.6,2.4,2.2,2.9C333,105.6,335.6,106.5,338.1,106.8z"/>
		<path class="st0" d="M354.3,77.6c1.5,2.2,1.7,4.9,2.1,7.5c0.7,4.6,1.9,9.1,3.7,13.3c0.4-0.1,0.5-0.7,0.6-1.1    c0.2-2.4,0.4-5-0.5-7.3c-0.6-1.6-1.6-2.9-2.3-4.4c-0.8-1.9-1-4-1.4-6c-0.4-2-1.2-4.1-2.8-5.3c-1.4-1.1-3.4-1.4-4.6-2.8    c-0.7-0.8-0.9-1.8-1.4-2.7c-0.4-0.9-1.1-1.9-2.1-2c-0.8-0.1-1.8,0.1-2.2,0.8c-0.8,1.3-1.6,1.7-1.6,2.5c0,0.9-1,2.1-0.1,3.1    c0.5,0.6,1.3,0.7,2.1,0.9c0.7,0.2,1.5,0.7,1.6,1.5c-0.9,0.1-1.9,0.1-2.8,0.2c0.4,0.8,0.8,1.7,1.6,2.2c0.8,0.5,2,0.5,2.4-0.3    c0.3-0.4,0.3-1,0.4-1.4s0.7-0.9,1.1-0.6c0.3,0.1,0.2,0.6,0.1,0.8c-0.2,0.3-0.5,0.5-0.5,0.8c-0.1,0.5,0.7,0.8,1.1,0.6    c0.5-0.2,0.7-0.7,0.9-1.2c0.1,1.2-0.4,2.5-1.4,3.3c-0.9,0.8-2.2,1.2-3.4,1c-1.3,4.5-2.1,9.2-2.4,13.9c-0.4,0.3-0.9,0-1.2-0.4    c-0.2-0.4-0.2-0.9-0.2-1.4c0.1-2.7,0.1-5.5,0.8-8.1c0.3-1.2,0.8-2.4,0.9-3.6s0.1-2.6-0.6-3.6c-0.4-0.6-1-1.1-1.5-1.7    c-0.6-0.9-0.8-2.1-0.9-3.2c-0.2-2.1-0.7-3.9,0-5.9c0.4-1.2,1-0.5,2.4-3.1c0.4-0.7,1.5-1.2,2.5-1.1c1.6,0.1,3.2,0.8,4.2,2    c1,1.3,1.5,2.9,1.6,4.5c0.1,0.7,0.1,1.4,0.4,2c0.5,0.9,1.6,1.2,2.4,1.6c2.3,1.1,4.1,3.4,4.6,5.9c0.2,1.3,0.2,2.7,0.5,4    c0.7,2.9,3.3,5,4.5,7.7c0.9,2.2,0.9,4.7-0.1,6.8c-0.4,0.9-1,1.7-2,1.9c-1,0.2-1.9-0.5-2.6-1.2c-2.2-2.2-3.3-5.3-4-8.4    c-0.6-3.1-0.8-6.3-1.6-9.3c-0.4-1.8-1.3-3.8-3-4.5c-0.5-0.2-1-0.3-1.3-0.6c-1.5-1.5,2-0.7,2.4-0.5    C352.2,75.3,353.5,76.3,354.3,77.6z"/>
		<path class="st0" d="M350.9,79.7c-0.9,2.8-0.3,6.1,1.6,8.4c0.5,0.7,1.2,1.4,0.9,2.2c-0.2,0.6-0.8,0.9-1.3,1.2c-1,0.7-1.7,1.8-2,3    c-0.4,1.2-0.4,2.5-0.5,3.7c-0.1,1.2-0.1,2.5-0.2,3.7c-0.1,0.9,0,2,0.9,2.3c0.6,0.2,1.2-0.2,1.5-0.7c0.3-0.5,0.3-1.2,0.2-1.8    c-0.1-0.6-0.3-1.2-0.3-1.8c-0.2-3.4,3.6-5.9,3.6-9.3c0-2.6-2.3-4.7-2.6-7.3c-0.2-1.3,0.2-2.6,0.2-3.9c0-0.6-0.3-2.6-1.2-2.8    c-0.7-0.1-0.3,0.7-0.3,1.1C351.4,78.4,351.1,79.1,350.9,79.7z"/>
		<path class="st0" d="M334.5,149.3c0.4-1.9,0.9-3.9,1.8-5.6c1.1-2,2.6-3.8,3.5-5.8c2.5-5.7-0.1-12.5,2-18.3c0.7-2,2-3.7,3.7-5.1    c0.3,2.7,2,5,3.7,7.1s3.7,4.1,4.7,6.7c1.5,3.9,0.6,8.2,0.2,12.4c-0.6,5.6-0.4,11.2-0.3,16.8c0,0.9,0.2,2.1,1.1,2.5    c0.3,0.1,0.6,0.1,0.9,0.3c0.4,0.3,0.5,0.9,0.3,1.3s-0.7,0.7-1.1,0.9c-1.5,0.4-3-0.6-3.7-1.9c-0.7-1.3-0.8-2.9-0.9-4.4    c-0.3-6.1-0.6-12.2,0.4-18.2c0.4-2.7,1-5.5,0.4-8.1c-0.9-3.4-3.8-5.9-6.6-8.1c0.3,5.4,0.7,10.9-0.7,16.1c-1,3.7-2.9,7.2-4.5,10.7    c-1.6,3.5-3,7.3-2.8,11.2c0.1,1.1,0.4,3.8-1.3,4.1c-1.6,0.3-1.4-2.3-1.5-3.3C333.4,156.8,333.7,153,334.5,149.3z"/>
		<path class="st0" d="M351.2,116.3c2.1,3.4,4.7,6.4,6.7,9.8c0.6,1.1,1.3,2.2,1.4,3.4c0.2,1.6-0.5,3.2-1,4.8    c-2.4,7.4-1.8,15.4-1.2,23.1c0.1,0.8,0.2,1.7,0.9,2c0.8,0.4,1.7-0.2,2.1-1c0.3-0.8,0.2-1.7,0.1-2.6c-0.8-6-0.4-12.1,0.9-18    c0.6-2.6,1.4-5.3,1.3-8c-0.1-2.1-0.8-4.1-1.6-6c-1.6-3.8-3.7-7.3-6.2-10.4c-1.3-1.6-2.7-3.2-3.6-5c-0.5-1,0.5-5.7-2.1-4.2    C345.7,106.1,350,114.4,351.2,116.3z"/>
		<path class="st0" d="M345,61.7c0.1-0.7,0.8-1.3,1.5-1.2c0.5,0.1,0.8,0.5,1.2,0.9c0.6,0.8,1.3,1.6,1.9,2.4c0.9,1.1,1.8,2.2,3,2.8    c1.1,0.5,2.4,0.6,3.6,0.6c1.6,0,3.1,0,4.7,0c0.4,0,0.9-0.2,0.9-0.6c-0.1-0.3-0.5-0.4-0.8-0.3c-0.3,0.1-0.6,0.2-0.9,0.1    c-0.3-0.1-0.4-0.5-0.6-0.7c-0.5-0.5-1.3-0.2-2,0c-1.5,0.5-3.2,0.3-4.7-0.4s-2.6-2-3.2-3.4c-0.4-0.9-0.5-2-1.1-2.8    s-1.9-1.3-2.6-0.7c-0.3,0.2-0.4,0.6-0.6,0.8c-0.7,1-2.2,1.2-3.3,0.8c-1.1-0.5-1.9-1.5-2.2-2.7c-0.2-0.7-0.2-1.6-0.9-1.9    c-0.7-0.4-1.5,0.3-2.2,0.7c-0.8,0.6-1.9,0.9-2.9,1c-0.3,0-0.6,0-0.8-0.1c-0.2-0.1-0.4-0.4-0.4-0.6c0.1-0.3,0.4-0.5,0.8-0.6    c0.9-0.3,1.9-0.7,2.8-1c1.1-0.4,2.4-0.8,3.4-0.2c0.7,0.4,1.1,1.1,1.4,1.8s0.7,1.4,1.3,1.9c0.6,0.5,1.5,0.6,2.1,0.1    c0.3-0.3,0.4-0.6,0.6-0.9c0.7-0.9,2.1-0.9,3.1-0.4c1,0.6,1.6,1.6,2,2.7c0.5,1,0.9,2.1,1.6,3c1,1.2,2.5,1.9,4.1,2s3.1-0.5,4.4-1.4    c0.3-0.2,0.9-0.5,1.1-0.2c0.2,0.3,0,0.6-0.3,0.8c-0.2,0.2-0.5,0.5-0.5,0.8c0,0.3,0.3,0.4,0.5,0.5s0.5,0.1,0.8,0.1    c0.5,0.1,0.9,0.5,1.1,1.1c0.1,0.5-0.1,1.1-0.5,1.4c-0.5,0.5-1.3,0.4-2.1,0.4c-1.8-0.1-3.7-0.2-5.5-0.3c-1.7-0.1-3.4-0.2-5-0.9    c-1.3-0.5-2.4-1.4-3.4-2.4c-0.4-0.3-0.9-0.7-1.1-1.1C344.9,63.1,344.9,62.2,345,61.7z"/>
		<path class="st0" d="M348.4,49.7c-0.3-0.2-0.6-0.3-0.9-0.5c-0.3-0.3-0.5-0.7-0.6-1.1c-0.1-0.4-0.3-0.8-0.7-1    c-0.4-0.2-0.9-0.1-1,0.3c-0.1,0.5,0.5,0.9,0.4,1.3c0,0.4-0.4,0.6-0.8,0.6c-0.4,0-0.7-0.2-1-0.4c-0.3-0.2-0.7-0.3-1-0.2    c-0.3,0.1-0.5,0.2-0.7,0.4c-0.2,0.1-0.5,0.2-0.7,0.1c-0.3-0.2-0.4-0.7-0.2-1c0.2-0.3,0.6-0.4,0.9-0.5c0.5-0.1,1-0.2,1.5-0.1    c0.3,0,0.6,0,0.8-0.2c0.1-0.2,0.1-0.5-0.1-0.6c-0.2-0.2-0.4-0.2-0.6-0.3c-0.9-0.2-1.9-0.2-2.7,0.2c-0.8,0.5-1.4,1.4-1.2,2.3    c-0.6,0.2-1.4,0.2-2.1,0.1c-0.7-0.1-1.4-0.2-2.1,0c-0.7,0.2-1.3,0.8-1.2,1.5c0.4,0.2,0.8,0,1.1-0.2c0.3-0.2,0.7-0.5,1.1-0.5    c0.6-0.1,1.2,0.3,1.7,0.5c0.7,0.3,1.1,0.2,1.8,0.1c0.6,0,1.1,0.6,0.7,1.1c-0.2,0.4-0.8,0.5-1.2,0.3c-0.4-0.1-0.8-0.4-1.2-0.6    c-0.4-0.2-0.8-0.4-1.3-0.3c-0.3,0.1-0.5,0.3-0.4,0.6c0,0.1,0.1,0.2,0.2,0.3c0.5,0.5,1,1,1.7,1.2c0.7,0.2,1.5,0.1,1.9-0.4    c0.1-0.2,0.2-0.4,0.4-0.5c0.3-0.3,0.9-0.1,1.1,0.3c0.2,0.4,0.1,0.9-0.2,1.2c-0.3,0.3-0.7,0.5-1.2,0.6c-0.2,0.1-0.5,0.1-0.7,0.2    c-0.2,0.1-0.4,0.3-0.5,0.6c0,0.3,0.2,0.6,0.5,0.7c0.3,0.1,0.6,0.1,0.9,0.1c0.3,0,0.6,0,0.9-0.1s0.6-0.3,0.7-0.6    c0.1-0.2,0-0.5,0.2-0.7c0.2-0.4,0.7-0.4,1.1-0.2c0.4,0.2,0.7,0.5,1,0.8s0.7,0.5,1.1,0.4c0.4-0.1,0.7-0.5,0.7-0.9    c0.1-0.4,0-0.8,0-1.2s0.1-0.9,0.4-1.2c0.2-0.2,0.4-0.3,0.5-0.6c0-0.2,0-0.4,0-0.5c0.2-0.5,1-0.3,1.2-0.7    C348.8,50.2,348.6,49.8,348.4,49.7z M345.1,54c-0.3,0.3-0.8,0.3-1.1,0.1s-0.6-0.5-0.8-0.9c-0.4-0.6-0.6-1.3-0.8-2    c-0.1-0.3-0.1-0.6-0.1-0.8c0.2-1.3,1.9-0.1,2.4,0.5c0.4,0.6,0.6,1.4,0.7,2.2C345.4,53.4,345.4,53.8,345.1,54z"/>
		<path class="st0" d="M324.5,46.8c0.1,2.5,1.2,5,3.1,6.6c1.9,1.6,4.5,2.4,7,2.1c-0.4,1-0.8,2-1.3,3c-0.5,0.8-1.4-1.9-2.6-2.3    c-1.2-0.4-2.5-0.5-3.4-1.3c-1.6-1.3-1.8-4-3.6-5c-0.7-0.4-1.6-0.5-2.1-1.1c-0.2-0.3-0.3-0.6-0.6-0.7c-0.3,0-0.5,0.3-0.5,0.6    c0,0.3,0.3,0.6,0.5,0.8c1.5,1.6,3.5,2.8,4.6,4.6c0.8,1.3,1.8,2.5,3.2,3.2c1,0.5,2.2,0.7,3.4,0.8c1.6,0.2,3.2,0.2,4.6,1    s2.4,2.5,1.7,4c-0.3,0.7-1,1.2-1.4,1.8s-0.6,1.7,0.1,2.1c0.8,0.5,2.1-0.1,2.6,0.7c0.3,0.5,0,1-0.3,1.5c-1.1,1.9-1.7,4.1-1.8,6.3    c0,0.6-0.2,1.4-0.8,1.4c-0.4,0-0.7-0.5-0.8-0.9c-0.5-2.3,1.8-4.6,1.1-6.8c-0.3-1-1.1-1.7-1.9-2.2c-0.6-0.4-1.3-0.9-1.2-1.5    c0-0.6,0.5-1,1-1.3c0.5-0.3,1-0.5,1.4-0.9c0.7-0.8,0.3-2.1-0.4-2.8c-0.8-0.7-1.9-0.8-2.9-0.9s-2.1,0.1-3.1-0.2    c-1.7-0.4-3.1-1.8-4.2-3.2s-1.9-3.1-3.2-4.3c-0.9-0.9-2-1.7-2.5-2.8c-0.3-0.8-0.1-1.8,0.7-2c0.7-0.1,1.2,0.5,1.6,1    c0.3,0.4,0.9,1.2,1.5,1C323.8,48.2,323.8,47.4,324.5,46.8z"/>
		<path class="st0" d="M346.4,68.7c0,0.2-0.1,0.4-0.1,0.6s0,0.4,0.2,0.5c0.1,0.2,0.4,0.2,0.6,0.1c0.2-0.1,0.4-0.2,0.6-0.3    c0.3-0.2,0.6-0.5,0.7-0.8c0.5-0.9,0-2.2-1.1-2.5C345.8,66,346.6,68,346.4,68.7z"/>
		<path class="st0" d="M348.6,72.1c0,0.1,0,0.2,0,0.2c0.1,0.2,0.3,0.2,0.5,0.1c0.3-0.1,0.6-0.4,0.8-0.7c0.1-0.3,0.2-0.7,0.1-1    c-0.1-0.5-0.5-1.4-1-0.8C348.6,70.4,348.6,71.5,348.6,72.1z"/>
		<path class="st0" d="M347.9,72.8c0-0.2,0.1-0.5,0.3-0.6c0.2,0,0.4,0.2,0.5,0.4c0.2,0.7-0.1,1.4,0,2.2c0.1,0.3,0.2,0.7,0.1,1    c-0.1,0.4-0.5,0.7-0.8,0.9c-0.6,0.4-0.5-0.8-0.5-1.2C347.6,74.6,347.8,73.7,347.9,72.8z"/>
		<path class="st0" d="M348.9,70c-0.2,0.7-0.4,1.5-0.6,2.2c0.8-0.1,1.5,0.4,2.2,0.9c1.7,1.4,3.5,2.7,5.2,4.1    c0.5-0.8,0.2-1.9-0.5-2.5c-0.7-0.7-1.5-1-2.3-1.5c-1.4-0.8-2.6-2.1-3.3-3.5c-0.1-0.1-0.4-0.1-0.6,0S348.9,69.9,348.9,70z"/>
		<path class="st0" d="M349,63.9c0,0,0,0.1,0,0.1c0,0.1,0.1,0.1,0.1,0.1s0.1,0,0.2,0c0.3-0.1,0.7-0.2,0.9-0.5    c0.2-0.2,0.3-0.5,0.3-0.8c0-0.2-0.1-0.7-0.4-0.7c-0.3,0-0.5,0.5-0.6,0.7C349.4,63.2,349.2,63.5,349,63.9z"/>
		<path class="st0" d="M330,78.4c-1.9,1.6-3.4,3.6-4.7,5.7c-0.3,0.5-0.6,1-0.7,1.6c-0.1,0.5,0,1,0,1.5c-0.1,1.2-1.1,2.1-1.9,3    c-2.3,2.6-3.3,6.1-3.5,9.6c-0.1,3.5,0.5,6.9,1.3,10.3c0.5,0.4,1.3,0,1.5-0.6c0.3-0.6,0.2-1.2,0.1-1.8c-0.6-4.9-0.7-10.2,1.7-14.6    c1.3-2.5,3.3-4.5,4.9-6.8c1.1-1.6,1.9-3.3,3.2-4.8c1.2-1.5,2.9-2.8,4.8-2.9c1-0.1,2.2,0.3,2.7,1.2c0.3,0.7,0.1,1.6,0,2.4    c-0.6,2.9-0.4,6,0.4,8.8c0.4,1.5,1.3,3.1,2.8,3.5c-1.5-2.5-2.2-5.5-1.9-8.4c0.1-1.4,0.5-2.7,0.5-4c0.1-1.4-0.2-2.8-1-3.8    c-0.2-0.3-0.5-0.5-0.7-0.9s-0.2-0.8,0.1-1c0.2-0.2,0.4-0.2,0.7-0.3c0.7-0.4,0.8-1.4,0.6-2.3c-0.2-0.8-0.5-1.7-0.2-2.5    c-0.4-0.3-1,0-1.3,0.4c-0.2,0.5-0.2,1-0.1,1.5c0.1,0.5,0.2,1,0.1,1.5c-0.4,2.2-2.7,0.6-4,0.8C333.3,76.1,331.5,77.2,330,78.4z"/>
		<path class="st0" d="M328.6,89.2c0.5,0.5,1.3,0.4,1.9,0.1s1.1-0.8,1.7-1.2c0.6-0.4,1.4-0.6,2-0.2c-0.3,1.6-1.9,2.6-3.1,3.7    c-2.6,2.2-4.2,5.2-5.3,8.4s-1.5,6.5-2,9.8c-0.2,1.1-0.3,2.2-0.1,3.3c0.3,1.4,1.2,2.7,1.5,4.1c0.1,0.3,0.1,0.6,0,0.8    c-0.1,0.2-0.5,0.4-0.7,0.2c-0.5-0.9-1.1-1.9-1.6-2.8c-0.4,0.3-0.5,0.9-0.5,1.5c0,0.5,0.2,1.1,0.1,1.6s-0.5,1.1-1,1    c-0.6-0.1-0.9-0.8-1-1.5c-0.3-2.4,0-4.8,0.9-7.1c-1.2,0.3-2.3,1.2-2.9,2.3c-0.5,1.1-0.5,2.5,0,3.7c0.1,0.3,0.3,0.6,0.3,0.9    s-0.2,0.7-0.5,0.7c-0.2,0-0.4-0.1-0.5-0.2c-1.4-1.2-1.9-3.3-1.2-5c0.9-2.1,3.3-3.1,4.5-5.1c1.1-1.8,0.9-4.1,1.1-6.3    c0.3-3.7,1.7-7.3,4.1-10.2c0.5-0.6,1-1.4,0.7-2.1c-0.3-0.6-1.6-1.2-0.5-1.8C327.9,87.2,328.1,88.6,328.6,89.2z"/>
		<path class="st0" d="M292.8,72.9c-0.7,1.3-0.5,3.1-1.6,4.2c-1.2,1.2-3.3,0.8-4.7,1.9c-1.5,1.2-1.3,3.6-0.8,5.5    c-1.7-0.5-3.7,0.4-4.5,2.1s-0.1,3.7,1.4,4.7c1,0.6,2.4,0.9,2.7,2.1c0.2,0.8-0.2,1.5-0.6,2.2c-2.1,3-5.8,5.1-7,8.6    c-0.7,2.1-0.4,4.3-0.1,6.4c0.7,4.8,1.3,9.5,2,14.3c1.6-3.1,1.2-6.9,0.7-10.4c-0.5-3.5-1-7.2,0.4-10.4c1.2-2.8,3.7-4.8,5.8-7    c2.3-2.4,4.2-5,6.2-7.7c0.2-0.2,0.3-0.5,0.4-0.7c0.2-0.8-0.9-1.5-1.7-1.4c-0.8,0.2-1.5,0.8-2.1,1.5c1.1-2.1,3.5-3.2,5.6-4.3    c2.1-1.1,4.4-2.6,5-4.9c0.2-0.7,0.2-1.4,0.4-2.1c0.2-0.7,0.8-1.3,1.5-1.3c0.3,0,0.6,0.1,0.9,0.1c0.3,0,0.6-0.2,0.6-0.5    c0-0.2-0.2-0.3-0.3-0.4c-1.1-0.8-2.8-0.4-3.8,0.5c-1,1-1.5,2.3-1.9,3.6c-0.5,1.3-1,2.7-2,3.6c-2,1.8-5.6,1.7-6.7,4.1    c-0.4,0.8-0.4,1.8-0.6,2.7c-0.2,0.9-0.9,1.8-1.9,1.8c-1,0-1.6-1.2-1.4-2.2s0.9-1.7,1.7-2.4s1.5-1.3,2-2.1c0.5-1,0.5-2.3,1-3.3    c0.9-1.8,3.4-2.4,4.3-4.2c0.5-1.1,0.4-2.3,0.9-3.4c0.4-0.7,2.8-1.7,1.7-2.3C295.1,70.7,293.3,72.1,292.8,72.9z"/>
		<path class="st0" d="M293.6,78.1c-0.8,1.5-2,2.7-2.9,4s-1.8,3-1.4,4.6c0.6,0,1-0.4,1.3-0.9c0.3-0.5,0.4-1,0.7-1.5    c0.6-1.3,1.8-2.1,2.9-3c1.1-0.9,2.1-2,2.3-3.4c0.1-0.6-0.2-2.3-1.1-2.2C294.5,75.7,293.9,77.5,293.6,78.1z"/>
		<path class="st0" d="M298.5,72.3c1.3,0.4,2.6,0.7,3.9,0.7c-0.6,1.9-1.3,4,0,5.7c0.3,0.4,0.5,0.9,0.5,1.4c0.1,1.7-1.6,1.9-2.8,2.3    c-1.4,0.6-2.5,1.9-2.8,3.4c-0.3,1.5,0.2,3.1,1.3,4.2c0.7,0.7,1.7,1.1,2.5,1.7c1.5,1.1,2.5,2.8,3.3,4.6s1.3,3.6,2,5.3    c2.2,5.1,6.6,9.2,11.8,11.1c0.2-0.7-0.1-1.4-0.5-1.9s-1-0.9-1.5-1.3c-4.5-3.3-7.7-8.3-8.8-13.8c-0.3-1.4-0.4-2.7-0.9-4    c-0.5-1.3-1.4-2.5-2.7-3c-1.2-0.4-2.5-0.2-3.6-0.9c-0.3-0.2-0.6-0.5-0.8-0.8c-0.6-1.1,0.3-2.1,1.2-2.5c0.7-0.3,1.6-0.5,2.3-0.8    c1.6-0.6,1.3-0.7,1.5-2.5s0.2-4.8-1.2-5.8c0.7-0.8,0.8-2.1,0.3-3c-1-2-3.3-2-5-1.1C298,71.5,298,72.2,298.5,72.3z"/>
		<path class="st0" d="M290.9,95.7c-4.4,1.9-7.9,5.9-9.3,10.5c-2.1,7.2,0.8,15.1-0.4,22.5c-0.1,0.5-0.1,1.2,0.4,1.3    c0.4,0.1,0.6-0.3,0.8-0.6c2.1-3.6,1.7-8.2,1.3-12.4c-0.5-4.2-0.9-8.7,1.1-12.4c2.2-4.1,6.8-6.2,11.3-7.2c2.2-0.5,4.9-0.7,6.2,1.2    c0.9,1.3,0.6,3,0.3,4.5c-0.8,4.4-1.8,8.7-1.9,13.2c-0.1,4.4,0.8,9,3.4,12.7c2,2.9,5.1,5.2,6.1,8.6c0.8,2.8,0.1,5.9,0,8.8    c-0.1,3.1,0.4,6.2,1.6,9c0.7-3.9,1.5-7.8,1.5-11.7c0-3.9-0.6-8-2.6-11.4c-1.5-2.6-3.7-4.8-4.9-7.6c-1.3-3.1-1.3-6.6-1.2-10    c0-4.7,0.2-9.4,0.3-14.1c0-1.6,0.7-4-0.8-4.9c-1.7-1-4.2-1.2-6.1-1.3C295.5,94.3,293.1,94.8,290.9,95.7z"/>
		<path class="st0" d="M304.5,99.1c-0.3,3-0.5,6.3,1.1,8.8c1,1.5,2.5,2.6,4,3.7c2.5,1.8,5.4,3.6,8.5,3.2c-0.1-0.9-0.9-1.6-1.7-1.9    c-0.8-0.3-1.8-0.4-2.6-0.6c-1.5-0.5-2.7-1.6-3.8-2.7c-3-3.4-5-7.6-5.6-12.1C304.1,98.1,304.6,98.3,304.5,99.1z"/>
		<path class="st0" d="M290.2,108.3c-1,3.4-2.4,6.6-2.7,10.1c-0.6,7.5,4.2,14.9,2.7,22.3c-0.6,2.9-2.1,5.5-3.3,8.2    c-2.8,6.2-4,13.1-3.5,19.8c0.1,0.7,0.5,1.7,1.2,1.5c0.4-0.1,0.6-0.5,0.7-0.9c1.3-3.3,3.4-6.4,4.7-9.6c0.8-2,2.8-5,0.5-6.5    c-2.9,3.1-5,6.9-5.8,11.1c1.4-7.9,8.3-16.1,9.4-25.6c1-8.9-4.6-19.5-2.5-28.2c0.6-2.5,1.8-4.8,2-7.3c0.2-2.2-0.8-5.7-3.4-6.1    c-0.6,0.8,0.1,1.6,0.4,2.4c0.3,0.9,0.5,1.9,0.5,2.9C291.1,104.4,290.8,106.5,290.2,108.3z"/>
		<path class="st0" d="M291.8,151.5c2.1,0.3,4.3-0.1,6.1,1c0.9,0.5,1.6,1.4,2.4,2c2.1,1.5,5.1,1.4,7.5,0.4c1-0.4,2-1,3.1-1.1    s4-0.6,4.2,0.5c0.2,0.9,0.3,2.5-0.5,3c-0.7,0.5-3.3,1.6-4.2,1.7c-2.8,0.4-5.9,1.9-8.6,0.8c-1.4-0.6-3.4-2.6-4.9-3.1    c-1.8-0.6-3.6-0.3-5.5-0.6c-1.6-0.2-7.7-5.5-7.7-6.6C283.9,147.8,290.8,151.4,291.8,151.5z"/>
		<path class="st0" d="M305.8,152.4c0,1.3,0.4,2.6,0.7,3.9c0.6,2.3,1.3,4.7,2.3,6.9c1,2.2,2.4,4.3,4.3,5.7c0.3,0.3,0.8,0.5,1.2,0.3    c0.4-0.3,0.2-0.9,0-1.3c-1.1-2-2.1-4.1-3.2-6.1c-0.8-1.5-1.6-3.1-2-4.8c-0.2-0.7-0.7-0.9-1-1.5c-0.4-0.9-0.4-3.3-1.5-6.4    C306.2,147.9,305.8,151.5,305.8,152.4z"/>
		<path class="st0" d="M311.5,159.3c0.5,3.2,1.6,6.3,3.7,8.8c-0.2-2.1-0.4-4.2-0.5-6.4c-0.1-1.7-0.3-3.3-0.8-4.9    c-0.5-1.7-1.5-3.4-1.5-5.2c0-0.5,0.1-2.7-0.9-1.9c-0.6,0.5-0.4,2.3-0.4,3C311.1,155,311.1,157.2,311.5,159.3z"/>
		<path class="st0" d="M261,107.4c0.7-0.7,1.7-1.1,2.7-1c0.4,0,0.9,0.2,1.3,0.2c0.4,0,0.9-0.1,1.2-0.4c0.2-0.3,0.3-0.7,0.4-1    c0.4-1.2,1.9-1.9,3.1-1.5c0.2,0.1,0.4,0.2,0.5,0.3c0.2,0.4-0.1,0.8-0.5,0.9c-0.4,0.1-0.8,0.1-1.2,0.2c-0.4,0.1-0.8,0.4-0.7,0.8    c0.1,0.5,0.7,0.5,1.2,0.4c0.4-0.2,0.9-0.4,1.4-0.3c0.4,0.1,0.6,0.4,0.9,0.5c0.3,0.2,0.8,0.1,0.9-0.2c0.1-0.3-0.2-0.6-0.5-0.7    c-0.3-0.1-0.6-0.2-0.8-0.4c-0.3-0.4-0.1-1,0.4-1.2c0.5-0.2,1,0,1.4,0.3c1,0.7,1.4,1.8,1.8,2.9c0.3,0.9,0.6,1.8,0.4,2.7    c-0.2,0.7-0.7,1.2-1.2,1.7c-0.7,0.7-1.4,1.4-2,2.1c-0.2,0.2-0.4,0.4-0.7,0.5c-0.7,0.2-1.2-0.6-1.1-1.3s0.6-1.2,1.1-1.7    s0.9-1.1,0.9-1.8c0-0.7-0.6-1.3-1.2-1.7c-0.6-0.4-1.4-0.7-1.9-0.2c-0.6,0.5-0.5,1.4-0.9,2c-0.4,0.5-1.2,0.6-1.8,0.9    c-0.7,0.3-1.2,0.9-1.7,1.5c-0.7,0.8-1.3,1.5-2,2.3c-0.2,0.2-0.3,0.4-0.5,0.5c-0.2,0.1-0.5,0.1-0.7-0.1c-0.2-0.3,0-0.7,0.2-0.9    c0.7-0.8,1.4-1.7,2.1-2.5c0.3-0.4,0.7-1.1,0.2-1.4c-0.2-0.2-0.6-0.2-0.6-0.5c0-0.2,0.3-0.3,0.5-0.3c0.5,0,0.9,0.2,1.4,0.4    c0.7,0.2,1.9,0.2,1.9-0.8c0-0.6-0.3-0.7-0.9-0.8c-0.7,0-1.4,0.1-2,0.1C263.6,107.8,261.3,107.2,261,107.4z"/>
		<path class="st0" d="M270,109.1c0.1,0.4,0.3,0.8,0.4,1.2c0,0.2,0.1,0.4,0,0.6c-0.1,0.4-0.5,0.6-0.8,0.8c-0.7,0.3-1.5,0.6-2.1,1.1    c-0.4,0.3-0.7,0.6-1.1,0.8c-0.4,0.2-0.9,0.4-1.3,0.2c-0.1-0.6,0.4-1.1,0.9-1.4c0.5-0.3,1.1-0.4,1.6-0.7c0.8-0.4,0.9-0.9,0.9-1.7    c0.1-0.9,0.3-0.4,1-0.2C269.3,109.5,269.9,108.8,270,109.1z"/>
		<path class="st0" d="M264.6,115.3c-1.3,1.7-2.6,3.3-3.9,5c-0.9,1.1-1.8,2.3-2.1,3.6c-0.5,2,0.3,4.2,0.6,6.3    c0.3,1.7,0.2,3.5-0.1,5.1c-0.1,0.6-0.3,1.3-0.2,1.9c0.1,0.6,0.7,1.2,1.3,1.1c0-2.8,0.1-5.5,0.1-8.3c0-0.7,0-1.4,0.2-2.1    c0.2-0.8,0.7-1.5,0.6-2.3c-0.4,0.1-0.8,0.2-1.2,0.2c-0.2-0.5-0.1-1.2,0.1-1.7c0.2-0.5,0.6-1,1-1.5c1.8-2.2,3.7-4.4,5.5-6.6    c0.5-0.6,1.8-1.9,0.5-2.4C266.1,113.2,265.1,114.6,264.6,115.3z"/>
		<path class="st0" d="M274.1,117.7c-1.6,0.7-3.3,1.4-4.9,0.8c-0.4-0.1-0.8-0.4-1.2-0.5c-0.4-0.1-0.9-0.2-1.3,0s-0.6,0.7-0.4,1.1    c0.2,0.4,0.8,0.5,1.3,0.5c1.8,0,3.5,0,5.3,0c0.7,3.5-0.4,7-0.5,10.5c-0.1,1.6,0.1,3.3,0.7,4.9c0.3,0.9,0.7,1.7,1.2,2.5    c0.3,0.7,0.7,1.3,1.3,1.8s1.5,0.6,2.1,0.2c-3.2-3.8-4.4-9.1-3.3-13.9c0.1-0.2,0.1-0.4,0.3-0.6c0.2-0.1,0.5-0.1,0.7,0.1    c0.2,0.2,0.3,0.4,0.5,0.6c1.2,2,3.3,3.4,5.6,3.7c0.2,0,0.4,0,0.6-0.1c0.1-0.2,0.1-0.4-0.1-0.6c-0.1-0.1-0.3-0.2-0.5-0.3    c-2.8-1.1-5.2-3.3-6.5-6.1c-0.4-0.8-0.6-1.7-0.5-2.6c0.1-0.7,0.5-1.2,0.7-1.9c0.5-1.7-0.6-3.6-2.3-4c-0.4-0.1-1-0.1-1.4-0.5    c-0.2-0.2-0.3-0.8-0.4-0.9c-0.3-0.2-0.9,0.4-0.9,0.7c-0.2,0.8,1,1.6,1.5,2.1C271.9,115.6,273.9,117.8,274.1,117.7z"/>
		<path class="st0" d="M277.7,126.7c0.1,0.3,0.3,0.7,0.7,0.8c0.2,0,0.5-0.1,0.7-0.2c0.8-0.3,1.6,0,2.4,0.3c0.3-0.2,0.2-0.7,0-1    c-0.2-0.3-0.6-0.4-1-0.5s-0.7-0.3-0.9-0.6c-0.2-0.5,0-1.2-0.4-1.5c-0.3-0.3-0.7-0.2-1.1-0.3c-0.8-0.2-1.2-1.1-1.5-1.9    c-0.4-1-0.7-2-1.1-3c-0.2-0.6-0.3-1.5-0.8-1.9c-0.6,0.7-0.1,2.5,0.2,3.2c0.4,1.1,0.9,2.2,1.3,3.3    C276.7,124.3,277.7,125.8,277.7,126.7z"/>
		<path class="st0" d="M264.1,142.4c-0.3-0.1-0.7-0.3-0.8-0.6c-0.2-0.3-0.2-0.8,0.2-0.9c0.4-0.2,0.8,0.1,1.1,0.3    c0.8,0.4,1.8,0.3,2.7,0c0.9-0.3,1.8-0.7,2.7-0.6c1.3,0.1,2.6,1,3.9,0.9c1.8-0.2,2.8-2.2,4.5-2.8c0.7-0.3,1.7-0.1,1.9,0.6    c0.2,0.6-0.2,1.2-0.6,1.6c-1.6,1.4-4,1.6-6.1,1.8C270.4,142.7,267,143.5,264.1,142.4z"/>
		<path class="st0" d="M266.6,154.2c-1,1.3-2.3,2.5-2.6,4.2c-0.3,1.2,0.1,2.6-0.4,3.7c-0.2,0.5-0.6,0.9-1.1,0.9    c-0.5,0-0.9-0.7-1-1.2c-0.6-2.6,0.8-5.1,2.2-7.3c1.5-2.3,3.2-4.6,3.4-7.5c0-0.5-0.1-1.1,0.4-1.3c0.4-0.1,0.8,0.1,1,0.4    c0.5,0.9,0.1,3-0.2,4C268.1,151.5,267.5,152.9,266.6,154.2z"/>
		<path class="st0" d="M277.9,159.5c0.5,1,1.3,2.1,2.4,2c-0.1-1.2-0.7-2.4-1.3-3.5c-2.1-4.2-3.3-8.9-3.3-13.7c0-0.7-0.5-3.5-1.8-2.3    c-0.8,0.7-0.2,3.1-0.1,4.1c0.4,3,1.1,6,2.1,8.9C276.5,156.5,277.1,158.1,277.9,159.5z"/>
		<path class="st0" d="M277.7,147.2c-0.1,3.7,0.2,7.3,1.1,10.9c0.3,1.2,0.9,2.5,2.1,2.6c-1.5-4.9-1.9-10.2-1.3-15.3    c0.1-0.7-0.2-6.4-1.8-5.2C276.7,141.3,277.8,146,277.7,147.2z"/>
	</g>
	<path class="st0" d="M417.8,119.9c-2.3,2-4.6,3.9-6.8,5.9l-0.3,0.4c-0.4,0.1-0.7,0.2-1.1,0.3c-0.2,0-0.5,0.1-0.7,0.1   c-0.5,0.4-1,0.7-1.5,1.1c-1.5,1-2.9,1.9-4.4,2.9c-0.5,0.3-1,0.6-1.5,0.9c0.5-0.3,1-0.6,1.5-0.9c1.4-1,2.9-2,4.3-3   c0.5-0.4,1-0.7,1.5-1.1c0.6-0.5,1.3-1,1.9-1.4c0,0,0,0,0,0c0.9-0.8,1.8-1.6,2.6-2.5c2.9-3.4,5.7-6.8,8.5-10.1   c-0.1-0.1-0.1-0.1-0.2-0.2c-3.8,5.2-8.2,9.9-13.4,13.8c-13.2,9.8-28.2,15.2-44,18.7c-2,1.2-4.3,1.9-6.6,2.4c0,0.1,0,0.3,0,0.4   c-0.1,1.4-0.1,2.7-0.1,4.1c1.2-0.2,2.3-0.4,3.5-0.6c0.2-0.2,0.5-0.3,1-0.4c5.9-1.6,11.9-3,17.6-5c15.3-5.5,29.5-12.9,40.2-25.8   c0.4-0.4,0.6-1,0.8-1.5c-0.2-0.1-0.3-0.3-0.5-0.4C419.3,118.6,418.5,119.2,417.8,119.9z M399.9,132.6l-0.2-0.4   c0.5-0.2,1-0.4,1.4-0.6C400.7,131.9,400.3,132.3,399.9,132.6z"/>
	<path class="st0" d="M281.5,154.7c0.5,0,1,0.1,1.7,0.2c0.1,0,0.2,0,0.3,0.1c1.4,0.2,2.8,0.3,4.2,0.4c0.2-0.1,0.5,0,0.8,0.1   c0.1,0,0.2,0,0.3,0c4.6,0.3,9.1,0.6,13.6,0.7c-0.5-0.3-0.9-0.6-1.3-1c-2-1.8-4.2-2.7-7-2.4c-1.8,0.2-3.8,0.3-5.4-1   c0.3-0.5,0.5-1,0.7-1.5c-3.9-0.5-7.7-1.3-11.4-2.5c0.2,2.2,0.4,4.3,0.6,6.5C279.6,154.4,280.6,154.5,281.5,154.7z"/>
	<path class="st0" d="M263.5,149.9c0.6,0.4,1.5,0.7,2.3,0.9c0.4-0.8,0.7-1.6,1.1-2.4c0.2,0.1,0.5,0.2,0.7,0.3   c-0.4,0.7-0.7,1.5-1.1,2.2c1,0.2,2,0.4,2.8,0.6c1.7,0.5,3.4,1.1,5.1,1.6c0.2,0,0.4,0.1,0.6,0.2c0.2,0.1,0.5,0.1,0.7,0.2   c0.6,0.2,1.2,0.3,1.7,0.4c-0.4-1.8-0.9-3.5-1.3-5.3c-0.1-0.5-0.2-1.1-0.3-1.6c-0.1,0-0.2-0.1-0.3-0.1c-0.1,0-0.1,0-0.2-0.1   c-1.8-0.7-3.7-1.3-5.6-2.1c-0.1,0-0.2-0.1-0.4-0.1c-0.4-0.1-0.8-0.3-1.1-0.5c-0.6-0.3-1.2-0.6-1.8-1c-0.2,0-0.4-0.1-0.6-0.1   c-0.8-0.1-1.4-0.4-1.9-0.8c-0.3,0-0.5-0.1-0.8-0.2c-0.2,0-0.4-0.1-0.5-0.2c-5.3-2.3-10.5-4.6-15.8-7c-8-3.6-16-7.3-24.1-10.7   c-7.9-3.2-16.2-4.3-24.6-5.1c-10.1-1-20.2-1.4-30.3,0.2c-2.6,0.4-5.8,0.2-7.4,3.5c3.3,1,6.5-1,9.6-0.4c0,0.2,0,0.3,0,0.5   c-0.5,0.3-0.9,0.6-1.5,1c0.3,0.1,0.4,0.1,0.6,0.2c8.2,0.6,16.5-0.3,24.6,2.1c2.2,0.7,4.6,0.6,6.8,0.8c7.2,0.7,14.4,1.6,21.1,4.5   c13.4,5.8,26.8,11.8,40.1,17.7C262.3,149.2,262.9,149.5,263.5,149.9z"/>
	<path class="st0" d="M306.2,155.2c0,0.3,0.1,0.6,0.1,1c2.6,0,5.2-0.1,7.8-0.2c5.6-0.3,11.2-0.6,16.7-1c0.2-1.8,0.6-3.6,1-5.3   c-1.3,0.1-2.7,0.2-4,0.3c-5.5,0.4-11.2,0.8-16.9,1.1c0.1,0.9,0.3,1.8,0.6,2.6c0.6,1.9-0.9,1.7-1.9,2c-1.5,0.5-1.4-0.6-1.5-1.5   c-0.1-1-0.2-2-0.3-3.1c-0.6,0-1.2,0-1.8,0c-0.3,0.7-0.4,1.4-0.3,2.2C305.9,153.9,306.2,154.5,306.2,155.2z"/>
	<path class="st0" d="M361.9,149.6C361.9,149.6,362,149.7,361.9,149.6c0.2,0.1,0.3,0.1,0.4,0.1c0,0-0.1-0.1-0.1-0.1   C362.1,149.6,362,149.6,361.9,149.6z"/>
	<path class="st0" d="M382.9,172.1c-3.8,1.7-7.5,3.4-11.3,5.2c-0.1-0.2-0.1-0.3-0.2-0.5C375.2,175.2,379,173.6,382.9,172.1   c1.7-1,3.6-1.9,5.4-2.9c5.2-2.8,10.3-5.6,15.4-8.4c-0.1-0.1-0.1-0.1-0.2-0.2c-4,2.1-7.9,4.2-11.9,6.2c-17.9,9-36.3,16.5-56.3,19.5   c-8.4,1.3-16.8,2-25.3,1.8c-10.9-0.3-21.5-2.1-31.9-5.2c-12.2-3.6-24.1-8.1-34.7-15c-10.8-7-21.2-14.8-31.5-22.6   c-6.2-4.7-12.1-9.8-19.2-13.1c-12.9-5.9-26.7-8.3-40.7-9.1c-3.5-0.2-7.1-0.1-10.7-0.1c-1,0.1-2.1,0.2-3.1,0.3   c-3.2,0.3-7,0.5-10.3-0.3c-2.8,0.3-5.6,0.6-8.3,0.7c-2,0.1-3.8,0.8-5.4,1.9c-0.2,0.1-0.3,0.4-0.8,1c3.3,0,6.3,0,9.2,0   c0.7,0,1.3,0.2,2,0.3c0,0.2,0,0.3-0.1,0.5c-0.7,0.2-1.4,0.5-2.4,0.8c0.5,0.2,0.7,0.3,0.8,0.3c9.2,0.8,18.5-0.2,27.7,1.7   c6.1,1.3,12.5,1.4,18.7,2.4c12,1.8,23.1,6.1,32.7,13.7c6.3,5,12.6,10.1,19.1,14.8c22.1,16,46.1,27.6,73.5,31.3   c10.2,1.3,20.3,1.5,30.5,0.5c12.7-1.2,25.1-4.2,37-8.7c12.7-4.9,24.9-10.6,36.6-17.4c0.5-0.3,0.9-0.9,1.4-1.3   c-0.1-0.2-0.2-0.3-0.4-0.5C394.2,167.7,389,171,382.9,172.1z M306.5,192.5c0-0.1-0.1-0.1-0.1-0.2h18.1c0,0.1,0,0.1,0,0.2H306.5z    M326.7,191.9c0,0,0-0.1,0-0.1h1.5c0,0,0,0.1,0,0.1H326.7z M331.3,191.6c-0.2,0-0.4,0-0.6,0c0,0,0-0.1,0-0.1h0.6   C331.3,191.5,331.3,191.6,331.3,191.6z"/>
	<path class="st0" d="M354.1,146.8c-1.3,0.2-2.6,0.4-3.9,0.4c-0.2,0.2-0.5,0.3-0.9,0.3c-3.1,0.4-6.2,0.8-9.9,1.3   c0-0.1,0.1-0.2,0.1-0.3c0,0,0,0-0.1,0c-1.3,0.2-2.6,0.4-3.9,0.6c-0.4,1.4-0.7,2.8-0.8,4.3c0,0.5,0,1-0.1,1.4c0.2,0,0.3,0,0.5,0   c0.5,0,0.9,0,1.4,0c0.4,0,0.8-0.1,1.2-0.1c0.3-0.2,0.7-0.3,1.2-0.4c3.7-0.5,7.4-1,11.2-1.5c0.3,0,0.5,0,0.7,0   c1.2-0.2,2.5-0.5,3.7-0.7c0-1.4-0.2-2.8-0.4-4.2C354.2,147.5,354.2,147.1,354.1,146.8z M341.7,153c0,0,0-0.1,0-0.1   c0.3,0,0.5-0.1,0.8-0.1c0,0.1,0,0.1,0,0.2H341.7z M344.3,152.7l0-0.3h1.7C345.4,152.5,344.9,152.6,344.3,152.7z M348.7,152   c0.5-0.1,0.9-0.3,1.4-0.4c0,0.1,0,0.3,0,0.4H348.7z"/>
	<path class="st0" d="M338.7,153.2C338.7,153.2,338.7,153.3,338.7,153.2c0.2,0.1,0.4,0.1,0.6,0.1c0,0,0,0,0-0.1   C339.1,153.2,338.9,153.2,338.7,153.2z"/>
	<path class="st0" d="M408.8,157.9c-0.8,0.5-1.7,1-2.5,1.5c-0.1-0.1-0.1-0.1-0.2-0.2c0.9-0.5,1.7-0.9,2.6-1.4L408.8,157.9z"/>
	<path class="st0" d="M406.3,159.4c-0.9,0.5-1.7,1-2.6,1.5c-0.1-0.1-0.1-0.1-0.2-0.2c0.9-0.5,1.7-1,2.6-1.4   C406.2,159.2,406.3,159.3,406.3,159.4z"/>
	<path class="st0" d="M408.7,157.7c0.5-0.3,1-0.7,1.5-1c0.1,0.1,0.1,0.2,0.2,0.4c-0.5,0.3-1.1,0.5-1.6,0.8   C408.8,157.9,408.7,157.7,408.7,157.7z"/>
	<path class="st0" d="M422.2,111.1c0.3-0.5,0.6-1.1,0.8-1.6c0.1,0.1,0.2,0.2,0.4,0.2c-0.4,0.5-0.7,1-1.1,1.5   C422.3,111.2,422.2,111.1,422.2,111.1z"/>
	<path class="st0" d="M411,125.8c-0.1,0.1-0.2,0.2-0.3,0.4c-0.3,0-0.5,0-0.8,0c0.3-0.4,0.5-0.8,0.8-1.1c0,0,0,0,0,0   C410.7,125.3,410.8,125.5,411,125.8z"/>
	<path class="st0" d="M413.6,123.2c-0.2,0.2-0.4,0.4-0.6,0.6c-0.1-0.1-0.1-0.1-0.2-0.2c0.2-0.2,0.4-0.4,0.6-0.6   C413.5,123.1,413.5,123.2,413.6,123.2z"/>
	<path class="st0" d="M412.3,155.9c-0.2,0.1-0.4,0.3-0.6,0.4c0-0.1-0.1-0.1-0.1-0.2c0.2-0.1,0.4-0.3,0.6-0.4   C412.2,155.8,412.2,155.8,412.3,155.9z"/>
	<path class="st0" d="M417.7,119c-0.1,0.1-0.2,0.1-0.3,0.2c0,0-0.1-0.1-0.1-0.1c0.1-0.1,0.2-0.1,0.2-0.2   C417.6,118.9,417.7,119,417.7,119z"/>
	<path class="st0" d="M421.4,112.2c0.2-0.4,0.5-0.7,0.7-1.1c0.1,0,0.1,0.1,0.2,0.1c-0.2,0.4-0.5,0.7-0.7,1.1   C421.6,112.3,421.5,112.3,421.4,112.2z"/>
</g>
<g>
	<path class="st0" d="M47.9,59.4v58.1c0,1.1-0.1,2.1-0.4,3c-0.3,0.9-1.1,1.3-2.5,1.2H25c-1.4,0-2.4-0.2-3-0.7   c-0.6-0.5-0.9-1.5-0.9-3.1V59.4h-6.8c-1.1,0-1.9-0.2-2.3-0.5c-0.4-0.3-0.6-1-0.7-1.9c0-2,0-3.5,0.1-4.7c0-1.1,0.2-2,0.4-2.5   c0.2-0.6,0.5-0.9,0.9-1c0.4-0.1,1-0.1,1.8-0.1H21c0.1-1.5,0.2-3.2,0.4-5.1c0.1-1.9,0.4-3.9,0.8-6.1c0.4-2.1,1-4.3,1.8-6.5   c0.8-2.2,1.8-4.4,3.2-6.6c2.3-3.5,5.3-6.4,9.2-8.8c3.9-2.4,8.2-3.6,13-3.6c2.4,0,4.5,0.3,6.2,1c1.7,0.7,3.1,1.5,4.1,2.5   c1,1,1.8,2.2,2.2,3.5c0.4,1.3,0.6,2.6,0.6,3.9c0,1.7-0.3,3.1-0.9,4.3c-0.6,1.2-1.4,2.1-2.3,2.9c-0.9,0.8-1.9,1.3-2.9,1.6   c-1,0.3-2,0.5-2.8,0.5c-1.1,0-2.4-0.3-3.7-0.8c-1.4-0.6-2.7-0.8-3.9-0.8c-1.7,0-3,0.6-3.9,1.7c-0.9,1.1-1.3,2.4-1.3,3.9   c0,1,0.4,2.4,1.1,4.2c0.8,1.8,2.7,4.6,5.9,8.3h8.5c0.8,0,1.6,0.1,2.1,0.4c0.6,0.2,0.8,0.9,0.8,1.9v6.8c-0.2,0.8-0.5,1.2-1,1.4   c-0.5,0.2-1.1,0.3-1.8,0.3H47.9z"/>
	<path class="st0" d="M87.7,71.1v47.7c0,1.8-0.2,2.9-2.4,2.9H72.8c-2.1,0-2.8-0.6-2.8-2.6v-48h-5.6c-1.6,0-2.4-0.1-2.4-2   c0-4.7,0-5.3,2.4-5.4H70c0.2-4.4,0.6-12.4,4.5-18.8c2.8-4.8,8.4-10.1,16.5-10.1c5.6,0,8.5,3,8.5,7.2s-3,6.3-5.8,6.3   c-1.7,0-3.6-0.9-5.3-0.9c-2.7,0-4.8,2.1-4.8,5.7c0,2.1,1,6.8,4,10.6h7.8c1.5,0,2,0.2,2,1.9V70c-0.2,1.1-0.8,1.1-2.2,1.1H87.7z"/>
	<path class="st0" d="M120.2,93.8c0.3,1.7,0.7,3.9,1.8,6c2.5,4.8,7.1,7.7,12.5,7.7c5.3,0,9.2-2.7,11.4-4.9c2.2-2.5,2.9-3.1,4.5-3.1   c1.8,0,3.5,1.5,3.5,4.3c0,3.5-4.1,19.5-22.2,19.5c-19.8,0-26.5-15.7-26.5-31c0-22.2,14-30.2,26.2-30.2c17.9,0,22.3,16.6,22.3,22.1   c0,4.8-2.8,5.3-4.6,5.6L120.2,93.8z M136.4,82.6c-0.8-10-6.6-10.1-8-10.1c-6.6,0-9.3,6.3-9.4,12.7L136.4,82.6z"/>
</g>
<g>
	<g>
		<path class="st0" d="M30.5,197.6v14.2c0,1-0.4,1.2-1.3,1.2h-6.1c-1.2,0-1.3-0.4-1.3-1.4v-32.9c0-0.9,0.3-1.2,1.2-1.2h17.3    c0.9,0,1.3,0.1,1.3,1.2v3.4c0,0.9-0.1,1.3-1.3,1.3h-9.8v8.5h8c0.9,0,1.3,0.1,1.2,1.1v3.4c0,0.8-0.1,1.2-1.2,1.2H30.5z"/>
		<path class="st0" d="M65,206.9c0,2.1-0.1,3.4-1.8,4.7c-1.5,1.1-4.8,2.2-9.2,2.2c-8.9,0-10.8-3.8-10.8-8.3v-17.4c0-0.9,0.6-1,1.1-1    H50c0.7,0,1.3,0.1,1.3,1.1v16.9c0,1.3,0,3.4,3,3.4c2.7,0,2.8-1.8,2.8-3v-17.2c0-0.8,0.2-1.1,1-1.1h5.9c0.7,0,1.2,0.1,1.2,1V206.9z    "/>
		<path class="st0" d="M92.8,211.8c0,1-0.3,1.3-1.3,1.3h-5.6c-0.8,0-1.1-0.3-1.1-1.2v-17.1c0-1.6,0-2.4-0.8-3.2    c-0.7-0.6-1.7-0.9-2.6-0.9c-3.2,0-3.3,2.6-3.3,4.1V212c0,1-0.5,1.1-1.3,1.1h-5.6c-0.9,0-1.1-0.4-1.2-1.3v-20c0-1.8,0-3.5,4.9-4.7    c2.2-0.6,4.8-0.8,6.8-0.8c5.5,0,7.4,1.2,8,1.6c2.8,1.8,2.9,4.1,2.9,5.6V211.8z"/>
		<path class="st0" d="M119.8,207.9c-0.1,1.5-0.1,2.8-1.7,3.8c-1.4,1-5,2.1-8.9,2.1c-8.6,0-12.3-5.4-12.3-13c0-7.6,4-14.4,11-14.4    c2.1,0,3.2,0.6,4,1V176c0-1.1,0.6-1.3,1.3-1.3h5.3c0.9,0,1.4,0,1.4,1.1V207.9z M111.8,191.2c-0.5-0.3-1.2-0.7-2.1-0.7    c-3.4,0-4.9,4.4-4.9,9.1s1.5,9.1,4.8,9.1c2.1,0,2.2-1.9,2.2-3V191.2z"/>
		<path class="st0" d="M144.4,207.7c0,1.1-0.1,2.4-0.8,3.3c-0.9,1.2-3.7,2.8-9.1,2.8c-2.1,0-10.7,0-10.7-7.3c0-6.6,6.7-8.1,13.2-9.5    v-2.6c0-1.6-0.1-3.7-2.4-3.7c-1.9,0-2.5,1.5-2.8,2.3c-0.6,1.4-1.1,2.9-3.4,2.9c-2.2,0-3.4-1.6-3.4-3.2c0-2.8,3.3-6.2,10.9-6.2    c1.8,0,4.1,0.2,5.8,1.2c2.7,1.7,2.8,4.5,2.8,6.2V207.7z M136.9,200.4c-2.8,0.9-5.5,1.7-5.5,5.4c0,2.8,1.7,3.8,3.2,3.8    c2.3,0,2.4-2,2.4-3.1V200.4z"/>
		<path class="st0" d="M158.9,191.4c-2.5,0-3.8,3.4-3.8,6.5c0,3.8,1.9,8.7,5.7,8.7c2.4,0,3.4-1.6,4.2-2.7c0.6-0.8,1-1.4,1.8-1.4    c0.7,0,1.7,0.5,1.7,2.3c0,3.6-2.7,9.1-9.5,9.1c-7.6,0-10.4-7.3-10.4-13.5c0-5,2.1-13.8,11.5-13.8c5.9,0,8.4,3.9,8.4,6.7    c0,2.1-1.5,3.6-3.3,3.6c-0.9,0-2.3-0.4-3-2.1C161.5,193.1,160.8,191.4,158.9,191.4z"/>
		<path class="st0" d="M176.4,184.3c-2.3,0-4.2-1.2-4.2-3.5c0-2,1.4-3.6,4.1-3.6c2.7,0,3.9,1.7,3.9,3.5    C180.3,183.2,178.4,184.3,176.4,184.3z M180.4,211.8c0,1.1-0.4,1.3-1.3,1.3h-5.9c-1,0-1-0.5-1-1.2v-23.6c0-0.7,0.1-1.1,1.1-1.1    h5.9c1,0,1.2,0.2,1.2,1.2V211.8z"/>
		<path class="st0" d="M196.3,213.8c-6.8,0-11.9-5-11.9-13.6c0-9.2,5.6-13.7,12-13.7c8.1,0,11.7,6.7,11.9,13.2    C208.6,208.1,203.6,213.8,196.3,213.8z M196.3,191.1c-2.8,0-3.6,4.6-3.6,8.3c0,3.9,1,9.1,3.8,9.1c2.8,0,3.7-5,3.6-9.1    C199.9,194.7,198.7,191.1,196.3,191.1z M197.9,184c-0.5,0.4-1,0.8-1.7,0.8c-1,0-1.5-0.7-1.5-1.5s0.5-1.3,0.9-1.8l3.6-4.2    c0.5-0.5,1-1.1,1.9-1.1c1.2,0,1.9,1,1.9,2.2c0,1.1-0.6,1.6-1,2.1L197.9,184z"/>
		<path class="st0" d="M235,211.8c0,1-0.2,1.3-1.3,1.3h-5.6c-0.8,0-1.1-0.3-1.1-1.2v-17.1c0-1.6,0-2.4-0.8-3.2    c-0.7-0.6-1.7-0.9-2.6-0.9c-3.2,0-3.3,2.6-3.3,4.1V212c0,1-0.5,1.1-1.3,1.1h-5.6c-0.9,0-1.1-0.4-1.2-1.3v-20c0-1.8,0-3.5,4.9-4.7    c2.2-0.6,4.8-0.8,6.8-0.8c5.5,0,7.4,1.2,8,1.6c2.8,1.8,2.9,4.1,2.9,5.6V211.8z"/>
	</g>
	<g>
		<path class="st0" d="M30.5,244.4v14.2c0,1-0.4,1.2-1.3,1.2h-6.1c-1.2,0-1.3-0.4-1.3-1.4v-32.9c0-0.9,0.3-1.2,1.2-1.2h17.3    c0.9,0,1.3,0.1,1.3,1.2v3.4c0,0.9-0.1,1.3-1.3,1.3h-9.8v8.5h8c0.9,0,1.3,0.1,1.2,1.1v3.4c0,0.8-0.1,1.2-1.2,1.2H30.5z"/>
		<path class="st0" d="M62.5,254.4c0,1.1,0,2.4-0.8,3.3c-0.9,1.2-3.7,2.8-9.1,2.8c-2.1,0-10.7,0-10.7-7.3c0-6.6,6.7-8.1,13.2-9.5    v-2.6c0-1.6-0.1-3.7-2.4-3.7c-1.9,0-2.5,1.5-2.8,2.3c-0.6,1.4-1.1,2.9-3.4,2.9c-2.2,0-3.4-1.6-3.4-3.2c0-2.8,3.3-6.2,10.9-6.2    c1.8,0,4.1,0.2,5.8,1.2c2.7,1.7,2.8,4.5,2.8,6.2V254.4z M55,247.1c-2.8,0.9-5.5,1.7-5.5,5.4c0,2.8,1.7,3.8,3.2,3.8    c2.3,0,2.4-2,2.4-3.1V247.1z"/>
		<path class="st0" d="M67.5,239.1c0-2.1,0-2.8,1.4-3.7c2.5-1.7,7.2-2.3,9.3-2.3c4.9,0,6.9,1.8,8,2.7c0.8-0.7,1.8-1.6,4.2-2.2    c1.5-0.4,3.1-0.6,4.8-0.6c8.4,0,8.6,6.1,8.6,8.5v17c0,0.8-0.2,1.2-1,1.2h-5.8c-0.9,0-1.2-0.4-1.2-1.2V242c0-1.8,0-4.2-3-4.2    c-1.3,0-2,0.5-2.4,0.9c-0.9,0.8-0.9,1.7-0.9,3.3v16.6c0,0.9-0.2,1.2-1.2,1.2h-5.5c-0.9,0-1.4-0.2-1.4-1.2v-16.7c0-1-0.1-1.5-0.2-2    c-0.4-1.7-1.9-2.2-2.9-2.2c-0.9,0-1.8,0.4-2.3,0.9c-0.9,0.9-0.9,1.9-0.9,3.1v16.8c0,0.9-0.2,1.3-1.3,1.3h-5.5    c-0.9,0-1.2-0.2-1.2-1.2V239.1z"/>
		<path class="st0" d="M112.8,231.1c-2.3,0-4.2-1.2-4.2-3.5c0-2,1.4-3.6,4.1-3.6c2.7,0,3.9,1.7,3.9,3.5    C116.7,230,114.9,231.1,112.8,231.1z M116.9,258.5c0,1.1-0.4,1.3-1.3,1.3h-5.9c-1,0-1-0.5-1-1.2v-23.6c0-0.7,0.1-1.1,1.1-1.1h5.9    c1,0,1.2,0.2,1.2,1.2V258.5z"/>
		<path class="st0" d="M121.8,222.5c0-0.9,0.4-1.1,1.2-1.1h5.6c0.8,0,1.2,0.2,1.2,1.1v36.1c0,0.9-0.3,1.2-1.2,1.2H123    c-0.9,0-1.3-0.1-1.3-1.1V222.5z"/>
		<path class="st0" d="M138.9,231.1c-2.3,0-4.2-1.2-4.2-3.5c0-2,1.4-3.6,4.1-3.6c2.7,0,3.9,1.7,3.9,3.5    C142.8,230,140.9,231.1,138.9,231.1z M142.9,258.5c0,1.1-0.4,1.3-1.3,1.3h-5.9c-1,0-1-0.5-1-1.2v-23.6c0-0.7,0.1-1.1,1.1-1.1h5.9    c1,0,1.2,0.2,1.2,1.2V258.5z"/>
		<path class="st0" d="M167.3,254.4c0,1.1-0.1,2.4-0.8,3.3c-0.9,1.2-3.7,2.8-9.1,2.8c-2.1,0-10.7,0-10.7-7.3c0-6.6,6.7-8.1,13.2-9.5    v-2.6c0-1.6-0.1-3.7-2.4-3.7c-1.9,0-2.5,1.5-2.8,2.3c-0.6,1.4-1.1,2.9-3.4,2.9c-2.2,0-3.4-1.6-3.4-3.2c0-2.8,3.3-6.2,10.9-6.2    c1.8,0,4.1,0.2,5.8,1.2c2.7,1.7,2.8,4.5,2.8,6.2V254.4z M159.8,247.1c-2.8,0.9-5.5,1.7-5.5,5.4c0,2.8,1.7,3.8,3.2,3.8    c2.3,0,2.4-2,2.4-3.1V247.1z"/>
		<path class="st0" d="M198.5,263.1c-1.3,3.5-3.3,8.9-9.5,8.9c-3.5,0-5-2-5-3.9c0-1.8,1.4-3.2,3.1-3.2c0.6,0,1.1,0.2,1.6,0.3    c0.7,0.3,1.1,0.5,1.6,0.5c1.5,0,2.3-1.5,3.3-4.2l-9.2-26c-0.3-0.8-0.3-0.8-0.3-1c0-0.7,0.7-0.7,1.1-0.7h6.1c1,0,1.1,0.1,1.4,1.2    l4.4,15.4l4.5-15.3c0.4-1.1,0.4-1.3,1.4-1.3h4.1c0.5,0,1.1,0,1.1,0.8c0,0.2,0,0.4-0.2,1L198.5,263.1z"/>
		<path class="st0" d="M233.8,244.4v9.5h10.3c0.8,0,1.3,0.2,1.3,1.3v3.4c0,1-0.3,1.3-1.4,1.3h-17.5c-0.9,0-1.4-0.1-1.4-1.2v-32.7    c0-1.1,0.3-1.5,1.5-1.5h17.4c0.9,0,1.4,0,1.4,1.1v3.4c0,1.2-0.5,1.3-1.4,1.3h-10.2v8.6h8.5c0.8,0,1.3,0.1,1.3,1.1v3.4    c0,1.1-0.4,1.2-1.3,1.2H233.8z"/>
		<path class="st0" d="M271.2,254.6c0,1.5-0.1,2.8-1.7,3.8c-1.4,1-5,2.1-8.9,2.1c-8.6,0-12.3-5.4-12.3-13c0-7.6,4-14.4,11-14.4    c2.1,0,3.2,0.6,4,1v-11.4c0-1.1,0.6-1.3,1.3-1.3h5.3c0.9,0,1.4,0,1.4,1.1V254.6z M263.2,238c-0.5-0.3-1.2-0.7-2.1-0.7    c-3.4,0-4.9,4.4-4.9,9.1s1.5,9.1,4.8,9.1c2.1,0,2.2-1.9,2.2-3V238z"/>
		<path class="st0" d="M297.8,253.6c0,2.1,0,3.4-1.8,4.7c-1.5,1.1-4.8,2.2-9.2,2.2c-8.9,0-10.8-3.8-10.8-8.3v-17.4    c0-0.9,0.6-1,1.1-1h5.7c0.7,0,1.3,0.1,1.3,1.1v16.9c0,1.3,0.1,3.4,3,3.4c2.7,0,2.8-1.8,2.8-3v-17.2c0-0.8,0.2-1.1,1-1.1h5.9    c0.7,0,1.2,0.1,1.2,1V253.6z"/>
		<path class="st0" d="M311.9,238.1c-2.5,0-3.8,3.4-3.8,6.5c0,3.8,1.9,8.7,5.7,8.7c2.4,0,3.4-1.6,4.2-2.7c0.6-0.8,1-1.4,1.8-1.4    c0.7,0,1.7,0.5,1.7,2.3c0,3.6-2.7,9.1-9.5,9.1c-7.6,0-10.4-7.3-10.4-13.5c0-5,2.1-13.8,11.5-13.8c5.9,0,8.4,3.9,8.4,6.7    c0,2.1-1.5,3.6-3.3,3.6c-0.9,0-2.3-0.4-3-2.1C314.5,239.9,313.8,238.1,311.9,238.1z"/>
		<path class="st0" d="M344.5,254.4c0,1.1-0.1,2.4-0.8,3.3c-0.9,1.2-3.7,2.8-9.1,2.8c-2.1,0-10.7,0-10.7-7.3c0-6.6,6.7-8.1,13.2-9.5    v-2.6c0-1.6,0-3.7-2.4-3.7c-1.9,0-2.5,1.5-2.8,2.3c-0.6,1.4-1.1,2.9-3.4,2.9c-2.2,0-3.4-1.6-3.4-3.2c0-2.8,3.3-6.2,10.9-6.2    c1.8,0,4.1,0.2,5.8,1.2c2.7,1.7,2.8,4.5,2.8,6.2V254.4z M337,247.1c-2.8,0.9-5.5,1.7-5.5,5.4c0,2.8,1.7,3.8,3.2,3.8    c2.3,0,2.4-2,2.4-3.1V247.1z"/>
		<path class="st0" d="M358.8,238.1c-2.5,0-3.8,3.4-3.8,6.5c0,3.8,1.9,8.7,5.7,8.7c2.4,0,3.4-1.6,4.2-2.7c0.6-0.8,1-1.4,1.8-1.4    c0.7,0,1.7,0.5,1.7,2.3c0,3.6-2.7,9.1-9.5,9.1c-7.6,0-10.4-7.3-10.4-13.5c0-5,2.1-13.8,11.5-13.8c5.9,0,8.4,3.9,8.4,6.7    c0,2.1-1.5,3.6-3.3,3.6c-0.9,0-2.3-0.4-3-2.1C361.4,239.9,360.7,238.1,358.8,238.1z"/>
		<path class="st0" d="M376.1,231.1c-2.3,0-4.2-1.2-4.2-3.5c0-2,1.4-3.6,4.1-3.6c2.7,0,3.9,1.7,3.9,3.5    C379.9,230,378.1,231.1,376.1,231.1z M380.1,258.5c0,1.1-0.4,1.3-1.3,1.3h-5.9c-1,0-1-0.5-1-1.2v-23.6c0-0.7,0.1-1.1,1.1-1.1h5.9    c1,0,1.2,0.2,1.2,1.2V258.5z"/>
		<path class="st0" d="M395.7,260.5c-6.8,0-11.9-5-11.9-13.6c0-9.2,5.6-13.7,12-13.7c8.1,0,11.7,6.7,11.9,13.2    C408,254.8,403,260.5,395.7,260.5z M395.7,237.8c-2.8,0-3.6,4.6-3.6,8.3c0,3.9,1,9.1,3.8,9.1c2.8,0,3.7-5,3.6-9.1    C399.3,241.5,398.1,237.8,395.7,237.8z M397.3,230.7c-0.5,0.4-1,0.8-1.7,0.8c-1,0-1.5-0.7-1.5-1.5s0.5-1.3,0.9-1.8l3.6-4.2    c0.5-0.5,1-1.1,1.9-1.1c1.2,0,1.9,1,1.9,2.2c0,1.1-0.6,1.6-1,2.1L397.3,230.7z"/>
		<path class="st0" d="M434.2,258.6c0,1-0.2,1.3-1.3,1.3h-5.6c-0.8,0-1.1-0.3-1.1-1.2v-17.1c0-1.6,0-2.4-0.8-3.2    c-0.7-0.6-1.7-0.9-2.6-0.9c-3.2,0-3.3,2.6-3.3,4.1v17.2c0,1-0.5,1.1-1.3,1.1h-5.6c-0.9,0-1.1-0.4-1.2-1.3v-20c0-1.8,0-3.5,4.9-4.7    c2.2-0.6,4.8-0.8,6.8-0.8c5.5,0,7.4,1.2,8,1.6c2.8,1.8,2.9,4.1,2.9,5.6V258.6z"/>
	</g>
	<g>
		<path class="st0" d="M261.1,160.5c0,0,0.2-5.9,1.6-9s3.7-7.2,3.8-8c0.1-0.8-2.3-9.4-1.2-14.4c1.1-5,2.1-7.3,0.9-8    c-1.2-0.7-4,3.6-4,3.6c-0.4,1.8,0.1,7.6-0.1,10.5c-0.1,2.9-0.6,3.2-0.6,3.2s-0.8-11.3-0.4-13.2s1.4-3.2,3.3-5    c1.9-1.8,2.5-1.8,3-0.4c0.5,1.4,0.6,6.6,0,10.3c-0.6,3.7,1.4,12.9,0.9,14.8s-5,10.8-6.1,13.2S261.1,160.5,261.1,160.5z"/>
		<path class="st0" d="M333.9,89.9c0.8,4.5-1.3,8.9-2.4,13.4c-1.5,5.7-1.3,11.9,0.4,17.5c1,3.1,2.4,6.2,2.4,9.5    c0,3.6-1.8,6.9-3.2,10.2c-2.6,6.2-3.9,13-3.8,19.8c0,0.7,0,1.5,0.4,2.2c0.3,0.7,1,1.2,1.8,1.2c0.2-6.5,0.7-13.2,3-19.3    c1.5-3.9,3.9-7.6,4.5-11.8c1-6.8-2.7-13.4-2.7-20.3c0-4.8,1.8-9.3,2.5-14c0.8-4.7,0.3-10.1-3.3-13.3c0.1,0.7,0.1,1.5,0.2,2.2    C333.8,88.1,333.7,89,333.9,89.9z"/>
		<path class="st0" d="M338.1,106.8c4,0.4,8-0.6,11.8-1.7c1.2-0.3,2.7-1,2.8-2.2c-3.5,0.5-7,1.1-10.5,1c-3.5,0-7.1-0.7-10.2-2.4    c-0.6-0.4-2.9-1.8-3.3-0.5c-0.3,0.9,1.6,2.4,2.2,2.9C333,105.6,335.6,106.5,338.1,106.8z"/>
		<path class="st0" d="M354.3,77.6c1.5,2.2,1.7,4.9,2.1,7.5c0.7,4.6,1.9,9.1,3.7,13.3c0.4-0.1,0.5-0.7,0.6-1.1    c0.2-2.4,0.4-5-0.5-7.3c-0.6-1.6-1.6-2.9-2.3-4.4c-0.8-1.9-1-4-1.4-6c-0.4-2-1.2-4.1-2.8-5.3c-1.4-1.1-3.4-1.4-4.6-2.8    c-0.7-0.8-0.9-1.8-1.4-2.7c-0.4-0.9-1.1-1.9-2.1-2c-0.8-0.1-1.8,0.1-2.2,0.8c-0.8,1.3-1.6,1.7-1.6,2.5c0,0.9-1,2.1-0.1,3.1    c0.5,0.6,1.3,0.7,2.1,0.9c0.7,0.2,1.5,0.7,1.6,1.5c-0.9,0.1-1.9,0.1-2.8,0.2c0.4,0.8,0.8,1.7,1.6,2.2c0.8,0.5,2,0.5,2.4-0.3    c0.3-0.4,0.3-1,0.4-1.4s0.7-0.9,1.1-0.6c0.3,0.1,0.2,0.6,0.1,0.8c-0.2,0.3-0.5,0.5-0.5,0.8c-0.1,0.5,0.7,0.8,1.1,0.6    c0.5-0.2,0.7-0.7,0.9-1.2c0.1,1.2-0.4,2.5-1.4,3.3c-0.9,0.8-2.2,1.2-3.4,1c-1.3,4.5-2.1,9.2-2.4,13.9c-0.4,0.3-0.9,0-1.2-0.4    c-0.2-0.4-0.2-0.9-0.2-1.4c0.1-2.7,0.1-5.5,0.8-8.1c0.3-1.2,0.8-2.4,0.9-3.6s0.1-2.6-0.6-3.6c-0.4-0.6-1-1.1-1.5-1.7    c-0.6-0.9-0.8-2.1-0.9-3.2c-0.2-2.1-0.7-3.9,0-5.9c0.4-1.2,1-0.5,2.4-3.1c0.4-0.7,1.5-1.2,2.5-1.1c1.6,0.1,3.2,0.8,4.2,2    c1,1.3,1.5,2.9,1.6,4.5c0.1,0.7,0.1,1.4,0.4,2c0.5,0.9,1.6,1.2,2.4,1.6c2.3,1.1,4.1,3.4,4.6,5.9c0.2,1.3,0.2,2.7,0.5,4    c0.7,2.9,3.3,5,4.5,7.7c0.9,2.2,0.9,4.7-0.1,6.8c-0.4,0.9-1,1.7-2,1.9c-1,0.2-1.9-0.5-2.6-1.2c-2.2-2.2-3.3-5.3-4-8.4    c-0.6-3.1-0.8-6.3-1.6-9.3c-0.4-1.8-1.3-3.8-3-4.5c-0.5-0.2-1-0.3-1.3-0.6c-1.5-1.5,2-0.7,2.4-0.5    C352.2,75.3,353.5,76.3,354.3,77.6z"/>
		<path class="st0" d="M350.9,79.7c-0.9,2.8-0.3,6.1,1.6,8.4c0.5,0.7,1.2,1.4,0.9,2.2c-0.2,0.6-0.8,0.9-1.3,1.2c-1,0.7-1.7,1.8-2,3    c-0.4,1.2-0.4,2.5-0.5,3.7c-0.1,1.2-0.1,2.5-0.2,3.7c-0.1,0.9,0,2,0.9,2.3c0.6,0.2,1.2-0.2,1.5-0.7c0.3-0.5,0.3-1.2,0.2-1.8    c-0.1-0.6-0.3-1.2-0.3-1.8c-0.2-3.4,3.6-5.9,3.6-9.3c0-2.6-2.3-4.7-2.6-7.3c-0.2-1.3,0.2-2.6,0.2-3.9c0-0.6-0.3-2.6-1.2-2.8    c-0.7-0.1-0.3,0.7-0.3,1.1C351.4,78.4,351.1,79.1,350.9,79.7z"/>
		<path class="st0" d="M334.5,149.3c0.4-1.9,0.9-3.9,1.8-5.6c1.1-2,2.6-3.8,3.5-5.8c2.5-5.7-0.1-12.5,2-18.3c0.7-2,2-3.7,3.7-5.1    c0.3,2.7,2,5,3.7,7.1s3.7,4.1,4.7,6.7c1.5,3.9,0.6,8.2,0.2,12.4c-0.6,5.6-0.4,11.2-0.3,16.8c0,0.9,0.2,2.1,1.1,2.5    c0.3,0.1,0.6,0.1,0.9,0.3c0.4,0.3,0.5,0.9,0.3,1.3s-0.7,0.7-1.1,0.9c-1.5,0.4-3-0.6-3.7-1.9c-0.7-1.3-0.8-2.9-0.9-4.4    c-0.3-6.1-0.6-12.2,0.4-18.2c0.4-2.7,1-5.5,0.4-8.1c-0.9-3.4-3.8-5.9-6.6-8.1c0.3,5.4,0.7,10.9-0.7,16.1c-1,3.7-2.9,7.2-4.5,10.7    c-1.6,3.5-3,7.3-2.8,11.2c0.1,1.1,0.4,3.8-1.3,4.1c-1.6,0.3-1.4-2.3-1.5-3.3C333.4,156.8,333.7,153,334.5,149.3z"/>
		<path class="st0" d="M351.2,116.3c2.1,3.4,4.7,6.4,6.7,9.8c0.6,1.1,1.3,2.2,1.4,3.4c0.2,1.6-0.5,3.2-1,4.8    c-2.4,7.4-1.8,15.4-1.2,23.1c0.1,0.8,0.2,1.7,0.9,2c0.8,0.4,1.7-0.2,2.1-1c0.3-0.8,0.2-1.7,0.1-2.6c-0.8-6-0.4-12.1,0.9-18    c0.6-2.6,1.4-5.3,1.3-8c-0.1-2.1-0.8-4.1-1.6-6c-1.6-3.8-3.7-7.3-6.2-10.4c-1.3-1.6-2.7-3.2-3.6-5c-0.5-1,0.5-5.7-2.1-4.2    C345.7,106.1,350,114.4,351.2,116.3z"/>
		<path class="st0" d="M345,61.7c0.1-0.7,0.8-1.3,1.5-1.2c0.5,0.1,0.8,0.5,1.2,0.9c0.6,0.8,1.3,1.6,1.9,2.4c0.9,1.1,1.8,2.2,3,2.8    c1.1,0.5,2.4,0.6,3.6,0.6c1.6,0,3.1,0,4.7,0c0.4,0,0.9-0.2,0.9-0.6c-0.1-0.3-0.5-0.4-0.8-0.3c-0.3,0.1-0.6,0.2-0.9,0.1    c-0.3-0.1-0.4-0.5-0.6-0.7c-0.5-0.5-1.3-0.2-2,0c-1.5,0.5-3.2,0.3-4.7-0.4s-2.6-2-3.2-3.4c-0.4-0.9-0.5-2-1.1-2.8    s-1.9-1.3-2.6-0.7c-0.3,0.2-0.4,0.6-0.6,0.8c-0.7,1-2.2,1.2-3.3,0.8c-1.1-0.5-1.9-1.5-2.2-2.7c-0.2-0.7-0.2-1.6-0.9-1.9    c-0.7-0.4-1.5,0.3-2.2,0.7c-0.8,0.6-1.9,0.9-2.9,1c-0.3,0-0.6,0-0.8-0.1c-0.2-0.1-0.4-0.4-0.4-0.6c0.1-0.3,0.4-0.5,0.8-0.6    c0.9-0.3,1.9-0.7,2.8-1c1.1-0.4,2.4-0.8,3.4-0.2c0.7,0.4,1.1,1.1,1.4,1.8s0.7,1.4,1.3,1.9c0.6,0.5,1.5,0.6,2.1,0.1    c0.3-0.3,0.4-0.6,0.6-0.9c0.7-0.9,2.1-0.9,3.1-0.4c1,0.6,1.6,1.6,2,2.7c0.5,1,0.9,2.1,1.6,3c1,1.2,2.5,1.9,4.1,2s3.1-0.5,4.4-1.4    c0.3-0.2,0.9-0.5,1.1-0.2c0.2,0.3,0,0.6-0.3,0.8c-0.2,0.2-0.5,0.5-0.5,0.8c0,0.3,0.3,0.4,0.5,0.5s0.5,0.1,0.8,0.1    c0.5,0.1,0.9,0.5,1.1,1.1c0.1,0.5-0.1,1.1-0.5,1.4c-0.5,0.5-1.3,0.4-2.1,0.4c-1.8-0.1-3.7-0.2-5.5-0.3c-1.7-0.1-3.4-0.2-5-0.9    c-1.3-0.5-2.4-1.4-3.4-2.4c-0.4-0.3-0.9-0.7-1.1-1.1C344.9,63.1,344.9,62.2,345,61.7z"/>
		<path class="st0" d="M348.4,49.7c-0.3-0.2-0.6-0.3-0.9-0.5c-0.3-0.3-0.5-0.7-0.6-1.1c-0.1-0.4-0.3-0.8-0.7-1    c-0.4-0.2-0.9-0.1-1,0.3c-0.1,0.5,0.5,0.9,0.4,1.3c0,0.4-0.4,0.6-0.8,0.6c-0.4,0-0.7-0.2-1-0.4c-0.3-0.2-0.7-0.3-1-0.2    c-0.3,0.1-0.5,0.2-0.7,0.4c-0.2,0.1-0.5,0.2-0.7,0.1c-0.3-0.2-0.4-0.7-0.2-1c0.2-0.3,0.6-0.4,0.9-0.5c0.5-0.1,1-0.2,1.5-0.1    c0.3,0,0.6,0,0.8-0.2c0.1-0.2,0.1-0.5-0.1-0.6c-0.2-0.2-0.4-0.2-0.6-0.3c-0.9-0.2-1.9-0.2-2.7,0.2c-0.8,0.5-1.4,1.4-1.2,2.3    c-0.6,0.2-1.4,0.2-2.1,0.1c-0.7-0.1-1.4-0.2-2.1,0c-0.7,0.2-1.3,0.8-1.2,1.5c0.4,0.2,0.8,0,1.1-0.2c0.3-0.2,0.7-0.5,1.1-0.5    c0.6-0.1,1.2,0.3,1.7,0.5c0.7,0.3,1.1,0.2,1.8,0.1c0.6,0,1.1,0.6,0.7,1.1c-0.2,0.4-0.8,0.5-1.2,0.3c-0.4-0.1-0.8-0.4-1.2-0.6    c-0.4-0.2-0.8-0.4-1.3-0.3c-0.3,0.1-0.5,0.3-0.4,0.6c0,0.1,0.1,0.2,0.2,0.3c0.5,0.5,1,1,1.7,1.2c0.7,0.2,1.5,0.1,1.9-0.4    c0.1-0.2,0.2-0.4,0.4-0.5c0.3-0.3,0.9-0.1,1.1,0.3c0.2,0.4,0.1,0.9-0.2,1.2c-0.3,0.3-0.7,0.5-1.2,0.6c-0.2,0.1-0.5,0.1-0.7,0.2    c-0.2,0.1-0.4,0.3-0.5,0.6c0,0.3,0.2,0.6,0.5,0.7c0.3,0.1,0.6,0.1,0.9,0.1c0.3,0,0.6,0,0.9-0.1s0.6-0.3,0.7-0.6    c0.1-0.2,0-0.5,0.2-0.7c0.2-0.4,0.7-0.4,1.1-0.2c0.4,0.2,0.7,0.5,1,0.8s0.7,0.5,1.1,0.4c0.4-0.1,0.7-0.5,0.7-0.9    c0.1-0.4,0-0.8,0-1.2s0.1-0.9,0.4-1.2c0.2-0.2,0.4-0.3,0.5-0.6c0-0.2,0-0.4,0-0.5c0.2-0.5,1-0.3,1.2-0.7    C348.8,50.2,348.6,49.8,348.4,49.7z M345.1,54c-0.3,0.3-0.8,0.3-1.1,0.1s-0.6-0.5-0.8-0.9c-0.4-0.6-0.6-1.3-0.8-2    c-0.1-0.3-0.1-0.6-0.1-0.8c0.2-1.3,1.9-0.1,2.4,0.5c0.4,0.6,0.6,1.4,0.7,2.2C345.4,53.4,345.4,53.8,345.1,54z"/>
		<path class="st0" d="M324.5,46.8c0.1,2.5,1.2,5,3.1,6.6c1.9,1.6,4.5,2.4,7,2.1c-0.4,1-0.8,2-1.3,3c-0.5,0.8-1.4-1.9-2.6-2.3    c-1.2-0.4-2.5-0.5-3.4-1.3c-1.6-1.3-1.8-4-3.6-5c-0.7-0.4-1.6-0.5-2.1-1.1c-0.2-0.3-0.3-0.6-0.6-0.7c-0.3,0-0.5,0.3-0.5,0.6    c0,0.3,0.3,0.6,0.5,0.8c1.5,1.6,3.5,2.8,4.6,4.6c0.8,1.3,1.8,2.5,3.2,3.2c1,0.5,2.2,0.7,3.4,0.8c1.6,0.2,3.2,0.2,4.6,1    s2.4,2.5,1.7,4c-0.3,0.7-1,1.2-1.4,1.8s-0.6,1.7,0.1,2.1c0.8,0.5,2.1-0.1,2.6,0.7c0.3,0.5,0,1-0.3,1.5c-1.1,1.9-1.7,4.1-1.8,6.3    c0,0.6-0.2,1.4-0.8,1.4c-0.4,0-0.7-0.5-0.8-0.9c-0.5-2.3,1.8-4.6,1.1-6.8c-0.3-1-1.1-1.7-1.9-2.2c-0.6-0.4-1.3-0.9-1.2-1.5    c0-0.6,0.5-1,1-1.3c0.5-0.3,1-0.5,1.4-0.9c0.7-0.8,0.3-2.1-0.4-2.8c-0.8-0.7-1.9-0.8-2.9-0.9s-2.1,0.1-3.1-0.2    c-1.7-0.4-3.1-1.8-4.2-3.2s-1.9-3.1-3.2-4.3c-0.9-0.9-2-1.7-2.5-2.8c-0.3-0.8-0.1-1.8,0.7-2c0.7-0.1,1.2,0.5,1.6,1    c0.3,0.4,0.9,1.2,1.5,1C323.8,48.2,323.8,47.4,324.5,46.8z"/>
		<path class="st0" d="M346.4,68.7c0,0.2-0.1,0.4-0.1,0.6s0,0.4,0.2,0.5c0.1,0.2,0.4,0.2,0.6,0.1c0.2-0.1,0.4-0.2,0.6-0.3    c0.3-0.2,0.6-0.5,0.7-0.8c0.5-0.9,0-2.2-1.1-2.5C345.8,66,346.6,68,346.4,68.7z"/>
		<path class="st0" d="M348.6,72.1c0,0.1,0,0.2,0,0.2c0.1,0.2,0.3,0.2,0.5,0.1c0.3-0.1,0.6-0.4,0.8-0.7c0.1-0.3,0.2-0.7,0.1-1    c-0.1-0.5-0.5-1.4-1-0.8C348.6,70.4,348.6,71.5,348.6,72.1z"/>
		<path class="st0" d="M347.9,72.8c0-0.2,0.1-0.5,0.3-0.6c0.2,0,0.4,0.2,0.5,0.4c0.2,0.7-0.1,1.4,0,2.2c0.1,0.3,0.2,0.7,0.1,1    c-0.1,0.4-0.5,0.7-0.8,0.9c-0.6,0.4-0.5-0.8-0.5-1.2C347.6,74.6,347.8,73.7,347.9,72.8z"/>
		<path class="st0" d="M348.9,70c-0.2,0.7-0.4,1.5-0.6,2.2c0.8-0.1,1.5,0.4,2.2,0.9c1.7,1.4,3.5,2.7,5.2,4.1    c0.5-0.8,0.2-1.9-0.5-2.5c-0.7-0.7-1.5-1-2.3-1.5c-1.4-0.8-2.6-2.1-3.3-3.5c-0.1-0.1-0.4-0.1-0.6,0S348.9,69.9,348.9,70z"/>
		<path class="st0" d="M349,63.9c0,0,0,0.1,0,0.1c0,0.1,0.1,0.1,0.1,0.1s0.1,0,0.2,0c0.3-0.1,0.7-0.2,0.9-0.5    c0.2-0.2,0.3-0.5,0.3-0.8c0-0.2-0.1-0.7-0.4-0.7c-0.3,0-0.5,0.5-0.6,0.7C349.4,63.2,349.2,63.5,349,63.9z"/>
		<path class="st0" d="M330,78.4c-1.9,1.6-3.4,3.6-4.7,5.7c-0.3,0.5-0.6,1-0.7,1.6c-0.1,0.5,0,1,0,1.5c-0.1,1.2-1.1,2.1-1.9,3    c-2.3,2.6-3.3,6.1-3.5,9.6c-0.1,3.5,0.5,6.9,1.3,10.3c0.5,0.4,1.3,0,1.5-0.6c0.3-0.6,0.2-1.2,0.1-1.8c-0.6-4.9-0.7-10.2,1.7-14.6    c1.3-2.5,3.3-4.5,4.9-6.8c1.1-1.6,1.9-3.3,3.2-4.8c1.2-1.5,2.9-2.8,4.8-2.9c1-0.1,2.2,0.3,2.7,1.2c0.3,0.7,0.1,1.6,0,2.4    c-0.6,2.9-0.4,6,0.4,8.8c0.4,1.5,1.3,3.1,2.8,3.5c-1.5-2.5-2.2-5.5-1.9-8.4c0.1-1.4,0.5-2.7,0.5-4c0.1-1.4-0.2-2.8-1-3.8    c-0.2-0.3-0.5-0.5-0.7-0.9s-0.2-0.8,0.1-1c0.2-0.2,0.4-0.2,0.7-0.3c0.7-0.4,0.8-1.4,0.6-2.3c-0.2-0.8-0.5-1.7-0.2-2.5    c-0.4-0.3-1,0-1.3,0.4c-0.2,0.5-0.2,1-0.1,1.5c0.1,0.5,0.2,1,0.1,1.5c-0.4,2.2-2.7,0.6-4,0.8C333.3,76.1,331.5,77.2,330,78.4z"/>
		<path class="st0" d="M328.6,89.2c0.5,0.5,1.3,0.4,1.9,0.1s1.1-0.8,1.7-1.2c0.6-0.4,1.4-0.6,2-0.2c-0.3,1.6-1.9,2.6-3.1,3.7    c-2.6,2.2-4.2,5.2-5.3,8.4s-1.5,6.5-2,9.8c-0.2,1.1-0.3,2.2-0.1,3.3c0.3,1.4,1.2,2.7,1.5,4.1c0.1,0.3,0.1,0.6,0,0.8    c-0.1,0.2-0.5,0.4-0.7,0.2c-0.5-0.9-1.1-1.9-1.6-2.8c-0.4,0.3-0.5,0.9-0.5,1.5c0,0.5,0.2,1.1,0.1,1.6s-0.5,1.1-1,1    c-0.6-0.1-0.9-0.8-1-1.5c-0.3-2.4,0-4.8,0.9-7.1c-1.2,0.3-2.3,1.2-2.9,2.3c-0.5,1.1-0.5,2.5,0,3.7c0.1,0.3,0.3,0.6,0.3,0.9    s-0.2,0.7-0.5,0.7c-0.2,0-0.4-0.1-0.5-0.2c-1.4-1.2-1.9-3.3-1.2-5c0.9-2.1,3.3-3.1,4.5-5.1c1.1-1.8,0.9-4.1,1.1-6.3    c0.3-3.7,1.7-7.3,4.1-10.2c0.5-0.6,1-1.4,0.7-2.1c-0.3-0.6-1.6-1.2-0.5-1.8C327.9,87.2,328.1,88.6,328.6,89.2z"/>
		<path class="st0" d="M292.8,72.9c-0.7,1.3-0.5,3.1-1.6,4.2c-1.2,1.2-3.3,0.8-4.7,1.9c-1.5,1.2-1.3,3.6-0.8,5.5    c-1.7-0.5-3.7,0.4-4.5,2.1s-0.1,3.7,1.4,4.7c1,0.6,2.4,0.9,2.7,2.1c0.2,0.8-0.2,1.5-0.6,2.2c-2.1,3-5.8,5.1-7,8.6    c-0.7,2.1-0.4,4.3-0.1,6.4c0.7,4.8,1.3,9.5,2,14.3c1.6-3.1,1.2-6.9,0.7-10.4c-0.5-3.5-1-7.2,0.4-10.4c1.2-2.8,3.7-4.8,5.8-7    c2.3-2.4,4.2-5,6.2-7.7c0.2-0.2,0.3-0.5,0.4-0.7c0.2-0.8-0.9-1.5-1.7-1.4c-0.8,0.2-1.5,0.8-2.1,1.5c1.1-2.1,3.5-3.2,5.6-4.3    c2.1-1.1,4.4-2.6,5-4.9c0.2-0.7,0.2-1.4,0.4-2.1c0.2-0.7,0.8-1.3,1.5-1.3c0.3,0,0.6,0.1,0.9,0.1c0.3,0,0.6-0.2,0.6-0.5    c0-0.2-0.2-0.3-0.3-0.4c-1.1-0.8-2.8-0.4-3.8,0.5c-1,1-1.5,2.3-1.9,3.6c-0.5,1.3-1,2.7-2,3.6c-2,1.8-5.6,1.7-6.7,4.1    c-0.4,0.8-0.4,1.8-0.6,2.7c-0.2,0.9-0.9,1.8-1.9,1.8c-1,0-1.6-1.2-1.4-2.2s0.9-1.7,1.7-2.4s1.5-1.3,2-2.1c0.5-1,0.5-2.3,1-3.3    c0.9-1.8,3.4-2.4,4.3-4.2c0.5-1.1,0.4-2.3,0.9-3.4c0.4-0.7,2.8-1.7,1.7-2.3C295.1,70.7,293.3,72.1,292.8,72.9z"/>
		<path class="st0" d="M293.6,78.1c-0.8,1.5-2,2.7-2.9,4s-1.8,3-1.4,4.6c0.6,0,1-0.4,1.3-0.9c0.3-0.5,0.4-1,0.7-1.5    c0.6-1.3,1.8-2.1,2.9-3c1.1-0.9,2.1-2,2.3-3.4c0.1-0.6-0.2-2.3-1.1-2.2C294.5,75.7,293.9,77.5,293.6,78.1z"/>
		<path class="st0" d="M298.5,72.3c1.3,0.4,2.6,0.7,3.9,0.7c-0.6,1.9-1.3,4,0,5.7c0.3,0.4,0.5,0.9,0.5,1.4c0.1,1.7-1.6,1.9-2.8,2.3    c-1.4,0.6-2.5,1.9-2.8,3.4c-0.3,1.5,0.2,3.1,1.3,4.2c0.7,0.7,1.7,1.1,2.5,1.7c1.5,1.1,2.5,2.8,3.3,4.6s1.3,3.6,2,5.3    c2.2,5.1,6.6,9.2,11.8,11.1c0.2-0.7-0.1-1.4-0.5-1.9s-1-0.9-1.5-1.3c-4.5-3.3-7.7-8.3-8.8-13.8c-0.3-1.4-0.4-2.7-0.9-4    c-0.5-1.3-1.4-2.5-2.7-3c-1.2-0.4-2.5-0.2-3.6-0.9c-0.3-0.2-0.6-0.5-0.8-0.8c-0.6-1.1,0.3-2.1,1.2-2.5c0.7-0.3,1.6-0.5,2.3-0.8    c1.6-0.6,1.3-0.7,1.5-2.5s0.2-4.8-1.2-5.8c0.7-0.8,0.8-2.1,0.3-3c-1-2-3.3-2-5-1.1C298,71.5,298,72.2,298.5,72.3z"/>
		<path class="st0" d="M290.9,95.7c-4.4,1.9-7.9,5.9-9.3,10.5c-2.1,7.2,0.8,15.1-0.4,22.5c-0.1,0.5-0.1,1.2,0.4,1.3    c0.4,0.1,0.6-0.3,0.8-0.6c2.1-3.6,1.7-8.2,1.3-12.4c-0.5-4.2-0.9-8.7,1.1-12.4c2.2-4.1,6.8-6.2,11.3-7.2c2.2-0.5,4.9-0.7,6.2,1.2    c0.9,1.3,0.6,3,0.3,4.5c-0.8,4.4-1.8,8.7-1.9,13.2c-0.1,4.4,0.8,9,3.4,12.7c2,2.9,5.1,5.2,6.1,8.6c0.8,2.8,0.1,5.9,0,8.8    c-0.1,3.1,0.4,6.2,1.6,9c0.7-3.9,1.5-7.8,1.5-11.7c0-3.9-0.6-8-2.6-11.4c-1.5-2.6-3.7-4.8-4.9-7.6c-1.3-3.1-1.3-6.6-1.2-10    c0-4.7,0.2-9.4,0.3-14.1c0-1.6,0.7-4-0.8-4.9c-1.7-1-4.2-1.2-6.1-1.3C295.5,94.3,293.1,94.8,290.9,95.7z"/>
		<path class="st0" d="M304.5,99.1c-0.3,3-0.5,6.3,1.1,8.8c1,1.5,2.5,2.6,4,3.7c2.5,1.8,5.4,3.6,8.5,3.2c-0.1-0.9-0.9-1.6-1.7-1.9    c-0.8-0.3-1.8-0.4-2.6-0.6c-1.5-0.5-2.7-1.6-3.8-2.7c-3-3.4-5-7.6-5.6-12.1C304.1,98.1,304.6,98.3,304.5,99.1z"/>
		<path class="st0" d="M290.2,108.3c-1,3.4-2.4,6.6-2.7,10.1c-0.6,7.5,4.2,14.9,2.7,22.3c-0.6,2.9-2.1,5.5-3.3,8.2    c-2.8,6.2-4,13.1-3.5,19.8c0.1,0.7,0.5,1.7,1.2,1.5c0.4-0.1,0.6-0.5,0.7-0.9c1.3-3.3,3.4-6.4,4.7-9.6c0.8-2,2.8-5,0.5-6.5    c-2.9,3.1-5,6.9-5.8,11.1c1.4-7.9,8.3-16.1,9.4-25.6c1-8.9-4.6-19.5-2.5-28.2c0.6-2.5,1.8-4.8,2-7.3c0.2-2.2-0.8-5.7-3.4-6.1    c-0.6,0.8,0.1,1.6,0.4,2.4c0.3,0.9,0.5,1.9,0.5,2.9C291.1,104.4,290.8,106.5,290.2,108.3z"/>
		<path class="st0" d="M291.8,151.5c2.1,0.3,4.3-0.1,6.1,1c0.9,0.5,1.6,1.4,2.4,2c2.1,1.5,5.1,1.4,7.5,0.4c1-0.4,2-1,3.1-1.1    s4-0.6,4.2,0.5c0.2,0.9,0.3,2.5-0.5,3c-0.7,0.5-3.3,1.6-4.2,1.7c-2.8,0.4-5.9,1.9-8.6,0.8c-1.4-0.6-3.4-2.6-4.9-3.1    c-1.8-0.6-3.6-0.3-5.5-0.6c-1.6-0.2-7.7-5.5-7.7-6.6C283.9,147.8,290.8,151.4,291.8,151.5z"/>
		<path class="st0" d="M305.8,152.4c0,1.3,0.4,2.6,0.7,3.9c0.6,2.3,1.3,4.7,2.3,6.9c1,2.2,2.4,4.3,4.3,5.7c0.3,0.3,0.8,0.5,1.2,0.3    c0.4-0.3,0.2-0.9,0-1.3c-1.1-2-2.1-4.1-3.2-6.1c-0.8-1.5-1.6-3.1-2-4.8c-0.2-0.7-0.7-0.9-1-1.5c-0.4-0.9-0.4-3.3-1.5-6.4    C306.2,147.9,305.8,151.5,305.8,152.4z"/>
		<path class="st0" d="M311.5,159.3c0.5,3.2,1.6,6.3,3.7,8.8c-0.2-2.1-0.4-4.2-0.5-6.4c-0.1-1.7-0.3-3.3-0.8-4.9    c-0.5-1.7-1.5-3.4-1.5-5.2c0-0.5,0.1-2.7-0.9-1.9c-0.6,0.5-0.4,2.3-0.4,3C311.1,155,311.1,157.2,311.5,159.3z"/>
		<path class="st0" d="M261,107.4c0.7-0.7,1.7-1.1,2.7-1c0.4,0,0.9,0.2,1.3,0.2c0.4,0,0.9-0.1,1.2-0.4c0.2-0.3,0.3-0.7,0.4-1    c0.4-1.2,1.9-1.9,3.1-1.5c0.2,0.1,0.4,0.2,0.5,0.3c0.2,0.4-0.1,0.8-0.5,0.9c-0.4,0.1-0.8,0.1-1.2,0.2c-0.4,0.1-0.8,0.4-0.7,0.8    c0.1,0.5,0.7,0.5,1.2,0.4c0.4-0.2,0.9-0.4,1.4-0.3c0.4,0.1,0.6,0.4,0.9,0.5c0.3,0.2,0.8,0.1,0.9-0.2c0.1-0.3-0.2-0.6-0.5-0.7    c-0.3-0.1-0.6-0.2-0.8-0.4c-0.3-0.4-0.1-1,0.4-1.2c0.5-0.2,1,0,1.4,0.3c1,0.7,1.4,1.8,1.8,2.9c0.3,0.9,0.6,1.8,0.4,2.7    c-0.2,0.7-0.7,1.2-1.2,1.7c-0.7,0.7-1.4,1.4-2,2.1c-0.2,0.2-0.4,0.4-0.7,0.5c-0.7,0.2-1.2-0.6-1.1-1.3s0.6-1.2,1.1-1.7    s0.9-1.1,0.9-1.8c0-0.7-0.6-1.3-1.2-1.7c-0.6-0.4-1.4-0.7-1.9-0.2c-0.6,0.5-0.5,1.4-0.9,2c-0.4,0.5-1.2,0.6-1.8,0.9    c-0.7,0.3-1.2,0.9-1.7,1.5c-0.7,0.8-1.3,1.5-2,2.3c-0.2,0.2-0.3,0.4-0.5,0.5c-0.2,0.1-0.5,0.1-0.7-0.1c-0.2-0.3,0-0.7,0.2-0.9    c0.7-0.8,1.4-1.7,2.1-2.5c0.3-0.4,0.7-1.1,0.2-1.4c-0.2-0.2-0.6-0.2-0.6-0.5c0-0.2,0.3-0.3,0.5-0.3c0.5,0,0.9,0.2,1.4,0.4    c0.7,0.2,1.9,0.2,1.9-0.8c0-0.6-0.3-0.7-0.9-0.8c-0.7,0-1.4,0.1-2,0.1C263.6,107.8,261.3,107.2,261,107.4z"/>
		<path class="st0" d="M270,109.1c0.1,0.4,0.3,0.8,0.4,1.2c0,0.2,0.1,0.4,0,0.6c-0.1,0.4-0.5,0.6-0.8,0.8c-0.7,0.3-1.5,0.6-2.1,1.1    c-0.4,0.3-0.7,0.6-1.1,0.8c-0.4,0.2-0.9,0.4-1.3,0.2c-0.1-0.6,0.4-1.1,0.9-1.4c0.5-0.3,1.1-0.4,1.6-0.7c0.8-0.4,0.9-0.9,0.9-1.7    c0.1-0.9,0.3-0.4,1-0.2C269.3,109.5,269.9,108.8,270,109.1z"/>
		<path class="st0" d="M264.6,115.3c-1.3,1.7-2.6,3.3-3.9,5c-0.9,1.1-1.8,2.3-2.1,3.6c-0.5,2,0.3,4.2,0.6,6.3    c0.3,1.7,0.2,3.5-0.1,5.1c-0.1,0.6-0.3,1.3-0.2,1.9c0.1,0.6,0.7,1.2,1.3,1.1c0-2.8,0.1-5.5,0.1-8.3c0-0.7,0-1.4,0.2-2.1    c0.2-0.8,0.7-1.5,0.6-2.3c-0.4,0.1-0.8,0.2-1.2,0.2c-0.2-0.5-0.1-1.2,0.1-1.7c0.2-0.5,0.6-1,1-1.5c1.8-2.2,3.7-4.4,5.5-6.6    c0.5-0.6,1.8-1.9,0.5-2.4C266.1,113.2,265.1,114.6,264.6,115.3z"/>
		<path class="st0" d="M274.1,117.7c-1.6,0.7-3.3,1.4-4.9,0.8c-0.4-0.1-0.8-0.4-1.2-0.5c-0.4-0.1-0.9-0.2-1.3,0s-0.6,0.7-0.4,1.1    c0.2,0.4,0.8,0.5,1.3,0.5c1.8,0,3.5,0,5.3,0c0.7,3.5-0.4,7-0.5,10.5c-0.1,1.6,0.1,3.3,0.7,4.9c0.3,0.9,0.7,1.7,1.2,2.5    c0.3,0.7,0.7,1.3,1.3,1.8s1.5,0.6,2.1,0.2c-3.2-3.8-4.4-9.1-3.3-13.9c0.1-0.2,0.1-0.4,0.3-0.6c0.2-0.1,0.5-0.1,0.7,0.1    c0.2,0.2,0.3,0.4,0.5,0.6c1.2,2,3.3,3.4,5.6,3.7c0.2,0,0.4,0,0.6-0.1c0.1-0.2,0.1-0.4-0.1-0.6c-0.1-0.1-0.3-0.2-0.5-0.3    c-2.8-1.1-5.2-3.3-6.5-6.1c-0.4-0.8-0.6-1.7-0.5-2.6c0.1-0.7,0.5-1.2,0.7-1.9c0.5-1.7-0.6-3.6-2.3-4c-0.4-0.1-1-0.1-1.4-0.5    c-0.2-0.2-0.3-0.8-0.4-0.9c-0.3-0.2-0.9,0.4-0.9,0.7c-0.2,0.8,1,1.6,1.5,2.1C271.9,115.6,273.9,117.8,274.1,117.7z"/>
		<path class="st0" d="M277.7,126.7c0.1,0.3,0.3,0.7,0.7,0.8c0.2,0,0.5-0.1,0.7-0.2c0.8-0.3,1.6,0,2.4,0.3c0.3-0.2,0.2-0.7,0-1    c-0.2-0.3-0.6-0.4-1-0.5s-0.7-0.3-0.9-0.6c-0.2-0.5,0-1.2-0.4-1.5c-0.3-0.3-0.7-0.2-1.1-0.3c-0.8-0.2-1.2-1.1-1.5-1.9    c-0.4-1-0.7-2-1.1-3c-0.2-0.6-0.3-1.5-0.8-1.9c-0.6,0.7-0.1,2.5,0.2,3.2c0.4,1.1,0.9,2.2,1.3,3.3    C276.7,124.3,277.7,125.8,277.7,126.7z"/>
		<path class="st0" d="M264.1,142.4c-0.3-0.1-0.7-0.3-0.8-0.6c-0.2-0.3-0.2-0.8,0.2-0.9c0.4-0.2,0.8,0.1,1.1,0.3    c0.8,0.4,1.8,0.3,2.7,0c0.9-0.3,1.8-0.7,2.7-0.6c1.3,0.1,2.6,1,3.9,0.9c1.8-0.2,2.8-2.2,4.5-2.8c0.7-0.3,1.7-0.1,1.9,0.6    c0.2,0.6-0.2,1.2-0.6,1.6c-1.6,1.4-4,1.6-6.1,1.8C270.4,142.7,267,143.5,264.1,142.4z"/>
		<path class="st0" d="M266.6,154.2c-1,1.3-2.3,2.5-2.6,4.2c-0.3,1.2,0.1,2.6-0.4,3.7c-0.2,0.5-0.6,0.9-1.1,0.9    c-0.5,0-0.9-0.7-1-1.2c-0.6-2.6,0.8-5.1,2.2-7.3c1.5-2.3,3.2-4.6,3.4-7.5c0-0.5-0.1-1.1,0.4-1.3c0.4-0.1,0.8,0.1,1,0.4    c0.5,0.9,0.1,3-0.2,4C268.1,151.5,267.5,152.9,266.6,154.2z"/>
		<path class="st0" d="M277.9,159.5c0.5,1,1.3,2.1,2.4,2c-0.1-1.2-0.7-2.4-1.3-3.5c-2.1-4.2-3.3-8.9-3.3-13.7c0-0.7-0.5-3.5-1.8-2.3    c-0.8,0.7-0.2,3.1-0.1,4.1c0.4,3,1.1,6,2.1,8.9C276.5,156.5,277.1,158.1,277.9,159.5z"/>
		<path class="st0" d="M277.7,147.2c-0.1,3.7,0.2,7.3,1.1,10.9c0.3,1.2,0.9,2.5,2.1,2.6c-1.5-4.9-1.9-10.2-1.3-15.3    c0.1-0.7-0.2-6.4-1.8-5.2C276.7,141.3,277.8,146,277.7,147.2z"/>
	</g>
	<path class="st0" d="M417.8,119.9c-2.3,2-4.6,3.9-6.8,5.9l-0.3,0.4c-0.4,0.1-0.7,0.2-1.1,0.3c-0.2,0-0.5,0.1-0.7,0.1   c-0.5,0.4-1,0.7-1.5,1.1c-1.5,1-2.9,1.9-4.4,2.9c-0.5,0.3-1,0.6-1.5,0.9c0.5-0.3,1-0.6,1.5-0.9c1.4-1,2.9-2,4.3-3   c0.5-0.4,1-0.7,1.5-1.1c0.6-0.5,1.3-1,1.9-1.4c0,0,0,0,0,0c0.9-0.8,1.8-1.6,2.6-2.5c2.9-3.4,5.7-6.8,8.5-10.1   c-0.1-0.1-0.1-0.1-0.2-0.2c-3.8,5.2-8.2,9.9-13.4,13.8c-13.2,9.8-28.2,15.2-44,18.7c-2,1.2-4.3,1.9-6.6,2.4c0,0.1,0,0.3,0,0.4   c-0.1,1.4-0.1,2.7-0.1,4.1c1.2-0.2,2.3-0.4,3.5-0.6c0.2-0.2,0.5-0.3,1-0.4c5.9-1.6,11.9-3,17.6-5c15.3-5.5,29.5-12.9,40.2-25.8   c0.4-0.4,0.6-1,0.8-1.5c-0.2-0.1-0.3-0.3-0.5-0.4C419.3,118.6,418.5,119.2,417.8,119.9z M399.9,132.6l-0.2-0.4   c0.5-0.2,1-0.4,1.4-0.6C400.7,131.9,400.3,132.3,399.9,132.6z"/>
	<path class="st0" d="M281.5,154.7c0.5,0,1,0.1,1.7,0.2c0.1,0,0.2,0,0.3,0.1c1.4,0.2,2.8,0.3,4.2,0.4c0.2-0.1,0.5,0,0.8,0.1   c0.1,0,0.2,0,0.3,0c4.6,0.3,9.1,0.6,13.6,0.7c-0.5-0.3-0.9-0.6-1.3-1c-2-1.8-4.2-2.7-7-2.4c-1.8,0.2-3.8,0.3-5.4-1   c0.3-0.5,0.5-1,0.7-1.5c-3.9-0.5-7.7-1.3-11.4-2.5c0.2,2.2,0.4,4.3,0.6,6.5C279.6,154.4,280.6,154.5,281.5,154.7z"/>
	<path class="st0" d="M263.5,149.9c0.6,0.4,1.5,0.7,2.3,0.9c0.4-0.8,0.7-1.6,1.1-2.4c0.2,0.1,0.5,0.2,0.7,0.3   c-0.4,0.7-0.7,1.5-1.1,2.2c1,0.2,2,0.4,2.8,0.6c1.7,0.5,3.4,1.1,5.1,1.6c0.2,0,0.4,0.1,0.6,0.2c0.2,0.1,0.5,0.1,0.7,0.2   c0.6,0.2,1.2,0.3,1.7,0.4c-0.4-1.8-0.9-3.5-1.3-5.3c-0.1-0.5-0.2-1.1-0.3-1.6c-0.1,0-0.2-0.1-0.3-0.1c-0.1,0-0.1,0-0.2-0.1   c-1.8-0.7-3.7-1.3-5.6-2.1c-0.1,0-0.2-0.1-0.4-0.1c-0.4-0.1-0.8-0.3-1.1-0.5c-0.6-0.3-1.2-0.6-1.8-1c-0.2,0-0.4-0.1-0.6-0.1   c-0.8-0.1-1.4-0.4-1.9-0.8c-0.3,0-0.5-0.1-0.8-0.2c-0.2,0-0.4-0.1-0.5-0.2c-5.3-2.3-10.5-4.6-15.8-7c-8-3.6-16-7.3-24.1-10.7   c-7.9-3.2-16.2-4.3-24.6-5.1c-10.1-1-20.2-1.4-30.3,0.2c-2.6,0.4-5.8,0.2-7.4,3.5c3.3,1,6.5-1,9.6-0.4c0,0.2,0,0.3,0,0.5   c-0.5,0.3-0.9,0.6-1.5,1c0.3,0.1,0.4,0.1,0.6,0.2c8.2,0.6,16.5-0.3,24.6,2.1c2.2,0.7,4.6,0.6,6.8,0.8c7.2,0.7,14.4,1.6,21.1,4.5   c13.4,5.8,26.8,11.8,40.1,17.7C262.3,149.2,262.9,149.5,263.5,149.9z"/>
	<path class="st0" d="M306.2,155.2c0,0.3,0.1,0.6,0.1,1c2.6,0,5.2-0.1,7.8-0.2c5.6-0.3,11.2-0.6,16.7-1c0.2-1.8,0.6-3.6,1-5.3   c-1.3,0.1-2.7,0.2-4,0.3c-5.5,0.4-11.2,0.8-16.9,1.1c0.1,0.9,0.3,1.8,0.6,2.6c0.6,1.9-0.9,1.7-1.9,2c-1.5,0.5-1.4-0.6-1.5-1.5   c-0.1-1-0.2-2-0.3-3.1c-0.6,0-1.2,0-1.8,0c-0.3,0.7-0.4,1.4-0.3,2.2C305.9,153.9,306.2,154.5,306.2,155.2z"/>
	<path class="st0" d="M361.9,149.6C361.9,149.6,362,149.7,361.9,149.6c0.2,0.1,0.3,0.1,0.4,0.1c0,0-0.1-0.1-0.1-0.1   C362.1,149.6,362,149.6,361.9,149.6z"/>
	<path class="st0" d="M382.9,172.1c-3.8,1.7-7.5,3.4-11.3,5.2c-0.1-0.2-0.1-0.3-0.2-0.5C375.2,175.2,379,173.6,382.9,172.1   c1.7-1,3.6-1.9,5.4-2.9c5.2-2.8,10.3-5.6,15.4-8.4c-0.1-0.1-0.1-0.1-0.2-0.2c-4,2.1-7.9,4.2-11.9,6.2c-17.9,9-36.3,16.5-56.3,19.5   c-8.4,1.3-16.8,2-25.3,1.8c-10.9-0.3-21.5-2.1-31.9-5.2c-12.2-3.6-24.1-8.1-34.7-15c-10.8-7-21.2-14.8-31.5-22.6   c-6.2-4.7-12.1-9.8-19.2-13.1c-12.9-5.9-26.7-8.3-40.7-9.1c-3.5-0.2-7.1-0.1-10.7-0.1c-1,0.1-2.1,0.2-3.1,0.3   c-3.2,0.3-7,0.5-10.3-0.3c-2.8,0.3-5.6,0.6-8.3,0.7c-2,0.1-3.8,0.8-5.4,1.9c-0.2,0.1-0.3,0.4-0.8,1c3.3,0,6.3,0,9.2,0   c0.7,0,1.3,0.2,2,0.3c0,0.2,0,0.3-0.1,0.5c-0.7,0.2-1.4,0.5-2.4,0.8c0.5,0.2,0.7,0.3,0.8,0.3c9.2,0.8,18.5-0.2,27.7,1.7   c6.1,1.3,12.5,1.4,18.7,2.4c12,1.8,23.1,6.1,32.7,13.7c6.3,5,12.6,10.1,19.1,14.8c22.1,16,46.1,27.6,73.5,31.3   c10.2,1.3,20.3,1.5,30.5,0.5c12.7-1.2,25.1-4.2,37-8.7c12.7-4.9,24.9-10.6,36.6-17.4c0.5-0.3,0.9-0.9,1.4-1.3   c-0.1-0.2-0.2-0.3-0.4-0.5C394.2,167.7,389,171,382.9,172.1z M306.5,192.5c0-0.1-0.1-0.1-0.1-0.2h18.1c0,0.1,0,0.1,0,0.2H306.5z    M326.7,191.9c0,0,0-0.1,0-0.1h1.5c0,0,0,0.1,0,0.1H326.7z M331.3,191.6c-0.2,0-0.4,0-0.6,0c0,0,0-0.1,0-0.1h0.6   C331.3,191.5,331.3,191.6,331.3,191.6z"/>
	<path class="st0" d="M354.1,146.8c-1.3,0.2-2.6,0.4-3.9,0.4c-0.2,0.2-0.5,0.3-0.9,0.3c-3.1,0.4-6.2,0.8-9.9,1.3   c0-0.1,0.1-0.2,0.1-0.3c0,0,0,0-0.1,0c-1.3,0.2-2.6,0.4-3.9,0.6c-0.4,1.4-0.7,2.8-0.8,4.3c0,0.5,0,1-0.1,1.4c0.2,0,0.3,0,0.5,0   c0.5,0,0.9,0,1.4,0c0.4,0,0.8-0.1,1.2-0.1c0.3-0.2,0.7-0.3,1.2-0.4c3.7-0.5,7.4-1,11.2-1.5c0.3,0,0.5,0,0.7,0   c1.2-0.2,2.5-0.5,3.7-0.7c0-1.4-0.2-2.8-0.4-4.2C354.2,147.5,354.2,147.1,354.1,146.8z M341.7,153c0,0,0-0.1,0-0.1   c0.3,0,0.5-0.1,0.8-0.1c0,0.1,0,0.1,0,0.2H341.7z M344.3,152.7l0-0.3h1.7C345.4,152.5,344.9,152.6,344.3,152.7z M348.7,152   c0.5-0.1,0.9-0.3,1.4-0.4c0,0.1,0,0.3,0,0.4H348.7z"/>
	<path class="st0" d="M338.7,153.2C338.7,153.2,338.7,153.3,338.7,153.2c0.2,0.1,0.4,0.1,0.6,0.1c0,0,0,0,0-0.1   C339.1,153.2,338.9,153.2,338.7,153.2z"/>
	<path class="st0" d="M408.8,157.9c-0.8,0.5-1.7,1-2.5,1.5c-0.1-0.1-0.1-0.1-0.2-0.2c0.9-0.5,1.7-0.9,2.6-1.4L408.8,157.9z"/>
	<path class="st0" d="M406.3,159.4c-0.9,0.5-1.7,1-2.6,1.5c-0.1-0.1-0.1-0.1-0.2-0.2c0.9-0.5,1.7-1,2.6-1.4   C406.2,159.2,406.3,159.3,406.3,159.4z"/>
	<path class="st0" d="M408.7,157.7c0.5-0.3,1-0.7,1.5-1c0.1,0.1,0.1,0.2,0.2,0.4c-0.5,0.3-1.1,0.5-1.6,0.8   C408.8,157.9,408.7,157.7,408.7,157.7z"/>
	<path class="st0" d="M422.2,111.1c0.3-0.5,0.6-1.1,0.8-1.6c0.1,0.1,0.2,0.2,0.4,0.2c-0.4,0.5-0.7,1-1.1,1.5   C422.3,111.2,422.2,111.1,422.2,111.1z"/>
	<path class="st0" d="M411,125.8c-0.1,0.1-0.2,0.2-0.3,0.4c-0.3,0-0.5,0-0.8,0c0.3-0.4,0.5-0.8,0.8-1.1c0,0,0,0,0,0   C410.7,125.3,410.8,125.5,411,125.8z"/>
	<path class="st0" d="M413.6,123.2c-0.2,0.2-0.4,0.4-0.6,0.6c-0.1-0.1-0.1-0.1-0.2-0.2c0.2-0.2,0.4-0.4,0.6-0.6   C413.5,123.1,413.5,123.2,413.6,123.2z"/>
	<path class="st0" d="M412.3,155.9c-0.2,0.1-0.4,0.3-0.6,0.4c0-0.1-0.1-0.1-0.1-0.2c0.2-0.1,0.4-0.3,0.6-0.4   C412.2,155.8,412.2,155.8,412.3,155.9z"/>
	<path class="st0" d="M417.7,119c-0.1,0.1-0.2,0.1-0.3,0.2c0,0-0.1-0.1-0.1-0.1c0.1-0.1,0.2-0.1,0.2-0.2   C417.6,118.9,417.7,119,417.7,119z"/>
	<path class="st0" d="M421.4,112.2c0.2-0.4,0.5-0.7,0.7-1.1c0.1,0,0.1,0.1,0.2,0.1c-0.2,0.4-0.5,0.7-0.7,1.1   C421.6,112.3,421.5,112.3,421.4,112.2z"/>
</g>
</svg>