<svg version="1.2" xmlns="http://www.w3.org/2000/svg" viewBox="0 0 446 206" width="517" height="239">
	<style>
		.s0 { fill: #ffffff } 
	</style>
	<g>
		<g>
			<path class="s0" d="m261.1 160.5c0 0 0.2-5.9 1.6-9 1.4-3.1 3.7-7.2 3.8-8 0.1-0.8-2.3-9.4-1.2-14.4 1.1-5 2.1-7.3 0.9-8-1.2-0.7-4 3.6-4 3.6-0.4 1.8 0.1 7.6-0.1 10.5-0.1 2.9-0.6 3.2-0.6 3.2 0 0-0.8-11.3-0.4-13.2 0.4-1.9 1.4-3.2 3.3-5 1.9-1.8 2.5-1.8 3-0.4 0.5 1.4 0.6 6.6 0 10.3-0.6 3.7 1.4 12.9 0.9 14.8-0.5 1.9-5 10.8-6.1 13.2-1.1 2.4-1.1 2.4-1.1 2.4z"/>
			<path class="s0" d="m333.9 89.9c0.8 4.5-1.3 8.9-2.4 13.4-1.5 5.7-1.3 11.9 0.4 17.5 1 3.1 2.4 6.2 2.4 9.5 0 3.6-1.8 6.9-3.2 10.2-2.6 6.2-3.9 13-3.8 19.8 0 0.7 0 1.5 0.4 2.2 0.3 0.7 1 1.2 1.8 1.2 0.2-6.5 0.7-13.2 3-19.3 1.5-3.9 3.9-7.6 4.5-11.8 1-6.8-2.7-13.4-2.7-20.3 0-4.8 1.8-9.3 2.5-14 0.8-4.7 0.3-10.1-3.3-13.3 0.1 0.7 0.1 1.5 0.2 2.2 0.1 0.9 0 1.8 0.2 2.7z"/>
			<path class="s0" d="m338.1 106.8c4 0.4 8-0.6 11.8-1.7 1.2-0.3 2.7-1 2.8-2.2-3.5 0.5-7 1.1-10.5 1-3.5 0-7.1-0.7-10.2-2.4-0.6-0.4-2.9-1.8-3.3-0.5-0.3 0.9 1.6 2.4 2.2 2.9 2.1 1.7 4.7 2.6 7.2 2.9z"/>
			<path class="s0" d="m354.3 77.6c1.5 2.2 1.7 4.9 2.1 7.5 0.7 4.6 1.9 9.1 3.7 13.3 0.4-0.1 0.5-0.7 0.6-1.1 0.2-2.4 0.4-5-0.5-7.3-0.6-1.6-1.6-2.9-2.3-4.4-0.8-1.9-1-4-1.4-6-0.4-2-1.2-4.1-2.8-5.3-1.4-1.1-3.4-1.4-4.6-2.8-0.7-0.8-0.9-1.8-1.4-2.7-0.4-0.9-1.1-1.9-2.1-2-0.8-0.1-1.8 0.1-2.2 0.8-0.8 1.3-1.6 1.7-1.6 2.5 0 0.9-1 2.1-0.1 3.1 0.5 0.6 1.3 0.7 2.1 0.9 0.7 0.2 1.5 0.7 1.6 1.5-0.9 0.1-1.9 0.1-2.8 0.2 0.4 0.8 0.8 1.7 1.6 2.2 0.8 0.5 2 0.5 2.4-0.3 0.3-0.4 0.3-1 0.4-1.4 0.1-0.4 0.7-0.9 1.1-0.6 0.3 0.1 0.2 0.6 0.1 0.8-0.2 0.3-0.5 0.5-0.5 0.8-0.1 0.5 0.7 0.8 1.1 0.6 0.5-0.2 0.7-0.7 0.9-1.2 0.1 1.2-0.4 2.5-1.4 3.3-0.9 0.8-2.2 1.2-3.4 1-1.3 4.5-2.1 9.2-2.4 13.9-0.4 0.3-0.9 0-1.2-0.4-0.2-0.4-0.2-0.9-0.2-1.4 0.1-2.7 0.1-5.5 0.8-8.1 0.3-1.2 0.8-2.4 0.9-3.6 0.1-1.2 0.1-2.6-0.6-3.6-0.4-0.6-1-1.1-1.5-1.7-0.6-0.9-0.8-2.1-0.9-3.2-0.2-2.1-0.7-3.9 0-5.9 0.4-1.2 1-0.5 2.4-3.1 0.4-0.7 1.5-1.2 2.5-1.1 1.6 0.1 3.2 0.8 4.2 2 1 1.3 1.5 2.9 1.6 4.5 0.1 0.7 0.1 1.4 0.4 2 0.5 0.9 1.6 1.2 2.4 1.6 2.3 1.1 4.1 3.4 4.6 5.9 0.2 1.3 0.2 2.7 0.5 4 0.7 2.9 3.3 5 4.5 7.7 0.9 2.2 0.9 4.7-0.1 6.8-0.4 0.9-1 1.7-2 1.9-1 0.2-1.9-0.5-2.6-1.2-2.2-2.2-3.3-5.3-4-8.4-0.6-3.1-0.8-6.3-1.6-9.3-0.4-1.8-1.3-3.8-3-4.5-0.5-0.2-1-0.3-1.3-0.6-1.5-1.5 2-0.7 2.4-0.5 1.5 0.6 2.8 1.6 3.6 2.9z"/>
			<path class="s0" d="m350.9 79.7c-0.9 2.8-0.3 6.1 1.6 8.4 0.5 0.7 1.2 1.4 0.9 2.2-0.2 0.6-0.8 0.9-1.3 1.2-1 0.7-1.7 1.8-2 3-0.4 1.2-0.4 2.5-0.5 3.7-0.1 1.2-0.1 2.5-0.2 3.7-0.1 0.9 0 2 0.9 2.3 0.6 0.2 1.2-0.2 1.5-0.7 0.3-0.5 0.3-1.2 0.2-1.8-0.1-0.6-0.3-1.2-0.3-1.8-0.2-3.4 3.6-5.9 3.6-9.3 0-2.6-2.3-4.7-2.6-7.3-0.2-1.3 0.2-2.6 0.2-3.9 0-0.6-0.3-2.6-1.2-2.8-0.7-0.1-0.3 0.7-0.3 1.1 0 0.7-0.3 1.4-0.5 2z"/>
			<path class="s0" d="m334.5 149.3c0.4-1.9 0.9-3.9 1.8-5.6 1.1-2 2.6-3.8 3.5-5.8 2.5-5.7-0.1-12.5 2-18.3 0.7-2 2-3.7 3.7-5.1 0.3 2.7 2 5 3.7 7.1 1.7 2.1 3.7 4.1 4.7 6.7 1.5 3.9 0.6 8.2 0.2 12.4-0.6 5.6-0.4 11.2-0.3 16.8 0 0.9 0.2 2.1 1.1 2.5 0.3 0.1 0.6 0.1 0.9 0.3 0.4 0.3 0.5 0.9 0.3 1.3-0.2 0.4-0.7 0.7-1.1 0.9-1.5 0.4-3-0.6-3.7-1.9-0.7-1.3-0.8-2.9-0.9-4.4-0.3-6.1-0.6-12.2 0.4-18.2 0.4-2.7 1-5.5 0.4-8.1-0.9-3.4-3.8-5.9-6.6-8.1 0.3 5.4 0.7 10.9-0.7 16.1-1 3.7-2.9 7.2-4.5 10.7-1.6 3.5-3 7.3-2.8 11.2 0.1 1.1 0.4 3.8-1.3 4.1-1.6 0.3-1.4-2.3-1.5-3.3-0.4-3.8-0.1-7.6 0.7-11.3z"/>
			<path class="s0" d="m351.2 116.3c2.1 3.4 4.7 6.4 6.7 9.8 0.6 1.1 1.3 2.2 1.4 3.4 0.2 1.6-0.5 3.2-1 4.8-2.4 7.4-1.8 15.4-1.2 23.1 0.1 0.8 0.2 1.7 0.9 2 0.8 0.4 1.7-0.2 2.1-1 0.3-0.8 0.2-1.7 0.1-2.6-0.8-6-0.4-12.1 0.9-18 0.6-2.6 1.4-5.3 1.3-8-0.1-2.1-0.8-4.1-1.6-6-1.6-3.8-3.7-7.3-6.2-10.4-1.3-1.6-2.7-3.2-3.6-5-0.5-1 0.5-5.7-2.1-4.2-3.2 1.9 1.1 10.2 2.3 12.1z"/>
			<path class="s0" d="m345 61.7c0.1-0.7 0.8-1.3 1.5-1.2 0.5 0.1 0.8 0.5 1.2 0.9 0.6 0.8 1.3 1.6 1.9 2.4 0.9 1.1 1.8 2.2 3 2.8 1.1 0.5 2.4 0.6 3.6 0.6 1.6 0 3.1 0 4.7 0 0.4 0 0.9-0.2 0.9-0.6-0.1-0.3-0.5-0.4-0.8-0.3-0.3 0.1-0.6 0.2-0.9 0.1-0.3-0.1-0.4-0.5-0.6-0.7-0.5-0.5-1.3-0.2-2 0-1.5 0.5-3.2 0.3-4.7-0.4-1.5-0.7-2.6-2-3.2-3.4-0.4-0.9-0.5-2-1.1-2.8-0.6-0.8-1.9-1.3-2.6-0.7-0.3 0.2-0.4 0.6-0.6 0.8-0.7 1-2.2 1.2-3.3 0.8-1.1-0.5-1.9-1.5-2.2-2.7-0.2-0.7-0.2-1.6-0.9-1.9-0.7-0.4-1.5 0.3-2.2 0.7-0.8 0.6-1.9 0.9-2.9 1-0.3 0-0.6 0-0.8-0.1-0.2-0.1-0.4-0.4-0.4-0.6 0.1-0.3 0.4-0.5 0.8-0.6 0.9-0.3 1.9-0.7 2.8-1 1.1-0.4 2.4-0.8 3.4-0.2 0.7 0.4 1.1 1.1 1.4 1.8 0.3 0.7 0.7 1.4 1.3 1.9 0.6 0.5 1.5 0.6 2.1 0.1 0.3-0.3 0.4-0.6 0.6-0.9 0.7-0.9 2.1-0.9 3.1-0.4 1 0.6 1.6 1.6 2 2.7 0.5 1 0.9 2.1 1.6 3 1 1.2 2.5 1.9 4.1 2 1.6 0.1 3.1-0.5 4.4-1.4 0.3-0.2 0.9-0.5 1.1-0.2 0.2 0.3 0 0.6-0.3 0.8-0.2 0.2-0.5 0.5-0.5 0.8 0 0.3 0.3 0.4 0.5 0.5 0.2 0.1 0.5 0.1 0.8 0.1 0.5 0.1 0.9 0.5 1.1 1.1 0.1 0.5-0.1 1.1-0.5 1.4-0.5 0.5-1.3 0.4-2.1 0.4-1.8-0.1-3.7-0.2-5.5-0.3-1.7-0.1-3.4-0.2-5-0.9-1.3-0.5-2.4-1.4-3.4-2.4-0.4-0.3-0.9-0.7-1.1-1.1-0.4-0.5-0.4-1.4-0.3-1.9z"/>
			<path class="s0" d="m348.4 49.7c-0.3-0.2-0.6-0.3-0.9-0.5-0.3-0.3-0.5-0.7-0.6-1.1-0.1-0.4-0.3-0.8-0.7-1-0.4-0.2-0.9-0.1-1 0.3-0.1 0.5 0.5 0.9 0.4 1.3 0 0.4-0.4 0.6-0.8 0.6-0.4 0-0.7-0.2-1-0.4-0.3-0.2-0.7-0.3-1-0.2-0.3 0.1-0.5 0.2-0.7 0.4-0.2 0.1-0.5 0.2-0.7 0.1-0.3-0.2-0.4-0.7-0.2-1 0.2-0.3 0.6-0.4 0.9-0.5 0.5-0.1 1-0.2 1.5-0.1 0.3 0 0.6 0 0.8-0.2 0.1-0.2 0.1-0.5-0.1-0.6-0.2-0.2-0.4-0.2-0.6-0.3-0.9-0.2-1.9-0.2-2.7 0.2-0.8 0.5-1.4 1.4-1.2 2.3-0.6 0.2-1.4 0.2-2.1 0.1-0.7-0.1-1.4-0.2-2.1 0-0.7 0.2-1.3 0.8-1.2 1.5 0.4 0.2 0.8 0 1.1-0.2 0.3-0.2 0.7-0.5 1.1-0.5 0.6-0.1 1.2 0.3 1.7 0.5 0.7 0.3 1.1 0.2 1.8 0.1 0.6 0 1.1 0.6 0.7 1.1-0.2 0.4-0.8 0.5-1.2 0.3-0.4-0.1-0.8-0.4-1.2-0.6-0.4-0.2-0.8-0.4-1.3-0.3-0.3 0.1-0.5 0.3-0.4 0.6 0 0.1 0.1 0.2 0.2 0.3 0.5 0.5 1 1 1.7 1.2 0.7 0.2 1.5 0.1 1.9-0.4 0.1-0.2 0.2-0.4 0.4-0.5 0.3-0.3 0.9-0.1 1.1 0.3 0.2 0.4 0.1 0.9-0.2 1.2q-0.45 0.45-1.2 0.6c-0.2 0.1-0.5 0.1-0.7 0.2-0.2 0.1-0.4 0.3-0.5 0.6 0 0.3 0.2 0.6 0.5 0.7 0.3 0.1 0.6 0.1 0.9 0.1 0.3 0 0.6 0 0.9-0.1 0.3-0.1 0.6-0.3 0.7-0.6 0.1-0.2 0-0.5 0.2-0.7 0.2-0.4 0.7-0.4 1.1-0.2 0.4 0.2 0.7 0.5 1 0.8 0.3 0.3 0.7 0.5 1.1 0.4 0.4-0.1 0.7-0.5 0.7-0.9 0.1-0.4 0-0.8 0-1.2 0-0.4 0.1-0.9 0.4-1.2 0.2-0.2 0.4-0.3 0.5-0.6 0-0.2 0-0.4 0-0.5 0.2-0.5 1-0.3 1.2-0.7 0.2-0.2 0-0.6-0.2-0.7zm-3.3 4.3c-0.3 0.3-0.8 0.3-1.1 0.1-0.3-0.2-0.6-0.5-0.8-0.9-0.4-0.6-0.6-1.3-0.8-2-0.1-0.3-0.1-0.6-0.1-0.8 0.2-1.3 1.9-0.1 2.4 0.5 0.4 0.6 0.6 1.4 0.7 2.2 0 0.3 0 0.7-0.3 0.9z"/>
			<path class="s0" d="m324.5 46.8c0.1 2.5 1.2 5 3.1 6.6 1.9 1.6 4.5 2.4 7 2.1-0.4 1-0.8 2-1.3 3-0.5 0.8-1.4-1.9-2.6-2.3-1.2-0.4-2.5-0.5-3.4-1.3-1.6-1.3-1.8-4-3.6-5-0.7-0.4-1.6-0.5-2.1-1.1-0.2-0.3-0.3-0.6-0.6-0.7-0.3 0-0.5 0.3-0.5 0.6 0 0.3 0.3 0.6 0.5 0.8 1.5 1.6 3.5 2.8 4.6 4.6 0.8 1.3 1.8 2.5 3.2 3.2 1 0.5 2.2 0.7 3.4 0.8 1.6 0.2 3.2 0.2 4.6 1 1.4 0.8 2.4 2.5 1.7 4-0.3 0.7-1 1.2-1.4 1.8-0.4 0.6-0.6 1.7 0.1 2.1 0.8 0.5 2.1-0.1 2.6 0.7 0.3 0.5 0 1-0.3 1.5-1.1 1.9-1.7 4.1-1.8 6.3 0 0.6-0.2 1.4-0.8 1.4-0.4 0-0.7-0.5-0.8-0.9-0.5-2.3 1.8-4.6 1.1-6.8-0.3-1-1.1-1.7-1.9-2.2-0.6-0.4-1.3-0.9-1.2-1.5 0-0.6 0.5-1 1-1.3 0.5-0.3 1-0.5 1.4-0.9 0.7-0.8 0.3-2.1-0.4-2.8-0.8-0.7-1.9-0.8-2.9-0.9-1-0.1-2.1 0.1-3.1-0.2-1.7-0.4-3.1-1.8-4.2-3.2-1.1-1.4-1.9-3.1-3.2-4.3-0.9-0.9-2-1.7-2.5-2.8-0.3-0.8-0.1-1.8 0.7-2 0.7-0.1 1.2 0.5 1.6 1 0.3 0.4 0.9 1.2 1.5 1-0.2-0.9-0.2-1.7 0.5-2.3z"/>
			<path class="s0" d="m346.4 68.7c0 0.2-0.1 0.4-0.1 0.6 0 0.2 0 0.4 0.2 0.5 0.1 0.2 0.4 0.2 0.6 0.1q0.3-0.15 0.6-0.3c0.3-0.2 0.6-0.5 0.7-0.8 0.5-0.9 0-2.2-1.1-2.5-1.5-0.3-0.7 1.7-0.9 2.4z"/>
			<path class="s0" d="m348.6 72.1c0 0.1 0 0.2 0 0.2 0.1 0.2 0.3 0.2 0.5 0.1 0.3-0.1 0.6-0.4 0.8-0.7 0.1-0.3 0.2-0.7 0.1-1-0.1-0.5-0.5-1.4-1-0.8-0.4 0.5-0.4 1.6-0.4 2.2z"/>
			<path class="s0" d="m347.9 72.8c0-0.2 0.1-0.5 0.3-0.6 0.2 0 0.4 0.2 0.5 0.4 0.2 0.7-0.1 1.4 0 2.2 0.1 0.3 0.2 0.7 0.1 1-0.1 0.4-0.5 0.7-0.8 0.9-0.6 0.4-0.5-0.8-0.5-1.2 0.1-0.9 0.3-1.8 0.4-2.7z"/>
			<path class="s0" d="m348.9 70c-0.2 0.7-0.4 1.5-0.6 2.2 0.8-0.1 1.5 0.4 2.2 0.9 1.7 1.4 3.5 2.7 5.2 4.1 0.5-0.8 0.2-1.9-0.5-2.5-0.7-0.7-1.5-1-2.3-1.5-1.4-0.8-2.6-2.1-3.3-3.5-0.1-0.1-0.4-0.1-0.6 0-0.2 0.1-0.1 0.2-0.1 0.3z"/>
			<path class="s0" d="m349 63.9v0.1c0 0.1 0.1 0.1 0.1 0.1 0 0 0.1 0 0.2 0 0.3-0.1 0.7-0.2 0.9-0.5 0.2-0.2 0.3-0.5 0.3-0.8 0-0.2-0.1-0.7-0.4-0.7-0.3 0-0.5 0.5-0.6 0.7-0.1 0.4-0.3 0.7-0.5 1.1z"/>
			<path class="s0" d="m330 78.4c-1.9 1.6-3.4 3.6-4.7 5.7-0.3 0.5-0.6 1-0.7 1.6-0.1 0.5 0 1 0 1.5-0.1 1.2-1.1 2.1-1.9 3-2.3 2.6-3.3 6.1-3.5 9.6-0.1 3.5 0.5 6.9 1.3 10.3 0.5 0.4 1.3 0 1.5-0.6 0.3-0.6 0.2-1.2 0.1-1.8-0.6-4.9-0.7-10.2 1.7-14.6 1.3-2.5 3.3-4.5 4.9-6.8 1.1-1.6 1.9-3.3 3.2-4.8 1.2-1.5 2.9-2.8 4.8-2.9 1-0.1 2.2 0.3 2.7 1.2 0.3 0.7 0.1 1.6 0 2.4-0.6 2.9-0.4 6 0.4 8.8 0.4 1.5 1.3 3.1 2.8 3.5-1.5-2.5-2.2-5.5-1.9-8.4 0.1-1.4 0.5-2.7 0.5-4 0.1-1.4-0.2-2.8-1-3.8-0.2-0.3-0.5-0.5-0.7-0.9-0.2-0.4-0.2-0.8 0.1-1 0.2-0.2 0.4-0.2 0.7-0.3 0.7-0.4 0.8-1.4 0.6-2.3-0.2-0.8-0.5-1.7-0.2-2.5-0.4-0.3-1 0-1.3 0.4-0.2 0.5-0.2 1-0.1 1.5 0.1 0.5 0.2 1 0.1 1.5-0.4 2.2-2.7 0.6-4 0.8-2.1 0.6-3.9 1.7-5.4 2.9z"/>
			<path class="s0" d="m328.6 89.2c0.5 0.5 1.3 0.4 1.9 0.1 0.6-0.3 1.1-0.8 1.7-1.2 0.6-0.4 1.4-0.6 2-0.2-0.3 1.6-1.9 2.6-3.1 3.7-2.6 2.2-4.2 5.2-5.3 8.4-1.1 3.2-1.5 6.5-2 9.8-0.2 1.1-0.3 2.2-0.1 3.3 0.3 1.4 1.2 2.7 1.5 4.1 0.1 0.3 0.1 0.6 0 0.8-0.1 0.2-0.5 0.4-0.7 0.2-0.5-0.9-1.1-1.9-1.6-2.8-0.4 0.3-0.5 0.9-0.5 1.5 0 0.5 0.2 1.1 0.1 1.6-0.1 0.5-0.5 1.1-1 1-0.6-0.1-0.9-0.8-1-1.5-0.3-2.4 0-4.8 0.9-7.1-1.2 0.3-2.3 1.2-2.9 2.3-0.5 1.1-0.5 2.5 0 3.7 0.1 0.3 0.3 0.6 0.3 0.9 0 0.3-0.2 0.7-0.5 0.7-0.2 0-0.4-0.1-0.5-0.2-1.4-1.2-1.9-3.3-1.2-5 0.9-2.1 3.3-3.1 4.5-5.1 1.1-1.8 0.9-4.1 1.1-6.3 0.3-3.7 1.7-7.3 4.1-10.2 0.5-0.6 1-1.4 0.7-2.1-0.3-0.6-1.6-1.2-0.5-1.8 1.4-0.6 1.6 0.8 2.1 1.4z"/>
			<path class="s0" d="m292.8 72.9c-0.7 1.3-0.5 3.1-1.6 4.2-1.2 1.2-3.3 0.8-4.7 1.9-1.5 1.2-1.3 3.6-0.8 5.5-1.7-0.5-3.7 0.4-4.5 2.1-0.8 1.7-0.1 3.7 1.4 4.7 1 0.6 2.4 0.9 2.7 2.1 0.2 0.8-0.2 1.5-0.6 2.2-2.1 3-5.8 5.1-7 8.6-0.7 2.1-0.4 4.3-0.1 6.4 0.7 4.8 1.3 9.5 2 14.3 1.6-3.1 1.2-6.9 0.7-10.4-0.5-3.5-1-7.2 0.4-10.4 1.2-2.8 3.7-4.8 5.8-7 2.3-2.4 4.2-5 6.2-7.7 0.2-0.2 0.3-0.5 0.4-0.7 0.2-0.8-0.9-1.5-1.7-1.4-0.8 0.2-1.5 0.8-2.1 1.5 1.1-2.1 3.5-3.2 5.6-4.3 2.1-1.1 4.4-2.6 5-4.9 0.2-0.7 0.2-1.4 0.4-2.1 0.2-0.7 0.8-1.3 1.5-1.3 0.3 0 0.6 0.1 0.9 0.1 0.3 0 0.6-0.2 0.6-0.5 0-0.2-0.2-0.3-0.3-0.4-1.1-0.8-2.8-0.4-3.8 0.5-1 1-1.5 2.3-1.9 3.6-0.5 1.3-1 2.7-2 3.6-2 1.8-5.6 1.7-6.7 4.1-0.4 0.8-0.4 1.8-0.6 2.7-0.2 0.9-0.9 1.8-1.9 1.8-1 0-1.6-1.2-1.4-2.2 0.2-1 0.9-1.7 1.7-2.4 0.8-0.7 1.5-1.3 2-2.1 0.5-1 0.5-2.3 1-3.3 0.9-1.8 3.4-2.4 4.3-4.2 0.5-1.1 0.4-2.3 0.9-3.4 0.4-0.7 2.8-1.7 1.7-2.3-1.2-1.1-3 0.3-3.5 1.1z"/>
			<path class="s0" d="m293.6 78.1c-0.8 1.5-2 2.7-2.9 4-0.9 1.3-1.8 3-1.4 4.6 0.6 0 1-0.4 1.3-0.9 0.3-0.5 0.4-1 0.7-1.5 0.6-1.3 1.8-2.1 2.9-3 1.1-0.9 2.1-2 2.3-3.4 0.1-0.6-0.2-2.3-1.1-2.2-0.9 0-1.5 1.8-1.8 2.4z"/>
			<path class="s0" d="m298.5 72.3c1.3 0.4 2.6 0.7 3.9 0.7-0.6 1.9-1.3 4 0 5.7 0.3 0.4 0.5 0.9 0.5 1.4 0.1 1.7-1.6 1.9-2.8 2.3-1.4 0.6-2.5 1.9-2.8 3.4-0.3 1.5 0.2 3.1 1.3 4.2 0.7 0.7 1.7 1.1 2.5 1.7 1.5 1.1 2.5 2.8 3.3 4.6 0.8 1.8 1.3 3.6 2 5.3 2.2 5.1 6.6 9.2 11.8 11.1 0.2-0.7-0.1-1.4-0.5-1.9-0.4-0.5-1-0.9-1.5-1.3-4.5-3.3-7.7-8.3-8.8-13.8-0.3-1.4-0.4-2.7-0.9-4-0.5-1.3-1.4-2.5-2.7-3-1.2-0.4-2.5-0.2-3.6-0.9-0.3-0.2-0.6-0.5-0.8-0.8-0.6-1.1 0.3-2.1 1.2-2.5 0.7-0.3 1.6-0.5 2.3-0.8 1.6-0.6 1.3-0.7 1.5-2.5 0.2-1.8 0.2-4.8-1.2-5.8 0.7-0.8 0.8-2.1 0.3-3-1-2-3.3-2-5-1.1-0.5 0.2-0.5 0.9 0 1z"/>
			<path class="s0" d="m290.9 95.7c-4.4 1.9-7.9 5.9-9.3 10.5-2.1 7.2 0.8 15.1-0.4 22.5-0.1 0.5-0.1 1.2 0.4 1.3 0.4 0.1 0.6-0.3 0.8-0.6 2.1-3.6 1.7-8.2 1.3-12.4-0.5-4.2-0.9-8.7 1.1-12.4 2.2-4.1 6.8-6.2 11.3-7.2 2.2-0.5 4.9-0.7 6.2 1.2 0.9 1.3 0.6 3 0.3 4.5-0.8 4.4-1.8 8.7-1.9 13.2-0.1 4.4 0.8 9 3.4 12.7 2 2.9 5.1 5.2 6.1 8.6 0.8 2.8 0.1 5.9 0 8.8-0.1 3.1 0.4 6.2 1.6 9 0.7-3.9 1.5-7.8 1.5-11.7 0-3.9-0.6-8-2.6-11.4-1.5-2.6-3.7-4.8-4.9-7.6-1.3-3.1-1.3-6.6-1.2-10 0-4.7 0.2-9.4 0.3-14.1 0-1.6 0.7-4-0.8-4.9-1.7-1-4.2-1.2-6.1-1.3-2.5-0.1-4.9 0.4-7.1 1.3z"/>
			<path class="s0" d="m304.5 99.1c-0.3 3-0.5 6.3 1.1 8.8 1 1.5 2.5 2.6 4 3.7 2.5 1.8 5.4 3.6 8.5 3.2-0.1-0.9-0.9-1.6-1.7-1.9-0.8-0.3-1.8-0.4-2.6-0.6-1.5-0.5-2.7-1.6-3.8-2.7-3-3.4-5-7.6-5.6-12.1-0.3 0.6 0.2 0.8 0.1 1.6z"/>
			<path class="s0" d="m290.2 108.3c-1 3.4-2.4 6.6-2.7 10.1-0.6 7.5 4.2 14.9 2.7 22.3-0.6 2.9-2.1 5.5-3.3 8.2-2.8 6.2-4 13.1-3.5 19.8 0.1 0.7 0.5 1.7 1.2 1.5 0.4-0.1 0.6-0.5 0.7-0.9 1.3-3.3 3.4-6.4 4.7-9.6 0.8-2 2.8-5 0.5-6.5-2.9 3.1-5 6.9-5.8 11.1 1.4-7.9 8.3-16.1 9.4-25.6 1-8.9-4.6-19.5-2.5-28.2 0.6-2.5 1.8-4.8 2-7.3 0.2-2.2-0.8-5.7-3.4-6.1-0.6 0.8 0.1 1.6 0.4 2.4 0.3 0.9 0.5 1.9 0.5 2.9 0 2-0.3 4.1-0.9 5.9z"/>
			<path class="s0" d="m291.8 151.5c2.1 0.3 4.3-0.1 6.1 1 0.9 0.5 1.6 1.4 2.4 2 2.1 1.5 5.1 1.4 7.5 0.4 1-0.4 2-1 3.1-1.1 1.1-0.1 4-0.6 4.2 0.5 0.2 0.9 0.3 2.5-0.5 3-0.7 0.5-3.3 1.6-4.2 1.7-2.8 0.4-5.9 1.9-8.6 0.8-1.4-0.6-3.4-2.6-4.9-3.1-1.8-0.6-3.6-0.3-5.5-0.6-1.6-0.2-7.7-5.5-7.7-6.6 0.2-1.7 7.1 1.9 8.1 2z"/>
			<path class="s0" d="m305.8 152.4c0 1.3 0.4 2.6 0.7 3.9 0.6 2.3 1.3 4.7 2.3 6.9 1 2.2 2.4 4.3 4.3 5.7 0.3 0.3 0.8 0.5 1.2 0.3 0.4-0.3 0.2-0.9 0-1.3-1.1-2-2.1-4.1-3.2-6.1-0.8-1.5-1.6-3.1-2-4.8-0.2-0.7-0.7-0.9-1-1.5-0.4-0.9-0.4-3.3-1.5-6.4-0.4-1.2-0.8 2.4-0.8 3.3z"/>
			<path class="s0" d="m311.5 159.3c0.5 3.2 1.6 6.3 3.7 8.8-0.2-2.1-0.4-4.2-0.5-6.4-0.1-1.7-0.3-3.3-0.8-4.9-0.5-1.7-1.5-3.4-1.5-5.2 0-0.5 0.1-2.7-0.9-1.9-0.6 0.5-0.4 2.3-0.4 3 0 2.3 0 4.5 0.4 6.6z"/>
			<path class="s0" d="m261 107.4c0.7-0.7 1.7-1.1 2.7-1 0.4 0 0.9 0.2 1.3 0.2 0.4 0 0.9-0.1 1.2-0.4 0.2-0.3 0.3-0.7 0.4-1 0.4-1.2 1.9-1.9 3.1-1.5 0.2 0.1 0.4 0.2 0.5 0.3 0.2 0.4-0.1 0.8-0.5 0.9-0.4 0.1-0.8 0.1-1.2 0.2-0.4 0.1-0.8 0.4-0.7 0.8 0.1 0.5 0.7 0.5 1.2 0.4 0.4-0.2 0.9-0.4 1.4-0.3 0.4 0.1 0.6 0.4 0.9 0.5 0.3 0.2 0.8 0.1 0.9-0.2 0.1-0.3-0.2-0.6-0.5-0.7-0.3-0.1-0.6-0.2-0.8-0.4-0.3-0.4-0.1-1 0.4-1.2 0.5-0.2 1 0 1.4 0.3 1 0.7 1.4 1.8 1.8 2.9 0.3 0.9 0.6 1.8 0.4 2.7-0.2 0.7-0.7 1.2-1.2 1.7-0.7 0.7-1.4 1.4-2 2.1-0.2 0.2-0.4 0.4-0.7 0.5-0.7 0.2-1.2-0.6-1.1-1.3 0.1-0.7 0.6-1.2 1.1-1.7 0.5-0.5 0.9-1.1 0.9-1.8 0-0.7-0.6-1.3-1.2-1.7-0.6-0.4-1.4-0.7-1.9-0.2-0.6 0.5-0.5 1.4-0.9 2-0.4 0.5-1.2 0.6-1.8 0.9-0.7 0.3-1.2 0.9-1.7 1.5-0.7 0.8-1.3 1.5-2 2.3-0.2 0.2-0.3 0.4-0.5 0.5-0.2 0.1-0.5 0.1-0.7-0.1-0.2-0.3 0-0.7 0.2-0.9 0.7-0.8 1.4-1.7 2.1-2.5 0.3-0.4 0.7-1.1 0.2-1.4-0.2-0.2-0.6-0.2-0.6-0.5 0-0.2 0.3-0.3 0.5-0.3 0.5 0 0.9 0.2 1.4 0.4 0.7 0.2 1.9 0.2 1.9-0.8 0-0.6-0.3-0.7-0.9-0.8-0.7 0-1.4 0.1-2 0.1-0.4-0.1-2.7-0.7-3-0.5z"/>
			<path class="s0" d="m270 109.1c0.1 0.4 0.3 0.8 0.4 1.2 0 0.2 0.1 0.4 0 0.6-0.1 0.4-0.5 0.6-0.8 0.8-0.7 0.3-1.5 0.6-2.1 1.1-0.4 0.3-0.7 0.6-1.1 0.8-0.4 0.2-0.9 0.4-1.3 0.2-0.1-0.6 0.4-1.1 0.9-1.4 0.5-0.3 1.1-0.4 1.6-0.7 0.8-0.4 0.9-0.9 0.9-1.7 0.1-0.9 0.3-0.4 1-0.2-0.2-0.3 0.4-1 0.5-0.7z"/>
			<path class="s0" d="m264.6 115.3c-1.3 1.7-2.6 3.3-3.9 5-0.9 1.1-1.8 2.3-2.1 3.6-0.5 2 0.3 4.2 0.6 6.3 0.3 1.7 0.2 3.5-0.1 5.1-0.1 0.6-0.3 1.3-0.2 1.9 0.1 0.6 0.7 1.2 1.3 1.1 0-2.8 0.1-5.5 0.1-8.3 0-0.7 0-1.4 0.2-2.1 0.2-0.8 0.7-1.5 0.6-2.3-0.4 0.1-0.8 0.2-1.2 0.2-0.2-0.5-0.1-1.2 0.1-1.7 0.2-0.5 0.6-1 1-1.5 1.8-2.2 3.7-4.4 5.5-6.6 0.5-0.6 1.8-1.9 0.5-2.4-0.9-0.4-1.9 1-2.4 1.7z"/>
			<path class="s0" d="m274.1 117.7c-1.6 0.7-3.3 1.4-4.9 0.8-0.4-0.1-0.8-0.4-1.2-0.5-0.4-0.1-0.9-0.2-1.3 0-0.4 0.2-0.6 0.7-0.4 1.1 0.2 0.4 0.8 0.5 1.3 0.5 1.8 0 3.5 0 5.3 0 0.7 3.5-0.4 7-0.5 10.5-0.1 1.6 0.1 3.3 0.7 4.9 0.3 0.9 0.7 1.7 1.2 2.5 0.3 0.7 0.7 1.3 1.3 1.8 0.6 0.5 1.5 0.6 2.1 0.2-3.2-3.8-4.4-9.1-3.3-13.9 0.1-0.2 0.1-0.4 0.3-0.6 0.2-0.1 0.5-0.1 0.7 0.1 0.2 0.2 0.3 0.4 0.5 0.6 1.2 2 3.3 3.4 5.6 3.7 0.2 0 0.4 0 0.6-0.1 0.1-0.2 0.1-0.4-0.1-0.6-0.1-0.1-0.3-0.2-0.5-0.3-2.8-1.1-5.2-3.3-6.5-6.1-0.4-0.8-0.6-1.7-0.5-2.6 0.1-0.7 0.5-1.2 0.7-1.9 0.5-1.7-0.6-3.6-2.3-4-0.4-0.1-1-0.1-1.4-0.5-0.2-0.2-0.3-0.8-0.4-0.9-0.3-0.2-0.9 0.4-0.9 0.7-0.2 0.8 1 1.6 1.5 2.1 0.2 0.4 2.2 2.6 2.4 2.5z"/>
			<path class="s0" d="m277.7 126.7c0.1 0.3 0.3 0.7 0.7 0.8 0.2 0 0.5-0.1 0.7-0.2 0.8-0.3 1.6 0 2.4 0.3 0.3-0.2 0.2-0.7 0-1-0.2-0.3-0.6-0.4-1-0.5q-0.6-0.15-0.9-0.6c-0.2-0.5 0-1.2-0.4-1.5-0.3-0.3-0.7-0.2-1.1-0.3-0.8-0.2-1.2-1.1-1.5-1.9-0.4-1-0.7-2-1.1-3-0.2-0.6-0.3-1.5-0.8-1.9-0.6 0.7-0.1 2.5 0.2 3.2 0.4 1.1 0.9 2.2 1.3 3.3 0.5 0.9 1.5 2.4 1.5 3.3z"/>
			<path class="s0" d="m264.1 142.4c-0.3-0.1-0.7-0.3-0.8-0.6-0.2-0.3-0.2-0.8 0.2-0.9 0.4-0.2 0.8 0.1 1.1 0.3 0.8 0.4 1.8 0.3 2.7 0 0.9-0.3 1.8-0.7 2.7-0.6 1.3 0.1 2.6 1 3.9 0.9 1.8-0.2 2.8-2.2 4.5-2.8 0.7-0.3 1.7-0.1 1.9 0.6 0.2 0.6-0.2 1.2-0.6 1.6-1.6 1.4-4 1.6-6.1 1.8-3.2 0-6.6 0.8-9.5-0.3z"/>
			<path class="s0" d="m266.6 154.2c-1 1.3-2.3 2.5-2.6 4.2-0.3 1.2 0.1 2.6-0.4 3.7-0.2 0.5-0.6 0.9-1.1 0.9-0.5 0-0.9-0.7-1-1.2-0.6-2.6 0.8-5.1 2.2-7.3 1.5-2.3 3.2-4.6 3.4-7.5 0-0.5-0.1-1.1 0.4-1.3 0.4-0.1 0.8 0.1 1 0.4 0.5 0.9 0.1 3-0.2 4-0.2 1.4-0.8 2.8-1.7 4.1z"/>
			<path class="s0" d="m277.9 159.5c0.5 1 1.3 2.1 2.4 2-0.1-1.2-0.7-2.4-1.3-3.5-2.1-4.2-3.3-8.9-3.3-13.7 0-0.7-0.5-3.5-1.8-2.3-0.8 0.7-0.2 3.1-0.1 4.1 0.4 3 1.1 6 2.1 8.9 0.6 1.5 1.2 3.1 2 4.5z"/>
			<path class="s0" d="m277.7 147.2c-0.1 3.7 0.2 7.3 1.1 10.9 0.3 1.2 0.9 2.5 2.1 2.6-1.5-4.9-1.9-10.2-1.3-15.3 0.1-0.7-0.2-6.4-1.8-5.2-1.1 1.1 0 5.8-0.1 7z"/>
		</g>
		<path class="s0" d="m417.8 119.9c-2.3 2-4.6 3.9-6.8 5.9l-0.3 0.4c-0.4 0.1-0.7 0.2-1.1 0.3-0.2 0-0.5 0.1-0.7 0.1-0.5 0.4-1 0.7-1.5 1.1-1.5 1-2.9 1.9-4.4 2.9q-0.75 0.45-1.5 0.9 0.75-0.45 1.5-0.9c1.4-1 2.9-2 4.3-3 0.5-0.4 1-0.7 1.5-1.1 0.6-0.5 1.3-1 1.9-1.4 0.9-0.8 1.8-1.6 2.6-2.5 2.9-3.4 5.7-6.8 8.5-10.1-0.1-0.1-0.1-0.1-0.2-0.2-3.8 5.2-8.2 9.9-13.4 13.8-13.2 9.8-28.2 15.2-44 18.7-2 1.2-4.3 1.9-6.6 2.4 0 0.1 0 0.3 0 0.4-0.1 1.4-0.1 2.7-0.1 4.1 1.2-0.2 2.3-0.4 3.5-0.6 0.2-0.2 0.5-0.3 1-0.4 5.9-1.6 11.9-3 17.6-5 15.3-5.5 29.5-12.9 40.2-25.8 0.4-0.4 0.6-1 0.8-1.5-0.2-0.1-0.3-0.3-0.5-0.4-0.8 0.6-1.6 1.2-2.3 1.9zm-17.9 12.7l-0.2-0.4c0.5-0.2 1-0.4 1.4-0.6-0.4 0.3-0.8 0.7-1.2 1z"/>
		<path class="s0" d="m281.5 154.7c0.5 0 1 0.1 1.7 0.2 0.1 0 0.2 0 0.3 0.1 1.4 0.2 2.8 0.3 4.2 0.4 0.2-0.1 0.5 0 0.8 0.1q0.15 0 0.3 0c4.6 0.3 9.1 0.6 13.6 0.7-0.5-0.3-0.9-0.6-1.3-1-2-1.8-4.2-2.7-7-2.4-1.8 0.2-3.8 0.3-5.4-1 0.3-0.5 0.5-1 0.7-1.5-3.9-0.5-7.7-1.3-11.4-2.5 0.2 2.2 0.4 4.3 0.6 6.5 1 0.1 2 0.2 2.9 0.4z"/>
		<path class="s0" d="m263.5 149.9c0.6 0.4 1.5 0.7 2.3 0.9 0.4-0.8 0.7-1.6 1.1-2.4 0.2 0.1 0.5 0.2 0.7 0.3-0.4 0.7-0.7 1.5-1.1 2.2 1 0.2 2 0.4 2.8 0.6 1.7 0.5 3.4 1.1 5.1 1.6 0.2 0 0.4 0.1 0.6 0.2 0.2 0.1 0.5 0.1 0.7 0.2 0.6 0.2 1.2 0.3 1.7 0.4-0.4-1.8-0.9-3.5-1.3-5.3-0.1-0.5-0.2-1.1-0.3-1.6-0.1 0-0.2-0.1-0.3-0.1-0.1 0-0.1 0-0.2-0.1-1.8-0.7-3.7-1.3-5.6-2.1-0.1 0-0.2-0.1-0.4-0.1-0.4-0.1-0.8-0.3-1.1-0.5-0.6-0.3-1.2-0.6-1.8-1-0.2 0-0.4-0.1-0.6-0.1-0.8-0.1-1.4-0.4-1.9-0.8-0.3 0-0.5-0.1-0.8-0.2-0.2 0-0.4-0.1-0.5-0.2-5.3-2.3-10.5-4.6-15.8-7-8-3.6-16-7.3-24.1-10.7-7.9-3.2-16.2-4.3-24.6-5.1-10.1-1-20.2-1.4-30.3 0.2-2.6 0.4-5.8 0.2-7.4 3.5 3.3 1 6.5-1 9.6-0.4 0 0.2 0 0.3 0 0.5-0.5 0.3-0.9 0.6-1.5 1 0.3 0.1 0.4 0.1 0.6 0.2 8.2 0.6 16.5-0.3 24.6 2.1 2.2 0.7 4.6 0.6 6.8 0.8 7.2 0.7 14.4 1.6 21.1 4.5 13.4 5.8 26.8 11.8 40.1 17.7 0.6 0.1 1.2 0.4 1.8 0.8z"/>
		<path class="s0" d="m306.2 155.2c0 0.3 0.1 0.6 0.1 1 2.6 0 5.2-0.1 7.8-0.2 5.6-0.3 11.2-0.6 16.7-1 0.2-1.8 0.6-3.6 1-5.3-1.3 0.1-2.7 0.2-4 0.3-5.5 0.4-11.2 0.8-16.9 1.1 0.1 0.9 0.3 1.8 0.6 2.6 0.6 1.9-0.9 1.7-1.9 2-1.5 0.5-1.4-0.6-1.5-1.5-0.1-1-0.2-2-0.3-3.1q-0.9 0-1.8 0c-0.3 0.7-0.4 1.4-0.3 2.2 0.2 0.6 0.5 1.2 0.5 1.9z"/>
		<path class="s0" d="m361.9 149.6c0 0 0.1 0.1 0 0 0.2 0.1 0.3 0.1 0.4 0.1l-0.1-0.1q-0.15 0-0.3 0z"/>
		<path class="s0" d="m382.9 172.1c-3.8 1.7-7.5 3.4-11.3 5.2-0.1-0.2-0.1-0.3-0.2-0.5 3.8-1.6 7.6-3.2 11.5-4.7 1.7-1 3.6-1.9 5.4-2.9 5.2-2.8 10.3-5.6 15.4-8.4-0.1-0.1-0.1-0.1-0.2-0.2-4 2.1-7.9 4.2-11.9 6.2-17.9 9-36.3 16.5-56.3 19.5-8.4 1.3-16.8 2-25.3 1.8-10.9-0.3-21.5-2.1-31.9-5.2-12.2-3.6-24.1-8.1-34.7-15-10.8-7-21.2-14.8-31.5-22.6-6.2-4.7-12.1-9.8-19.2-13.1-12.9-5.9-26.7-8.3-40.7-9.1-3.5-0.2-7.1-0.1-10.7-0.1-1 0.1-2.1 0.2-3.1 0.3-3.2 0.3-7 0.5-10.3-0.3-2.8 0.3-5.6 0.6-8.3 0.7-2 0.1-3.8 0.8-5.4 1.9-0.2 0.1-0.3 0.4-0.8 1 3.3 0 6.3 0 9.2 0 0.7 0 1.3 0.2 2 0.3 0 0.2 0 0.3-0.1 0.5-0.7 0.2-1.4 0.5-2.4 0.8 0.5 0.2 0.7 0.3 0.8 0.3 9.2 0.8 18.5-0.2 27.7 1.7 6.1 1.3 12.5 1.4 18.7 2.4 12 1.8 23.1 6.1 32.7 13.7 6.3 5 12.6 10.1 19.1 14.8 22.1 16 46.1 27.6 73.5 31.3 10.2 1.3 20.3 1.5 30.5 0.5 12.7-1.2 25.1-4.2 37-8.7 12.7-4.9 24.9-10.6 36.6-17.4 0.5-0.3 0.9-0.9 1.4-1.3-0.1-0.2-0.2-0.3-0.4-0.5-5.5 2.7-10.7 6-16.8 7.1zm-76.4 20.4c0-0.1-0.1-0.1-0.1-0.2h18.1c0 0.1 0 0.1 0 0.2zm20.2-0.6v-0.1h1.5v0.1zm4.6-0.3q-0.3 0-0.6 0v-0.1h0.6z"/>
		<path class="s0" d="m354.1 146.8c-1.3 0.2-2.6 0.4-3.9 0.4q-0.3 0.3-0.9 0.3c-3.1 0.4-6.2 0.8-9.9 1.3 0-0.1 0.1-0.2 0.1-0.3 0 0 0 0-0.1 0q-1.95 0.3-3.9 0.6c-0.4 1.4-0.7 2.8-0.8 4.3 0 0.5 0 1-0.1 1.4 0.2 0 0.3 0 0.5 0 0.5 0 0.9 0 1.4 0 0.4 0 0.8-0.1 1.2-0.1 0.3-0.2 0.7-0.3 1.2-0.4 3.7-0.5 7.4-1 11.2-1.5 0.3 0 0.5 0 0.7 0 1.2-0.2 2.5-0.5 3.7-0.7 0-1.4-0.2-2.8-0.4-4.2 0.1-0.4 0.1-0.8 0-1.1zm-12.4 6.2v-0.1c0.3 0 0.5-0.1 0.8-0.1 0 0.1 0 0.1 0 0.2zm2.6-0.3v-0.3h1.7c-0.6 0.1-1.1 0.2-1.7 0.3zm4.4-0.7c0.5-0.1 0.9-0.3 1.4-0.4 0 0.1 0 0.3 0 0.4z"/>
		<path class="s0" d="m338.7 153.2c0 0 0 0.1 0 0 0.2 0.1 0.4 0.1 0.6 0.1 0 0 0 0 0-0.1q-0.3 0-0.6 0z"/>
		<path class="s0" d="m408.8 157.9c-0.8 0.5-1.7 1-2.5 1.5-0.1-0.1-0.1-0.1-0.2-0.2 0.9-0.5 1.7-0.9 2.6-1.4z"/>
		<path class="s0" d="m406.3 159.4c-0.9 0.5-1.7 1-2.6 1.5-0.1-0.1-0.1-0.1-0.2-0.2 0.9-0.5 1.7-1 2.6-1.4 0.1-0.1 0.2 0 0.2 0.1z"/>
		<path class="s0" d="m408.7 157.7c0.5-0.3 1-0.7 1.5-1 0.1 0.1 0.1 0.2 0.2 0.4-0.5 0.3-1.1 0.5-1.6 0.8 0 0-0.1-0.2-0.1-0.2z"/>
		<path class="s0" d="m422.2 111.1c0.3-0.5 0.6-1.1 0.8-1.6 0.1 0.1 0.2 0.2 0.4 0.2-0.4 0.5-0.7 1-1.1 1.5 0 0-0.1-0.1-0.1-0.1z"/>
		<path class="s0" d="m411 125.8c-0.1 0.1-0.2 0.2-0.3 0.4-0.3 0-0.5 0-0.8 0 0.3-0.4 0.5-0.8 0.8-1.1 0 0.2 0.1 0.4 0.3 0.7z"/>
		<path class="s0" d="m413.6 123.2q-0.3 0.3-0.6 0.6c-0.1-0.1-0.1-0.1-0.2-0.2q0.3-0.3 0.6-0.6c0.1 0.1 0.1 0.2 0.2 0.2z"/>
		<path class="s0" d="m412.3 155.9c-0.2 0.1-0.4 0.3-0.6 0.4 0-0.1-0.1-0.1-0.1-0.2 0.2-0.1 0.4-0.3 0.6-0.4 0 0.1 0 0.1 0.1 0.2z"/>
		<path class="s0" d="m417.7 119c-0.1 0.1-0.2 0.1-0.3 0.2l-0.1-0.1c0.1-0.1 0.2-0.1 0.2-0.2 0.1 0 0.2 0.1 0.2 0.1z"/>
		<path class="s0" d="m421.4 112.2c0.2-0.4 0.5-0.7 0.7-1.1 0.1 0 0.1 0.1 0.2 0.1-0.2 0.4-0.5 0.7-0.7 1.1 0 0-0.1 0-0.2-0.1z"/>
	</g>
	<g>
		<path class="s0" d="m47.9 59.4v58.1c0 1.1-0.1 2.1-0.4 3-0.3 0.9-1.1 1.3-2.5 1.2h-20c-1.4 0-2.4-0.2-3-0.7-0.6-0.5-0.9-1.5-0.9-3.1v-58.5h-6.8c-1.1 0-1.9-0.2-2.3-0.5-0.4-0.3-0.6-1-0.7-1.9 0-2 0-3.5 0.1-4.7 0-1.1 0.2-2 0.4-2.5 0.2-0.6 0.5-0.9 0.9-1 0.4-0.1 1-0.1 1.8-0.1h6.5c0.1-1.5 0.2-3.2 0.4-5.1 0.1-1.9 0.4-3.9 0.8-6.1 0.4-2.1 1-4.3 1.8-6.5 0.8-2.2 1.8-4.4 3.2-6.6 2.3-3.5 5.3-6.4 9.2-8.8 3.9-2.4 8.2-3.6 13-3.6 2.4 0 4.5 0.3 6.2 1 1.7 0.7 3.1 1.5 4.1 2.5 1 1 1.8 2.2 2.2 3.5q0.6 1.95 0.6 3.9c0 1.7-0.3 3.1-0.9 4.3-0.6 1.2-1.4 2.1-2.3 2.9-0.9 0.8-1.9 1.3-2.9 1.6-1 0.3-2 0.5-2.8 0.5-1.1 0-2.4-0.3-3.7-0.8-1.4-0.6-2.7-0.8-3.9-0.8-1.7 0-3 0.6-3.9 1.7-0.9 1.1-1.3 2.4-1.3 3.9 0 1 0.4 2.4 1.1 4.2 0.8 1.8 2.7 4.6 5.9 8.3h8.5c0.8 0 1.6 0.1 2.1 0.4 0.6 0.2 0.8 0.9 0.8 1.9v6.8c-0.2 0.8-0.5 1.2-1 1.4q-0.75 0.3-1.8 0.3h-8.5z"/>
		<path class="s0" d="m87.7 71.1v47.7c0 1.8-0.2 2.9-2.4 2.9h-12.5c-2.1 0-2.8-0.6-2.8-2.6v-48h-5.6c-1.6 0-2.4-0.1-2.4-2 0-4.7 0-5.3 2.4-5.4h5.6c0.2-4.4 0.6-12.4 4.5-18.8 2.8-4.8 8.4-10.1 16.5-10.1 5.6 0 8.5 3 8.5 7.2 0 4.2-3 6.3-5.8 6.3-1.7 0-3.6-0.9-5.3-0.9-2.7 0-4.8 2.1-4.8 5.7 0 2.1 1 6.8 4 10.6h7.8c1.5 0 2 0.2 2 1.9v4.4c-0.2 1.1-0.8 1.1-2.2 1.1z"/>
		<path class="s0" d="m120.2 93.8c0.3 1.7 0.7 3.9 1.8 6 2.5 4.8 7.1 7.7 12.5 7.7 5.3 0 9.2-2.7 11.4-4.9 2.2-2.5 2.9-3.1 4.5-3.1 1.8 0 3.5 1.5 3.5 4.3 0 3.5-4.1 19.5-22.2 19.5-19.8 0-26.5-15.7-26.5-31 0-22.2 14-30.2 26.2-30.2 17.9 0 22.3 16.6 22.3 22.1 0 4.8-2.8 5.3-4.6 5.6zm16.2-11.2c-0.8-10-6.6-10.1-8-10.1-6.6 0-9.3 6.3-9.4 12.7z"/>
	</g>
	<g>
		<g>
			<path class="s0" d="m261.1 160.5c0 0 0.2-5.9 1.6-9 1.4-3.1 3.7-7.2 3.8-8 0.1-0.8-2.3-9.4-1.2-14.4 1.1-5 2.1-7.3 0.9-8-1.2-0.7-4 3.6-4 3.6-0.4 1.8 0.1 7.6-0.1 10.5-0.1 2.9-0.6 3.2-0.6 3.2 0 0-0.8-11.3-0.4-13.2 0.4-1.9 1.4-3.2 3.3-5 1.9-1.8 2.5-1.8 3-0.4 0.5 1.4 0.6 6.6 0 10.3-0.6 3.7 1.4 12.9 0.9 14.8-0.5 1.9-5 10.8-6.1 13.2-1.1 2.4-1.1 2.4-1.1 2.4z"/>
			<path class="s0" d="m333.9 89.9c0.8 4.5-1.3 8.9-2.4 13.4-1.5 5.7-1.3 11.9 0.4 17.5 1 3.1 2.4 6.2 2.4 9.5 0 3.6-1.8 6.9-3.2 10.2-2.6 6.2-3.9 13-3.8 19.8 0 0.7 0 1.5 0.4 2.2 0.3 0.7 1 1.2 1.8 1.2 0.2-6.5 0.7-13.2 3-19.3 1.5-3.9 3.9-7.6 4.5-11.8 1-6.8-2.7-13.4-2.7-20.3 0-4.8 1.8-9.3 2.5-14 0.8-4.7 0.3-10.1-3.3-13.3 0.1 0.7 0.1 1.5 0.2 2.2 0.1 0.9 0 1.8 0.2 2.7z"/>
			<path class="s0" d="m338.1 106.8c4 0.4 8-0.6 11.8-1.7 1.2-0.3 2.7-1 2.8-2.2-3.5 0.5-7 1.1-10.5 1-3.5 0-7.1-0.7-10.2-2.4-0.6-0.4-2.9-1.8-3.3-0.5-0.3 0.9 1.6 2.4 2.2 2.9 2.1 1.7 4.7 2.6 7.2 2.9z"/>
			<path class="s0" d="m354.3 77.6c1.5 2.2 1.7 4.9 2.1 7.5 0.7 4.6 1.9 9.1 3.7 13.3 0.4-0.1 0.5-0.7 0.6-1.1 0.2-2.4 0.4-5-0.5-7.3-0.6-1.6-1.6-2.9-2.3-4.4-0.8-1.9-1-4-1.4-6-0.4-2-1.2-4.1-2.8-5.3-1.4-1.1-3.4-1.4-4.6-2.8-0.7-0.8-0.9-1.8-1.4-2.7-0.4-0.9-1.1-1.9-2.1-2-0.8-0.1-1.8 0.1-2.2 0.8-0.8 1.3-1.6 1.7-1.6 2.5 0 0.9-1 2.1-0.1 3.1 0.5 0.6 1.3 0.7 2.1 0.9 0.7 0.2 1.5 0.7 1.6 1.5-0.9 0.1-1.9 0.1-2.8 0.2 0.4 0.8 0.8 1.7 1.6 2.2 0.8 0.5 2 0.5 2.4-0.3 0.3-0.4 0.3-1 0.4-1.4 0.1-0.4 0.7-0.9 1.1-0.6 0.3 0.1 0.2 0.6 0.1 0.8-0.2 0.3-0.5 0.5-0.5 0.8-0.1 0.5 0.7 0.8 1.1 0.6 0.5-0.2 0.7-0.7 0.9-1.2 0.1 1.2-0.4 2.5-1.4 3.3-0.9 0.8-2.2 1.2-3.4 1-1.3 4.5-2.1 9.2-2.4 13.9-0.4 0.3-0.9 0-1.2-0.4-0.2-0.4-0.2-0.9-0.2-1.4 0.1-2.7 0.1-5.5 0.8-8.1 0.3-1.2 0.8-2.4 0.9-3.6 0.1-1.2 0.1-2.6-0.6-3.6-0.4-0.6-1-1.1-1.5-1.7-0.6-0.9-0.8-2.1-0.9-3.2-0.2-2.1-0.7-3.9 0-5.9 0.4-1.2 1-0.5 2.4-3.1 0.4-0.7 1.5-1.2 2.5-1.1 1.6 0.1 3.2 0.8 4.2 2 1 1.3 1.5 2.9 1.6 4.5 0.1 0.7 0.1 1.4 0.4 2 0.5 0.9 1.6 1.2 2.4 1.6 2.3 1.1 4.1 3.4 4.6 5.9 0.2 1.3 0.2 2.7 0.5 4 0.7 2.9 3.3 5 4.5 7.7 0.9 2.2 0.9 4.7-0.1 6.8-0.4 0.9-1 1.7-2 1.9-1 0.2-1.9-0.5-2.6-1.2-2.2-2.2-3.3-5.3-4-8.4-0.6-3.1-0.8-6.3-1.6-9.3-0.4-1.8-1.3-3.8-3-4.5-0.5-0.2-1-0.3-1.3-0.6-1.5-1.5 2-0.7 2.4-0.5 1.5 0.6 2.8 1.6 3.6 2.9z"/>
			<path class="s0" d="m350.9 79.7c-0.9 2.8-0.3 6.1 1.6 8.4 0.5 0.7 1.2 1.4 0.9 2.2-0.2 0.6-0.8 0.9-1.3 1.2-1 0.7-1.7 1.8-2 3-0.4 1.2-0.4 2.5-0.5 3.7-0.1 1.2-0.1 2.5-0.2 3.7-0.1 0.9 0 2 0.9 2.3 0.6 0.2 1.2-0.2 1.5-0.7 0.3-0.5 0.3-1.2 0.2-1.8-0.1-0.6-0.3-1.2-0.3-1.8-0.2-3.4 3.6-5.9 3.6-9.3 0-2.6-2.3-4.7-2.6-7.3-0.2-1.3 0.2-2.6 0.2-3.9 0-0.6-0.3-2.6-1.2-2.8-0.7-0.1-0.3 0.7-0.3 1.1 0 0.7-0.3 1.4-0.5 2z"/>
			<path class="s0" d="m334.5 149.3c0.4-1.9 0.9-3.9 1.8-5.6 1.1-2 2.6-3.8 3.5-5.8 2.5-5.7-0.1-12.5 2-18.3 0.7-2 2-3.7 3.7-5.1 0.3 2.7 2 5 3.7 7.1 1.7 2.1 3.7 4.1 4.7 6.7 1.5 3.9 0.6 8.2 0.2 12.4-0.6 5.6-0.4 11.2-0.3 16.8 0 0.9 0.2 2.1 1.1 2.5 0.3 0.1 0.6 0.1 0.9 0.3 0.4 0.3 0.5 0.9 0.3 1.3-0.2 0.4-0.7 0.7-1.1 0.9-1.5 0.4-3-0.6-3.7-1.9-0.7-1.3-0.8-2.9-0.9-4.4-0.3-6.1-0.6-12.2 0.4-18.2 0.4-2.7 1-5.5 0.4-8.1-0.9-3.4-3.8-5.9-6.6-8.1 0.3 5.4 0.7 10.9-0.7 16.1-1 3.7-2.9 7.2-4.5 10.7-1.6 3.5-3 7.3-2.8 11.2 0.1 1.1 0.4 3.8-1.3 4.1-1.6 0.3-1.4-2.3-1.5-3.3-0.4-3.8-0.1-7.6 0.7-11.3z"/>
			<path class="s0" d="m351.2 116.3c2.1 3.4 4.7 6.4 6.7 9.8 0.6 1.1 1.3 2.2 1.4 3.4 0.2 1.6-0.5 3.2-1 4.8-2.4 7.4-1.8 15.4-1.2 23.1 0.1 0.8 0.2 1.7 0.9 2 0.8 0.4 1.7-0.2 2.1-1 0.3-0.8 0.2-1.7 0.1-2.6-0.8-6-0.4-12.1 0.9-18 0.6-2.6 1.4-5.3 1.3-8-0.1-2.1-0.8-4.1-1.6-6-1.6-3.8-3.7-7.3-6.2-10.4-1.3-1.6-2.7-3.2-3.6-5-0.5-1 0.5-5.7-2.1-4.2-3.2 1.9 1.1 10.2 2.3 12.1z"/>
			<path class="s0" d="m345 61.7c0.1-0.7 0.8-1.3 1.5-1.2 0.5 0.1 0.8 0.5 1.2 0.9 0.6 0.8 1.3 1.6 1.9 2.4 0.9 1.1 1.8 2.2 3 2.8 1.1 0.5 2.4 0.6 3.6 0.6 1.6 0 3.1 0 4.7 0 0.4 0 0.9-0.2 0.9-0.6-0.1-0.3-0.5-0.4-0.8-0.3-0.3 0.1-0.6 0.2-0.9 0.1-0.3-0.1-0.4-0.5-0.6-0.7-0.5-0.5-1.3-0.2-2 0-1.5 0.5-3.2 0.3-4.7-0.4-1.5-0.7-2.6-2-3.2-3.4-0.4-0.9-0.5-2-1.1-2.8-0.6-0.8-1.9-1.3-2.6-0.7-0.3 0.2-0.4 0.6-0.6 0.8-0.7 1-2.2 1.2-3.3 0.8-1.1-0.5-1.9-1.5-2.2-2.7-0.2-0.7-0.2-1.6-0.9-1.9-0.7-0.4-1.5 0.3-2.2 0.7-0.8 0.6-1.9 0.9-2.9 1-0.3 0-0.6 0-0.8-0.1-0.2-0.1-0.4-0.4-0.4-0.6 0.1-0.3 0.4-0.5 0.8-0.6 0.9-0.3 1.9-0.7 2.8-1 1.1-0.4 2.4-0.8 3.4-0.2 0.7 0.4 1.1 1.1 1.4 1.8 0.3 0.7 0.7 1.4 1.3 1.9 0.6 0.5 1.5 0.6 2.1 0.1 0.3-0.3 0.4-0.6 0.6-0.9 0.7-0.9 2.1-0.9 3.1-0.4 1 0.6 1.6 1.6 2 2.7 0.5 1 0.9 2.1 1.6 3 1 1.2 2.5 1.9 4.1 2 1.6 0.1 3.1-0.5 4.4-1.4 0.3-0.2 0.9-0.5 1.1-0.2 0.2 0.3 0 0.6-0.3 0.8-0.2 0.2-0.5 0.5-0.5 0.8 0 0.3 0.3 0.4 0.5 0.5 0.2 0.1 0.5 0.1 0.8 0.1 0.5 0.1 0.9 0.5 1.1 1.1 0.1 0.5-0.1 1.1-0.5 1.4-0.5 0.5-1.3 0.4-2.1 0.4-1.8-0.1-3.7-0.2-5.5-0.3-1.7-0.1-3.4-0.2-5-0.9-1.3-0.5-2.4-1.4-3.4-2.4-0.4-0.3-0.9-0.7-1.1-1.1-0.4-0.5-0.4-1.4-0.3-1.9z"/>
			<path class="s0" d="m348.4 49.7c-0.3-0.2-0.6-0.3-0.9-0.5-0.3-0.3-0.5-0.7-0.6-1.1-0.1-0.4-0.3-0.8-0.7-1-0.4-0.2-0.9-0.1-1 0.3-0.1 0.5 0.5 0.9 0.4 1.3 0 0.4-0.4 0.6-0.8 0.6-0.4 0-0.7-0.2-1-0.4-0.3-0.2-0.7-0.3-1-0.2-0.3 0.1-0.5 0.2-0.7 0.4-0.2 0.1-0.5 0.2-0.7 0.1-0.3-0.2-0.4-0.7-0.2-1 0.2-0.3 0.6-0.4 0.9-0.5 0.5-0.1 1-0.2 1.5-0.1 0.3 0 0.6 0 0.8-0.2 0.1-0.2 0.1-0.5-0.1-0.6-0.2-0.2-0.4-0.2-0.6-0.3-0.9-0.2-1.9-0.2-2.7 0.2-0.8 0.5-1.4 1.4-1.2 2.3-0.6 0.2-1.4 0.2-2.1 0.1-0.7-0.1-1.4-0.2-2.1 0-0.7 0.2-1.3 0.8-1.2 1.5 0.4 0.2 0.8 0 1.1-0.2 0.3-0.2 0.7-0.5 1.1-0.5 0.6-0.1 1.2 0.3 1.7 0.5 0.7 0.3 1.1 0.2 1.8 0.1 0.6 0 1.1 0.6 0.7 1.1-0.2 0.4-0.8 0.5-1.2 0.3-0.4-0.1-0.8-0.4-1.2-0.6-0.4-0.2-0.8-0.4-1.3-0.3-0.3 0.1-0.5 0.3-0.4 0.6 0 0.1 0.1 0.2 0.2 0.3 0.5 0.5 1 1 1.7 1.2 0.7 0.2 1.5 0.1 1.9-0.4 0.1-0.2 0.2-0.4 0.4-0.5 0.3-0.3 0.9-0.1 1.1 0.3 0.2 0.4 0.1 0.9-0.2 1.2q-0.45 0.45-1.2 0.6c-0.2 0.1-0.5 0.1-0.7 0.2-0.2 0.1-0.4 0.3-0.5 0.6 0 0.3 0.2 0.6 0.5 0.7 0.3 0.1 0.6 0.1 0.9 0.1 0.3 0 0.6 0 0.9-0.1 0.3-0.1 0.6-0.3 0.7-0.6 0.1-0.2 0-0.5 0.2-0.7 0.2-0.4 0.7-0.4 1.1-0.2 0.4 0.2 0.7 0.5 1 0.8 0.3 0.3 0.7 0.5 1.1 0.4 0.4-0.1 0.7-0.5 0.7-0.9 0.1-0.4 0-0.8 0-1.2 0-0.4 0.1-0.9 0.4-1.2 0.2-0.2 0.4-0.3 0.5-0.6 0-0.2 0-0.4 0-0.5 0.2-0.5 1-0.3 1.2-0.7 0.2-0.2 0-0.6-0.2-0.7zm-3.3 4.3c-0.3 0.3-0.8 0.3-1.1 0.1-0.3-0.2-0.6-0.5-0.8-0.9-0.4-0.6-0.6-1.3-0.8-2-0.1-0.3-0.1-0.6-0.1-0.8 0.2-1.3 1.9-0.1 2.4 0.5 0.4 0.6 0.6 1.4 0.7 2.2 0 0.3 0 0.7-0.3 0.9z"/>
			<path class="s0" d="m324.5 46.8c0.1 2.5 1.2 5 3.1 6.6 1.9 1.6 4.5 2.4 7 2.1-0.4 1-0.8 2-1.3 3-0.5 0.8-1.4-1.9-2.6-2.3-1.2-0.4-2.5-0.5-3.4-1.3-1.6-1.3-1.8-4-3.6-5-0.7-0.4-1.6-0.5-2.1-1.1-0.2-0.3-0.3-0.6-0.6-0.7-0.3 0-0.5 0.3-0.5 0.6 0 0.3 0.3 0.6 0.5 0.8 1.5 1.6 3.5 2.8 4.6 4.6 0.8 1.3 1.8 2.5 3.2 3.2 1 0.5 2.2 0.7 3.4 0.8 1.6 0.2 3.2 0.2 4.6 1 1.4 0.8 2.4 2.5 1.7 4-0.3 0.7-1 1.2-1.4 1.8-0.4 0.6-0.6 1.7 0.1 2.1 0.8 0.5 2.1-0.1 2.6 0.7 0.3 0.5 0 1-0.3 1.5-1.1 1.9-1.7 4.1-1.8 6.3 0 0.6-0.2 1.4-0.8 1.4-0.4 0-0.7-0.5-0.8-0.9-0.5-2.3 1.8-4.6 1.1-6.8-0.3-1-1.1-1.7-1.9-2.2-0.6-0.4-1.3-0.9-1.2-1.5 0-0.6 0.5-1 1-1.3 0.5-0.3 1-0.5 1.4-0.9 0.7-0.8 0.3-2.1-0.4-2.8-0.8-0.7-1.9-0.8-2.9-0.9-1-0.1-2.1 0.1-3.1-0.2-1.7-0.4-3.1-1.8-4.2-3.2-1.1-1.4-1.9-3.1-3.2-4.3-0.9-0.9-2-1.7-2.5-2.8-0.3-0.8-0.1-1.8 0.7-2 0.7-0.1 1.2 0.5 1.6 1 0.3 0.4 0.9 1.2 1.5 1-0.2-0.9-0.2-1.7 0.5-2.3z"/>
			<path class="s0" d="m346.4 68.7c0 0.2-0.1 0.4-0.1 0.6 0 0.2 0 0.4 0.2 0.5 0.1 0.2 0.4 0.2 0.6 0.1q0.3-0.15 0.6-0.3c0.3-0.2 0.6-0.5 0.7-0.8 0.5-0.9 0-2.2-1.1-2.5-1.5-0.3-0.7 1.7-0.9 2.4z"/>
			<path class="s0" d="m348.6 72.1c0 0.1 0 0.2 0 0.2 0.1 0.2 0.3 0.2 0.5 0.1 0.3-0.1 0.6-0.4 0.8-0.7 0.1-0.3 0.2-0.7 0.1-1-0.1-0.5-0.5-1.4-1-0.8-0.4 0.5-0.4 1.6-0.4 2.2z"/>
			<path class="s0" d="m347.9 72.8c0-0.2 0.1-0.5 0.3-0.6 0.2 0 0.4 0.2 0.5 0.4 0.2 0.7-0.1 1.4 0 2.2 0.1 0.3 0.2 0.7 0.1 1-0.1 0.4-0.5 0.7-0.8 0.9-0.6 0.4-0.5-0.8-0.5-1.2 0.1-0.9 0.3-1.8 0.4-2.7z"/>
			<path class="s0" d="m348.9 70c-0.2 0.7-0.4 1.5-0.6 2.2 0.8-0.1 1.5 0.4 2.2 0.9 1.7 1.4 3.5 2.7 5.2 4.1 0.5-0.8 0.2-1.9-0.5-2.5-0.7-0.7-1.5-1-2.3-1.5-1.4-0.8-2.6-2.1-3.3-3.5-0.1-0.1-0.4-0.1-0.6 0-0.2 0.1-0.1 0.2-0.1 0.3z"/>
			<path class="s0" d="m349 63.9v0.1c0 0.1 0.1 0.1 0.1 0.1 0 0 0.1 0 0.2 0 0.3-0.1 0.7-0.2 0.9-0.5 0.2-0.2 0.3-0.5 0.3-0.8 0-0.2-0.1-0.7-0.4-0.7-0.3 0-0.5 0.5-0.6 0.7-0.1 0.4-0.3 0.7-0.5 1.1z"/>
			<path class="s0" d="m330 78.4c-1.9 1.6-3.4 3.6-4.7 5.7-0.3 0.5-0.6 1-0.7 1.6-0.1 0.5 0 1 0 1.5-0.1 1.2-1.1 2.1-1.9 3-2.3 2.6-3.3 6.1-3.5 9.6-0.1 3.5 0.5 6.9 1.3 10.3 0.5 0.4 1.3 0 1.5-0.6 0.3-0.6 0.2-1.2 0.1-1.8-0.6-4.9-0.7-10.2 1.7-14.6 1.3-2.5 3.3-4.5 4.9-6.8 1.1-1.6 1.9-3.3 3.2-4.8 1.2-1.5 2.9-2.8 4.8-2.9 1-0.1 2.2 0.3 2.7 1.2 0.3 0.7 0.1 1.6 0 2.4-0.6 2.9-0.4 6 0.4 8.8 0.4 1.5 1.3 3.1 2.8 3.5-1.5-2.5-2.2-5.5-1.9-8.4 0.1-1.4 0.5-2.7 0.5-4 0.1-1.4-0.2-2.8-1-3.8-0.2-0.3-0.5-0.5-0.7-0.9-0.2-0.4-0.2-0.8 0.1-1 0.2-0.2 0.4-0.2 0.7-0.3 0.7-0.4 0.8-1.4 0.6-2.3-0.2-0.8-0.5-1.7-0.2-2.5-0.4-0.3-1 0-1.3 0.4-0.2 0.5-0.2 1-0.1 1.5 0.1 0.5 0.2 1 0.1 1.5-0.4 2.2-2.7 0.6-4 0.8-2.1 0.6-3.9 1.7-5.4 2.9z"/>
			<path class="s0" d="m328.6 89.2c0.5 0.5 1.3 0.4 1.9 0.1 0.6-0.3 1.1-0.8 1.7-1.2 0.6-0.4 1.4-0.6 2-0.2-0.3 1.6-1.9 2.6-3.1 3.7-2.6 2.2-4.2 5.2-5.3 8.4-1.1 3.2-1.5 6.5-2 9.8-0.2 1.1-0.3 2.2-0.1 3.3 0.3 1.4 1.2 2.7 1.5 4.1 0.1 0.3 0.1 0.6 0 0.8-0.1 0.2-0.5 0.4-0.7 0.2-0.5-0.9-1.1-1.9-1.6-2.8-0.4 0.3-0.5 0.9-0.5 1.5 0 0.5 0.2 1.1 0.1 1.6-0.1 0.5-0.5 1.1-1 1-0.6-0.1-0.9-0.8-1-1.5-0.3-2.4 0-4.8 0.9-7.1-1.2 0.3-2.3 1.2-2.9 2.3-0.5 1.1-0.5 2.5 0 3.7 0.1 0.3 0.3 0.6 0.3 0.9 0 0.3-0.2 0.7-0.5 0.7-0.2 0-0.4-0.1-0.5-0.2-1.4-1.2-1.9-3.3-1.2-5 0.9-2.1 3.3-3.1 4.5-5.1 1.1-1.8 0.9-4.1 1.1-6.3 0.3-3.7 1.7-7.3 4.1-10.2 0.5-0.6 1-1.4 0.7-2.1-0.3-0.6-1.6-1.2-0.5-1.8 1.4-0.6 1.6 0.8 2.1 1.4z"/>
			<path class="s0" d="m292.8 72.9c-0.7 1.3-0.5 3.1-1.6 4.2-1.2 1.2-3.3 0.8-4.7 1.9-1.5 1.2-1.3 3.6-0.8 5.5-1.7-0.5-3.7 0.4-4.5 2.1-0.8 1.7-0.1 3.7 1.4 4.7 1 0.6 2.4 0.9 2.7 2.1 0.2 0.8-0.2 1.5-0.6 2.2-2.1 3-5.8 5.1-7 8.6-0.7 2.1-0.4 4.3-0.1 6.4 0.7 4.8 1.3 9.5 2 14.3 1.6-3.1 1.2-6.9 0.7-10.4-0.5-3.5-1-7.2 0.4-10.4 1.2-2.8 3.7-4.8 5.8-7 2.3-2.4 4.2-5 6.2-7.7 0.2-0.2 0.3-0.5 0.4-0.7 0.2-0.8-0.9-1.5-1.7-1.4-0.8 0.2-1.5 0.8-2.1 1.5 1.1-2.1 3.5-3.2 5.6-4.3 2.1-1.1 4.4-2.6 5-4.9 0.2-0.7 0.2-1.4 0.4-2.1 0.2-0.7 0.8-1.3 1.5-1.3 0.3 0 0.6 0.1 0.9 0.1 0.3 0 0.6-0.2 0.6-0.5 0-0.2-0.2-0.3-0.3-0.4-1.1-0.8-2.8-0.4-3.8 0.5-1 1-1.5 2.3-1.9 3.6-0.5 1.3-1 2.7-2 3.6-2 1.8-5.6 1.7-6.7 4.1-0.4 0.8-0.4 1.8-0.6 2.7-0.2 0.9-0.9 1.8-1.9 1.8-1 0-1.6-1.2-1.4-2.2 0.2-1 0.9-1.7 1.7-2.4 0.8-0.7 1.5-1.3 2-2.1 0.5-1 0.5-2.3 1-3.3 0.9-1.8 3.4-2.4 4.3-4.2 0.5-1.1 0.4-2.3 0.9-3.4 0.4-0.7 2.8-1.7 1.7-2.3-1.2-1.1-3 0.3-3.5 1.1z"/>
			<path class="s0" d="m293.6 78.1c-0.8 1.5-2 2.7-2.9 4-0.9 1.3-1.8 3-1.4 4.6 0.6 0 1-0.4 1.3-0.9 0.3-0.5 0.4-1 0.7-1.5 0.6-1.3 1.8-2.1 2.9-3 1.1-0.9 2.1-2 2.3-3.4 0.1-0.6-0.2-2.3-1.1-2.2-0.9 0-1.5 1.8-1.8 2.4z"/>
			<path class="s0" d="m298.5 72.3c1.3 0.4 2.6 0.7 3.9 0.7-0.6 1.9-1.3 4 0 5.7 0.3 0.4 0.5 0.9 0.5 1.4 0.1 1.7-1.6 1.9-2.8 2.3-1.4 0.6-2.5 1.9-2.8 3.4-0.3 1.5 0.2 3.1 1.3 4.2 0.7 0.7 1.7 1.1 2.5 1.7 1.5 1.1 2.5 2.8 3.3 4.6 0.8 1.8 1.3 3.6 2 5.3 2.2 5.1 6.6 9.2 11.8 11.1 0.2-0.7-0.1-1.4-0.5-1.9-0.4-0.5-1-0.9-1.5-1.3-4.5-3.3-7.7-8.3-8.8-13.8-0.3-1.4-0.4-2.7-0.9-4-0.5-1.3-1.4-2.5-2.7-3-1.2-0.4-2.5-0.2-3.6-0.9-0.3-0.2-0.6-0.5-0.8-0.8-0.6-1.1 0.3-2.1 1.2-2.5 0.7-0.3 1.6-0.5 2.3-0.8 1.6-0.6 1.3-0.7 1.5-2.5 0.2-1.8 0.2-4.8-1.2-5.8 0.7-0.8 0.8-2.1 0.3-3-1-2-3.3-2-5-1.1-0.5 0.2-0.5 0.9 0 1z"/>
			<path class="s0" d="m290.9 95.7c-4.4 1.9-7.9 5.9-9.3 10.5-2.1 7.2 0.8 15.1-0.4 22.5-0.1 0.5-0.1 1.2 0.4 1.3 0.4 0.1 0.6-0.3 0.8-0.6 2.1-3.6 1.7-8.2 1.3-12.4-0.5-4.2-0.9-8.7 1.1-12.4 2.2-4.1 6.8-6.2 11.3-7.2 2.2-0.5 4.9-0.7 6.2 1.2 0.9 1.3 0.6 3 0.3 4.5-0.8 4.4-1.8 8.7-1.9 13.2-0.1 4.4 0.8 9 3.4 12.7 2 2.9 5.1 5.2 6.1 8.6 0.8 2.8 0.1 5.9 0 8.8-0.1 3.1 0.4 6.2 1.6 9 0.7-3.9 1.5-7.8 1.5-11.7 0-3.9-0.6-8-2.6-11.4-1.5-2.6-3.7-4.8-4.9-7.6-1.3-3.1-1.3-6.6-1.2-10 0-4.7 0.2-9.4 0.3-14.1 0-1.6 0.7-4-0.8-4.9-1.7-1-4.2-1.2-6.1-1.3-2.5-0.1-4.9 0.4-7.1 1.3z"/>
			<path class="s0" d="m304.5 99.1c-0.3 3-0.5 6.3 1.1 8.8 1 1.5 2.5 2.6 4 3.7 2.5 1.8 5.4 3.6 8.5 3.2-0.1-0.9-0.9-1.6-1.7-1.9-0.8-0.3-1.8-0.4-2.6-0.6-1.5-0.5-2.7-1.6-3.8-2.7-3-3.4-5-7.6-5.6-12.1-0.3 0.6 0.2 0.8 0.1 1.6z"/>
			<path class="s0" d="m290.2 108.3c-1 3.4-2.4 6.6-2.7 10.1-0.6 7.5 4.2 14.9 2.7 22.3-0.6 2.9-2.1 5.5-3.3 8.2-2.8 6.2-4 13.1-3.5 19.8 0.1 0.7 0.5 1.7 1.2 1.5 0.4-0.1 0.6-0.5 0.7-0.9 1.3-3.3 3.4-6.4 4.7-9.6 0.8-2 2.8-5 0.5-6.5-2.9 3.1-5 6.9-5.8 11.1 1.4-7.9 8.3-16.1 9.4-25.6 1-8.9-4.6-19.5-2.5-28.2 0.6-2.5 1.8-4.8 2-7.3 0.2-2.2-0.8-5.7-3.4-6.1-0.6 0.8 0.1 1.6 0.4 2.4 0.3 0.9 0.5 1.9 0.5 2.9 0 2-0.3 4.1-0.9 5.9z"/>
			<path class="s0" d="m291.8 151.5c2.1 0.3 4.3-0.1 6.1 1 0.9 0.5 1.6 1.4 2.4 2 2.1 1.5 5.1 1.4 7.5 0.4 1-0.4 2-1 3.1-1.1 1.1-0.1 4-0.6 4.2 0.5 0.2 0.9 0.3 2.5-0.5 3-0.7 0.5-3.3 1.6-4.2 1.7-2.8 0.4-5.9 1.9-8.6 0.8-1.4-0.6-3.4-2.6-4.9-3.1-1.8-0.6-3.6-0.3-5.5-0.6-1.6-0.2-7.7-5.5-7.7-6.6 0.2-1.7 7.1 1.9 8.1 2z"/>
			<path class="s0" d="m305.8 152.4c0 1.3 0.4 2.6 0.7 3.9 0.6 2.3 1.3 4.7 2.3 6.9 1 2.2 2.4 4.3 4.3 5.7 0.3 0.3 0.8 0.5 1.2 0.3 0.4-0.3 0.2-0.9 0-1.3-1.1-2-2.1-4.1-3.2-6.1-0.8-1.5-1.6-3.1-2-4.8-0.2-0.7-0.7-0.9-1-1.5-0.4-0.9-0.4-3.3-1.5-6.4-0.4-1.2-0.8 2.4-0.8 3.3z"/>
			<path class="s0" d="m311.5 159.3c0.5 3.2 1.6 6.3 3.7 8.8-0.2-2.1-0.4-4.2-0.5-6.4-0.1-1.7-0.3-3.3-0.8-4.9-0.5-1.7-1.5-3.4-1.5-5.2 0-0.5 0.1-2.7-0.9-1.9-0.6 0.5-0.4 2.3-0.4 3 0 2.3 0 4.5 0.4 6.6z"/>
			<path class="s0" d="m261 107.4c0.7-0.7 1.7-1.1 2.7-1 0.4 0 0.9 0.2 1.3 0.2 0.4 0 0.9-0.1 1.2-0.4 0.2-0.3 0.3-0.7 0.4-1 0.4-1.2 1.9-1.9 3.1-1.5 0.2 0.1 0.4 0.2 0.5 0.3 0.2 0.4-0.1 0.8-0.5 0.9-0.4 0.1-0.8 0.1-1.2 0.2-0.4 0.1-0.8 0.4-0.7 0.8 0.1 0.5 0.7 0.5 1.2 0.4 0.4-0.2 0.9-0.4 1.4-0.3 0.4 0.1 0.6 0.4 0.9 0.5 0.3 0.2 0.8 0.1 0.9-0.2 0.1-0.3-0.2-0.6-0.5-0.7-0.3-0.1-0.6-0.2-0.8-0.4-0.3-0.4-0.1-1 0.4-1.2 0.5-0.2 1 0 1.4 0.3 1 0.7 1.4 1.8 1.8 2.9 0.3 0.9 0.6 1.8 0.4 2.7-0.2 0.7-0.7 1.2-1.2 1.7-0.7 0.7-1.4 1.4-2 2.1-0.2 0.2-0.4 0.4-0.7 0.5-0.7 0.2-1.2-0.6-1.1-1.3 0.1-0.7 0.6-1.2 1.1-1.7 0.5-0.5 0.9-1.1 0.9-1.8 0-0.7-0.6-1.3-1.2-1.7-0.6-0.4-1.4-0.7-1.9-0.2-0.6 0.5-0.5 1.4-0.9 2-0.4 0.5-1.2 0.6-1.8 0.9-0.7 0.3-1.2 0.9-1.7 1.5-0.7 0.8-1.3 1.5-2 2.3-0.2 0.2-0.3 0.4-0.5 0.5-0.2 0.1-0.5 0.1-0.7-0.1-0.2-0.3 0-0.7 0.2-0.9 0.7-0.8 1.4-1.7 2.1-2.5 0.3-0.4 0.7-1.1 0.2-1.4-0.2-0.2-0.6-0.2-0.6-0.5 0-0.2 0.3-0.3 0.5-0.3 0.5 0 0.9 0.2 1.4 0.4 0.7 0.2 1.9 0.2 1.9-0.8 0-0.6-0.3-0.7-0.9-0.8-0.7 0-1.4 0.1-2 0.1-0.4-0.1-2.7-0.7-3-0.5z"/>
			<path class="s0" d="m270 109.1c0.1 0.4 0.3 0.8 0.4 1.2 0 0.2 0.1 0.4 0 0.6-0.1 0.4-0.5 0.6-0.8 0.8-0.7 0.3-1.5 0.6-2.1 1.1-0.4 0.3-0.7 0.6-1.1 0.8-0.4 0.2-0.9 0.4-1.3 0.2-0.1-0.6 0.4-1.1 0.9-1.4 0.5-0.3 1.1-0.4 1.6-0.7 0.8-0.4 0.9-0.9 0.9-1.7 0.1-0.9 0.3-0.4 1-0.2-0.2-0.3 0.4-1 0.5-0.7z"/>
			<path class="s0" d="m264.6 115.3c-1.3 1.7-2.6 3.3-3.9 5-0.9 1.1-1.8 2.3-2.1 3.6-0.5 2 0.3 4.2 0.6 6.3 0.3 1.7 0.2 3.5-0.1 5.1-0.1 0.6-0.3 1.3-0.2 1.9 0.1 0.6 0.7 1.2 1.3 1.1 0-2.8 0.1-5.5 0.1-8.3 0-0.7 0-1.4 0.2-2.1 0.2-0.8 0.7-1.5 0.6-2.3-0.4 0.1-0.8 0.2-1.2 0.2-0.2-0.5-0.1-1.2 0.1-1.7 0.2-0.5 0.6-1 1-1.5 1.8-2.2 3.7-4.4 5.5-6.6 0.5-0.6 1.8-1.9 0.5-2.4-0.9-0.4-1.9 1-2.4 1.7z"/>
			<path class="s0" d="m274.1 117.7c-1.6 0.7-3.3 1.4-4.9 0.8-0.4-0.1-0.8-0.4-1.2-0.5-0.4-0.1-0.9-0.2-1.3 0-0.4 0.2-0.6 0.7-0.4 1.1 0.2 0.4 0.8 0.5 1.3 0.5 1.8 0 3.5 0 5.3 0 0.7 3.5-0.4 7-0.5 10.5-0.1 1.6 0.1 3.3 0.7 4.9 0.3 0.9 0.7 1.7 1.2 2.5 0.3 0.7 0.7 1.3 1.3 1.8 0.6 0.5 1.5 0.6 2.1 0.2-3.2-3.8-4.4-9.1-3.3-13.9 0.1-0.2 0.1-0.4 0.3-0.6 0.2-0.1 0.5-0.1 0.7 0.1 0.2 0.2 0.3 0.4 0.5 0.6 1.2 2 3.3 3.4 5.6 3.7 0.2 0 0.4 0 0.6-0.1 0.1-0.2 0.1-0.4-0.1-0.6-0.1-0.1-0.3-0.2-0.5-0.3-2.8-1.1-5.2-3.3-6.5-6.1-0.4-0.8-0.6-1.7-0.5-2.6 0.1-0.7 0.5-1.2 0.7-1.9 0.5-1.7-0.6-3.6-2.3-4-0.4-0.1-1-0.1-1.4-0.5-0.2-0.2-0.3-0.8-0.4-0.9-0.3-0.2-0.9 0.4-0.9 0.7-0.2 0.8 1 1.6 1.5 2.1 0.2 0.4 2.2 2.6 2.4 2.5z"/>
			<path class="s0" d="m277.7 126.7c0.1 0.3 0.3 0.7 0.7 0.8 0.2 0 0.5-0.1 0.7-0.2 0.8-0.3 1.6 0 2.4 0.3 0.3-0.2 0.2-0.7 0-1-0.2-0.3-0.6-0.4-1-0.5q-0.6-0.15-0.9-0.6c-0.2-0.5 0-1.2-0.4-1.5-0.3-0.3-0.7-0.2-1.1-0.3-0.8-0.2-1.2-1.1-1.5-1.9-0.4-1-0.7-2-1.1-3-0.2-0.6-0.3-1.5-0.8-1.9-0.6 0.7-0.1 2.5 0.2 3.2 0.4 1.1 0.9 2.2 1.3 3.3 0.5 0.9 1.5 2.4 1.5 3.3z"/>
			<path class="s0" d="m264.1 142.4c-0.3-0.1-0.7-0.3-0.8-0.6-0.2-0.3-0.2-0.8 0.2-0.9 0.4-0.2 0.8 0.1 1.1 0.3 0.8 0.4 1.8 0.3 2.7 0 0.9-0.3 1.8-0.7 2.7-0.6 1.3 0.1 2.6 1 3.9 0.9 1.8-0.2 2.8-2.2 4.5-2.8 0.7-0.3 1.7-0.1 1.9 0.6 0.2 0.6-0.2 1.2-0.6 1.6-1.6 1.4-4 1.6-6.1 1.8-3.2 0-6.6 0.8-9.5-0.3z"/>
			<path class="s0" d="m266.6 154.2c-1 1.3-2.3 2.5-2.6 4.2-0.3 1.2 0.1 2.6-0.4 3.7-0.2 0.5-0.6 0.9-1.1 0.9-0.5 0-0.9-0.7-1-1.2-0.6-2.6 0.8-5.1 2.2-7.3 1.5-2.3 3.2-4.6 3.4-7.5 0-0.5-0.1-1.1 0.4-1.3 0.4-0.1 0.8 0.1 1 0.4 0.5 0.9 0.1 3-0.2 4-0.2 1.4-0.8 2.8-1.7 4.1z"/>
			<path class="s0" d="m277.9 159.5c0.5 1 1.3 2.1 2.4 2-0.1-1.2-0.7-2.4-1.3-3.5-2.1-4.2-3.3-8.9-3.3-13.7 0-0.7-0.5-3.5-1.8-2.3-0.8 0.7-0.2 3.1-0.1 4.1 0.4 3 1.1 6 2.1 8.9 0.6 1.5 1.2 3.1 2 4.5z"/>
			<path class="s0" d="m277.7 147.2c-0.1 3.7 0.2 7.3 1.1 10.9 0.3 1.2 0.9 2.5 2.1 2.6-1.5-4.9-1.9-10.2-1.3-15.3 0.1-0.7-0.2-6.4-1.8-5.2-1.1 1.1 0 5.8-0.1 7z"/>
		</g>
		<path class="s0" d="m417.8 119.9c-2.3 2-4.6 3.9-6.8 5.9l-0.3 0.4c-0.4 0.1-0.7 0.2-1.1 0.3-0.2 0-0.5 0.1-0.7 0.1-0.5 0.4-1 0.7-1.5 1.1-1.5 1-2.9 1.9-4.4 2.9q-0.75 0.45-1.5 0.9 0.75-0.45 1.5-0.9c1.4-1 2.9-2 4.3-3 0.5-0.4 1-0.7 1.5-1.1 0.6-0.5 1.3-1 1.9-1.4 0.9-0.8 1.8-1.6 2.6-2.5 2.9-3.4 5.7-6.8 8.5-10.1-0.1-0.1-0.1-0.1-0.2-0.2-3.8 5.2-8.2 9.9-13.4 13.8-13.2 9.8-28.2 15.2-44 18.7-2 1.2-4.3 1.9-6.6 2.4 0 0.1 0 0.3 0 0.4-0.1 1.4-0.1 2.7-0.1 4.1 1.2-0.2 2.3-0.4 3.5-0.6 0.2-0.2 0.5-0.3 1-0.4 5.9-1.6 11.9-3 17.6-5 15.3-5.5 29.5-12.9 40.2-25.8 0.4-0.4 0.6-1 0.8-1.5-0.2-0.1-0.3-0.3-0.5-0.4-0.8 0.6-1.6 1.2-2.3 1.9zm-17.9 12.7l-0.2-0.4c0.5-0.2 1-0.4 1.4-0.6-0.4 0.3-0.8 0.7-1.2 1z"/>
		<path class="s0" d="m281.5 154.7c0.5 0 1 0.1 1.7 0.2 0.1 0 0.2 0 0.3 0.1 1.4 0.2 2.8 0.3 4.2 0.4 0.2-0.1 0.5 0 0.8 0.1q0.15 0 0.3 0c4.6 0.3 9.1 0.6 13.6 0.7-0.5-0.3-0.9-0.6-1.3-1-2-1.8-4.2-2.7-7-2.4-1.8 0.2-3.8 0.3-5.4-1 0.3-0.5 0.5-1 0.7-1.5-3.9-0.5-7.7-1.3-11.4-2.5 0.2 2.2 0.4 4.3 0.6 6.5 1 0.1 2 0.2 2.9 0.4z"/>
		<path class="s0" d="m263.5 149.9c0.6 0.4 1.5 0.7 2.3 0.9 0.4-0.8 0.7-1.6 1.1-2.4 0.2 0.1 0.5 0.2 0.7 0.3-0.4 0.7-0.7 1.5-1.1 2.2 1 0.2 2 0.4 2.8 0.6 1.7 0.5 3.4 1.1 5.1 1.6 0.2 0 0.4 0.1 0.6 0.2 0.2 0.1 0.5 0.1 0.7 0.2 0.6 0.2 1.2 0.3 1.7 0.4-0.4-1.8-0.9-3.5-1.3-5.3-0.1-0.5-0.2-1.1-0.3-1.6-0.1 0-0.2-0.1-0.3-0.1-0.1 0-0.1 0-0.2-0.1-1.8-0.7-3.7-1.3-5.6-2.1-0.1 0-0.2-0.1-0.4-0.1-0.4-0.1-0.8-0.3-1.1-0.5-0.6-0.3-1.2-0.6-1.8-1-0.2 0-0.4-0.1-0.6-0.1-0.8-0.1-1.4-0.4-1.9-0.8-0.3 0-0.5-0.1-0.8-0.2-0.2 0-0.4-0.1-0.5-0.2-5.3-2.3-10.5-4.6-15.8-7-8-3.6-16-7.3-24.1-10.7-7.9-3.2-16.2-4.3-24.6-5.1-10.1-1-20.2-1.4-30.3 0.2-2.6 0.4-5.8 0.2-7.4 3.5 3.3 1 6.5-1 9.6-0.4 0 0.2 0 0.3 0 0.5-0.5 0.3-0.9 0.6-1.5 1 0.3 0.1 0.4 0.1 0.6 0.2 8.2 0.6 16.5-0.3 24.6 2.1 2.2 0.7 4.6 0.6 6.8 0.8 7.2 0.7 14.4 1.6 21.1 4.5 13.4 5.8 26.8 11.8 40.1 17.7 0.6 0.1 1.2 0.4 1.8 0.8z"/>
		<path class="s0" d="m306.2 155.2c0 0.3 0.1 0.6 0.1 1 2.6 0 5.2-0.1 7.8-0.2 5.6-0.3 11.2-0.6 16.7-1 0.2-1.8 0.6-3.6 1-5.3-1.3 0.1-2.7 0.2-4 0.3-5.5 0.4-11.2 0.8-16.9 1.1 0.1 0.9 0.3 1.8 0.6 2.6 0.6 1.9-0.9 1.7-1.9 2-1.5 0.5-1.4-0.6-1.5-1.5-0.1-1-0.2-2-0.3-3.1q-0.9 0-1.8 0c-0.3 0.7-0.4 1.4-0.3 2.2 0.2 0.6 0.5 1.2 0.5 1.9z"/>
		<path class="s0" d="m361.9 149.6c0 0 0.1 0.1 0 0 0.2 0.1 0.3 0.1 0.4 0.1l-0.1-0.1q-0.15 0-0.3 0z"/>
		<path class="s0" d="m382.9 172.1c-3.8 1.7-7.5 3.4-11.3 5.2-0.1-0.2-0.1-0.3-0.2-0.5 3.8-1.6 7.6-3.2 11.5-4.7 1.7-1 3.6-1.9 5.4-2.9 5.2-2.8 10.3-5.6 15.4-8.4-0.1-0.1-0.1-0.1-0.2-0.2-4 2.1-7.9 4.2-11.9 6.2-17.9 9-36.3 16.5-56.3 19.5-8.4 1.3-16.8 2-25.3 1.8-10.9-0.3-21.5-2.1-31.9-5.2-12.2-3.6-24.1-8.1-34.7-15-10.8-7-21.2-14.8-31.5-22.6-6.2-4.7-12.1-9.8-19.2-13.1-12.9-5.9-26.7-8.3-40.7-9.1-3.5-0.2-7.1-0.1-10.7-0.1-1 0.1-2.1 0.2-3.1 0.3-3.2 0.3-7 0.5-10.3-0.3-2.8 0.3-5.6 0.6-8.3 0.7-2 0.1-3.8 0.8-5.4 1.9-0.2 0.1-0.3 0.4-0.8 1 3.3 0 6.3 0 9.2 0 0.7 0 1.3 0.2 2 0.3 0 0.2 0 0.3-0.1 0.5-0.7 0.2-1.4 0.5-2.4 0.8 0.5 0.2 0.7 0.3 0.8 0.3 9.2 0.8 18.5-0.2 27.7 1.7 6.1 1.3 12.5 1.4 18.7 2.4 12 1.8 23.1 6.1 32.7 13.7 6.3 5 12.6 10.1 19.1 14.8 22.1 16 46.1 27.6 73.5 31.3 10.2 1.3 20.3 1.5 30.5 0.5 12.7-1.2 25.1-4.2 37-8.7 12.7-4.9 24.9-10.6 36.6-17.4 0.5-0.3 0.9-0.9 1.4-1.3-0.1-0.2-0.2-0.3-0.4-0.5-5.5 2.7-10.7 6-16.8 7.1zm-76.4 20.4c0-0.1-0.1-0.1-0.1-0.2h18.1c0 0.1 0 0.1 0 0.2zm20.2-0.6v-0.1h1.5v0.1zm4.6-0.3q-0.3 0-0.6 0v-0.1h0.6z"/>
		<path class="s0" d="m354.1 146.8c-1.3 0.2-2.6 0.4-3.9 0.4q-0.3 0.3-0.9 0.3c-3.1 0.4-6.2 0.8-9.9 1.3 0-0.1 0.1-0.2 0.1-0.3 0 0 0 0-0.1 0q-1.95 0.3-3.9 0.6c-0.4 1.4-0.7 2.8-0.8 4.3 0 0.5 0 1-0.1 1.4 0.2 0 0.3 0 0.5 0 0.5 0 0.9 0 1.4 0 0.4 0 0.8-0.1 1.2-0.1 0.3-0.2 0.7-0.3 1.2-0.4 3.7-0.5 7.4-1 11.2-1.5 0.3 0 0.5 0 0.7 0 1.2-0.2 2.5-0.5 3.7-0.7 0-1.4-0.2-2.8-0.4-4.2 0.1-0.4 0.1-0.8 0-1.1zm-12.4 6.2v-0.1c0.3 0 0.5-0.1 0.8-0.1 0 0.1 0 0.1 0 0.2zm2.6-0.3v-0.3h1.7c-0.6 0.1-1.1 0.2-1.7 0.3zm4.4-0.7c0.5-0.1 0.9-0.3 1.4-0.4 0 0.1 0 0.3 0 0.4z"/>
		<path class="s0" d="m338.7 153.2c0 0 0 0.1 0 0 0.2 0.1 0.4 0.1 0.6 0.1 0 0 0 0 0-0.1q-0.3 0-0.6 0z"/>
		<path class="s0" d="m408.8 157.9c-0.8 0.5-1.7 1-2.5 1.5-0.1-0.1-0.1-0.1-0.2-0.2 0.9-0.5 1.7-0.9 2.6-1.4z"/>
		<path class="s0" d="m406.3 159.4c-0.9 0.5-1.7 1-2.6 1.5-0.1-0.1-0.1-0.1-0.2-0.2 0.9-0.5 1.7-1 2.6-1.4 0.1-0.1 0.2 0 0.2 0.1z"/>
		<path class="s0" d="m408.7 157.7c0.5-0.3 1-0.7 1.5-1 0.1 0.1 0.1 0.2 0.2 0.4-0.5 0.3-1.1 0.5-1.6 0.8 0 0-0.1-0.2-0.1-0.2z"/>
		<path class="s0" d="m422.2 111.1c0.3-0.5 0.6-1.1 0.8-1.6 0.1 0.1 0.2 0.2 0.4 0.2-0.4 0.5-0.7 1-1.1 1.5 0 0-0.1-0.1-0.1-0.1z"/>
		<path class="s0" d="m411 125.8c-0.1 0.1-0.2 0.2-0.3 0.4-0.3 0-0.5 0-0.8 0 0.3-0.4 0.5-0.8 0.8-1.1 0 0.2 0.1 0.4 0.3 0.7z"/>
		<path class="s0" d="m413.6 123.2q-0.3 0.3-0.6 0.6c-0.1-0.1-0.1-0.1-0.2-0.2q0.3-0.3 0.6-0.6c0.1 0.1 0.1 0.2 0.2 0.2z"/>
		<path class="s0" d="m412.3 155.9c-0.2 0.1-0.4 0.3-0.6 0.4 0-0.1-0.1-0.1-0.1-0.2 0.2-0.1 0.4-0.3 0.6-0.4 0 0.1 0 0.1 0.1 0.2z"/>
		<path class="s0" d="m417.7 119c-0.1 0.1-0.2 0.1-0.3 0.2l-0.1-0.1c0.1-0.1 0.2-0.1 0.2-0.2 0.1 0 0.2 0.1 0.2 0.1z"/>
		<path class="s0" d="m421.4 112.2c0.2-0.4 0.5-0.7 0.7-1.1 0.1 0 0.1 0.1 0.2 0.1-0.2 0.4-0.5 0.7-0.7 1.1 0 0-0.1 0-0.2-0.1z"/>
	</g>
</svg>